SplineFontDB: 3.0
FontName: EnterCommandMono
FullName: EnterCommandMono
FamilyName: EnterCommandMono
Weight: Medium
Copyright: jeti
Version: 001.000
ItalicAngle: 0
UnderlinePosition: -64
UnderlineWidth: 64
Ascent: 768
Descent: 256
InvalidEm: 0
sfntRevision: 0x00010000
LayerCount: 2
Layer: 0 1 "Arri+AOgA-re" 1
Layer: 1 1 "Avant" 0
XUID: [1021 317 39143339 27574]
StyleMap: 0x0040
FSType: 0
OS2Version: 1
OS2_WeightWidthSlopeOnly: 0
OS2_UseTypoMetrics: 0
CreationTime: 1280473793
ModificationTime: 1544442541
PfmFamily: 17
TTFWeight: 500
TTFWidth: 5
LineGap: 0
VLineGap: 0
Panose: 2 0 6 3 0 0 0 0 0 0
OS2TypoAscent: 768
OS2TypoAOffset: 0
OS2TypoDescent: -256
OS2TypoDOffset: 0
OS2TypoLinegap: 0
OS2WinAscent: 640
OS2WinAOffset: 0
OS2WinDescent: 192
OS2WinDOffset: 0
HheadAscent: 640
HheadAOffset: 0
HheadDescent: -192
HheadDOffset: 0
OS2SubXSize: 664
OS2SubYSize: 716
OS2SubXOff: 0
OS2SubYOff: 144
OS2SupXSize: 664
OS2SupYSize: 716
OS2SupXOff: 0
OS2SupYOff: 492
OS2StrikeYSize: 52
OS2StrikeYPos: 264
OS2Vendor: '    '
OS2CodePages: 40000093.00000000
OS2UnicodeRanges: a000000f.0001606a.00000000.00000000
MarkAttachClasses: 1
DEI: 91125
ShortTable: cvt  2
  34
  648
EndShort
ShortTable: maxp 16
  1
  0
  376
  76
  12
  0
  0
  2
  0
  1
  1
  0
  64
  46
  0
  0
EndShort
LangName: 1033 "" "" "" "jeti:EnterCommandMono"
GaspTable: 1 65535 0 0
Encoding: Custom
UnicodeInterp: none
NameList: AGL For New Fonts
DisplaySize: -24
AntiAlias: 1
FitToEm: 0
WinInfo: 0 26 16
BeginPrivate: 0
EndPrivate
TeXData: 1 0 0 393216 196608 131072 327680 1048576 131072 783286 444596 497025 792723 393216 433062 380633 303038 157286 324010 404750 52429 2506097 1059062 262144
BeginChars: 375 375

StartChar: exclam
Encoding: 1 33 0
Width: 384
VWidth: 1020
Flags: MW
LayerCount: 2
Fore
SplineSet
128 128 m 1,0,-1
 128 448 l 1,1,-1
 192 448 l 1,2,-1
 192 128 l 1,3,-1
 128 128 l 1,0,-1
128 0 m 1,4,-1
 128 64 l 1,5,-1
 192 64 l 1,6,-1
 192 0 l 1,7,-1
 128 0 l 1,4,-1
EndSplineSet
EndChar

StartChar: quotedbl
Encoding: 2 34 1
Width: 384
VWidth: 1020
Flags: MW
LayerCount: 2
Fore
SplineSet
64 320 m 1,0,-1
 64 448 l 1,1,-1
 128 448 l 1,2,-1
 128 320 l 1,3,-1
 64 320 l 1,0,-1
192 320 m 1,4,-1
 192 448 l 1,5,-1
 256 448 l 1,6,-1
 256 320 l 1,7,-1
 192 320 l 1,4,-1
EndSplineSet
EndChar

StartChar: numbersign
Encoding: 3 35 2
Width: 384
VWidth: 1020
Flags: MW
LayerCount: 2
Fore
SplineSet
192 192 m 5,0,-1
 192 320 l 5,1,-1
 128 320 l 5,2,-1
 128 192 l 5,3,-1
 192 192 l 5,0,-1
192 64 m 5,4,-1
 192 128 l 5,5,-1
 128 128 l 5,6,-1
 128 64 l 5,7,-1
 64 64 l 5,8,-1
 64 128 l 5,9,-1
 0 128 l 5,10,-1
 0 192 l 5,11,-1
 64 192 l 5,12,-1
 64 320 l 5,13,-1
 0 320 l 5,14,-1
 0 384 l 5,15,-1
 64 384 l 5,16,-1
 64 448 l 5,17,-1
 128 448 l 5,18,-1
 128 384 l 5,19,-1
 192 384 l 5,20,-1
 192 448 l 5,21,-1
 256 448 l 5,22,-1
 256 384 l 5,23,-1
 320 384 l 5,24,-1
 320 320 l 5,25,-1
 256 320 l 5,26,-1
 256 192 l 5,27,-1
 320 192 l 5,28,-1
 320 128 l 5,29,-1
 256 128 l 5,30,-1
 256 64 l 5,31,-1
 192 64 l 5,4,-1
EndSplineSet
EndChar

StartChar: dollar
Encoding: 4 36 3
Width: 384
VWidth: 1020
Flags: MW
LayerCount: 2
Fore
SplineSet
128 256 m 1,0,-1
 128 384 l 1,1,-1
 64 384 l 1,2,-1
 64 256 l 1,3,-1
 128 256 l 1,0,-1
128 -64 m 1,4,-1
 128 0 l 1,5,-1
 64 0 l 1,6,-1
 64 64 l 1,7,-1
 0 64 l 1,8,-1
 0 128 l 1,9,-1
 64 128 l 1,10,-1
 64 64 l 1,11,-1
 128 64 l 1,12,-1
 128 192 l 1,13,-1
 64 192 l 1,14,-1
 64 256 l 1,15,-1
 0 256 l 1,16,-1
 0 384 l 1,17,-1
 64 384 l 1,18,-1
 64 448 l 1,19,-1
 128 448 l 1,20,-1
 128 512 l 1,21,-1
 192 512 l 1,22,-1
 192 448 l 1,23,-1
 256 448 l 1,24,-1
 256 384 l 1,25,-1
 192 384 l 1,26,-1
 192 256 l 1,27,-1
 256 256 l 1,28,-1
 256 192 l 1,29,-1
 192 192 l 1,30,-1
 192 64 l 1,31,-1
 256 64 l 1,32,-1
 256 0 l 1,33,-1
 192 0 l 1,34,-1
 192 -64 l 1,35,-1
 128 -64 l 1,4,-1
256 64 m 1,36,-1
 256 192 l 1,37,-1
 320 192 l 1,38,-1
 320 64 l 1,39,-1
 256 64 l 1,36,-1
256 384 m 1,40,-1
 320 384 l 1,41,-1
 320 320 l 1,42,-1
 256 320 l 1,43,-1
 256 384 l 1,40,-1
EndSplineSet
EndChar

StartChar: percent
Encoding: 5 37 4
Width: 384
VWidth: 1020
Flags: MW
LayerCount: 2
Fore
SplineSet
64 0 m 1,0,-1
 64 128 l 1,1,-1
 128 128 l 1,2,-1
 128 320 l 1,3,-1
 192 320 l 1,4,-1
 192 448 l 1,5,-1
 256 448 l 1,6,-1
 256 320 l 1,7,-1
 192 320 l 1,8,-1
 192 128 l 1,9,-1
 128 128 l 1,10,-1
 128 0 l 1,11,-1
 64 0 l 1,0,-1
0 320 m 1,12,-1
 0 448 l 1,13,-1
 128 448 l 1,14,-1
 128 320 l 1,15,-1
 0 320 l 1,12,-1
192 128 m 1,16,-1
 320 128 l 1,17,-1
 320 0 l 1,18,-1
 192 0 l 1,19,-1
 192 128 l 1,16,-1
EndSplineSet
EndChar

StartChar: ampersand
Encoding: 6 38 5
Width: 384
VWidth: 1020
Flags: MW
LayerCount: 2
Fore
SplineSet
64 384 m 1,0,-1
 64 448 l 1,1,-1
 192 448 l 1,2,-1
 192 384 l 1,3,-1
 64 384 l 1,0,-1
64 384 m 1,4,-1
 64 320 l 1,5,-1
 0 320 l 1,6,-1
 0 384 l 1,7,-1
 64 384 l 1,4,-1
192 384 m 1,8,-1
 256 384 l 1,9,-1
 256 320 l 1,10,-1
 192 320 l 1,11,-1
 192 384 l 1,8,-1
192 320 m 1,12,-1
 192 192 l 1,13,-1
 64 192 l 1,14,-1
 64 320 l 1,15,-1
 192 320 l 1,12,-1
64 192 m 1,16,-1
 64 64 l 1,17,-1
 0 64 l 1,18,-1
 0 192 l 1,19,-1
 64 192 l 1,16,-1
256 192 m 1,20,-1
 256 256 l 1,21,-1
 320 256 l 1,22,-1
 320 192 l 1,23,-1
 256 192 l 1,20,-1
256 192 m 1,24,-1
 256 64 l 1,25,-1
 192 64 l 1,26,-1
 192 192 l 1,27,-1
 256 192 l 1,24,-1
192 64 m 1,28,-1
 192 0 l 1,29,-1
 64 0 l 1,30,-1
 64 64 l 1,31,-1
 192 64 l 1,28,-1
256 64 m 1,32,-1
 320 64 l 1,33,-1
 320 0 l 1,34,-1
 256 0 l 1,35,-1
 256 64 l 1,32,-1
EndSplineSet
EndChar

StartChar: quotesingle
Encoding: 7 39 6
Width: 384
VWidth: 1020
Flags: MW
LayerCount: 2
Fore
SplineSet
128 320 m 1,0,-1
 128 448 l 1,1,-1
 192 448 l 1,2,-1
 192 320 l 1,3,-1
 128 320 l 1,0,-1
EndSplineSet
EndChar

StartChar: parenleft
Encoding: 8 40 7
Width: 384
VWidth: 1020
Flags: MW
LayerCount: 2
Fore
SplineSet
192 448 m 1,0,-1
 192 512 l 1,1,-1
 256 512 l 1,2,-1
 256 448 l 1,3,-1
 192 448 l 1,0,-1
192 448 m 1,4,-1
 192 384 l 1,5,-1
 128 384 l 1,6,-1
 128 448 l 1,7,-1
 192 448 l 1,4,-1
128 384 m 1,8,-1
 128 64 l 1,9,-1
 64 64 l 1,10,-1
 64 384 l 1,11,-1
 128 384 l 1,8,-1
128 64 m 1,12,-1
 192 64 l 1,13,-1
 192 0 l 1,14,-1
 128 0 l 1,15,-1
 128 64 l 1,12,-1
192 0 m 1,16,-1
 256 0 l 1,17,-1
 256 -64 l 1,18,-1
 192 -64 l 1,19,-1
 192 0 l 1,16,-1
EndSplineSet
EndChar

StartChar: parenright
Encoding: 9 41 8
Width: 384
VWidth: 1020
Flags: MW
LayerCount: 2
Fore
SplineSet
64 -64 m 1,0,-1
 64 0 l 1,1,-1
 128 0 l 1,2,-1
 128 64 l 1,3,-1
 192 64 l 1,4,-1
 192 384 l 1,5,-1
 128 384 l 1,6,-1
 128 448 l 1,7,-1
 64 448 l 1,8,-1
 64 512 l 1,9,-1
 128 512 l 1,10,-1
 128 448 l 1,11,-1
 192 448 l 1,12,-1
 192 384 l 1,13,-1
 256 384 l 1,14,-1
 256 64 l 1,15,-1
 192 64 l 1,16,-1
 192 0 l 1,17,-1
 128 0 l 1,18,-1
 128 -64 l 1,19,-1
 64 -64 l 1,0,-1
EndSplineSet
EndChar

StartChar: asterisk
Encoding: 10 42 9
Width: 384
VWidth: 1020
Flags: MW
LayerCount: 2
Fore
SplineSet
192 192 m 1,0,-1
 192 256 l 1,1,-1
 128 256 l 1,2,-1
 128 192 l 1,3,-1
 64 192 l 1,4,-1
 64 320 l 1,5,-1
 0 320 l 1,6,-1
 0 384 l 1,7,-1
 128 384 l 1,8,-1
 128 448 l 1,9,-1
 192 448 l 1,10,-1
 192 384 l 1,11,-1
 320 384 l 1,12,-1
 320 320 l 1,13,-1
 256 320 l 1,14,-1
 256 192 l 1,15,-1
 192 192 l 1,0,-1
EndSplineSet
EndChar

StartChar: plus
Encoding: 11 43 10
Width: 384
VWidth: 1020
Flags: MW
LayerCount: 2
Fore
SplineSet
128 64 m 1,0,-1
 128 192 l 1,1,-1
 0 192 l 1,2,-1
 0 256 l 1,3,-1
 128 256 l 1,4,-1
 128 384 l 1,5,-1
 192 384 l 1,6,-1
 192 256 l 1,7,-1
 320 256 l 1,8,-1
 320 192 l 1,9,-1
 192 192 l 1,10,-1
 192 64 l 1,11,-1
 128 64 l 1,0,-1
EndSplineSet
EndChar

StartChar: comma
Encoding: 12 44 11
Width: 384
VWidth: 1020
Flags: MW
LayerCount: 2
Fore
SplineSet
64 -64 m 1,0,-1
 64 0 l 1,1,-1
 128 0 l 1,2,-1
 128 128 l 1,3,-1
 192 128 l 1,4,-1
 192 0 l 1,5,-1
 128 0 l 1,6,-1
 128 -64 l 1,7,-1
 64 -64 l 1,0,-1
EndSplineSet
EndChar

StartChar: hyphen
Encoding: 13 45 12
Width: 384
VWidth: 1020
Flags: MW
LayerCount: 2
Fore
SplineSet
64 256 m 1,0,-1
 256 256 l 1,1,-1
 256 192 l 1,2,-1
 64 192 l 1,3,-1
 64 256 l 1,0,-1
EndSplineSet
EndChar

StartChar: period
Encoding: 14 46 13
Width: 384
VWidth: 1020
Flags: MW
LayerCount: 2
Fore
SplineSet
128 0 m 1,0,-1
 128 64 l 5,1,-1
 192 64 l 5,2,-1
 192 0 l 1,3,-1
 128 0 l 1,0,-1
EndSplineSet
EndChar

StartChar: slash
Encoding: 15 47 14
Width: 384
VWidth: 1020
Flags: MW
LayerCount: 2
Fore
SplineSet
64 -64 m 1,0,-1
 64 128 l 1,1,-1
 128 128 l 1,2,-1
 128 320 l 1,3,-1
 192 320 l 1,4,-1
 192 512 l 1,5,-1
 256 512 l 1,6,-1
 256 320 l 1,7,-1
 192 320 l 1,8,-1
 192 128 l 1,9,-1
 128 128 l 1,10,-1
 128 -64 l 1,11,-1
 64 -64 l 1,0,-1
EndSplineSet
EndChar

StartChar: zero
Encoding: 16 48 15
Width: 384
VWidth: 1020
Flags: MW
LayerCount: 2
Fore
SplineSet
256 384 m 1,0,-1
 64 384 l 1,1,-1
 64 448 l 1,2,-1
 256 448 l 1,3,-1
 256 384 l 1,0,-1
256 384 m 1,4,-1
 320 384 l 1,5,-1
 320 64 l 1,6,-1
 256 64 l 1,7,-1
 256 256 l 1,8,-1
 192 256 l 1,9,-1
 192 320 l 1,10,-1
 256 320 l 1,11,-1
 256 384 l 1,4,-1
64 384 m 1,12,-1
 64 192 l 1,13,-1
 128 192 l 1,14,-1
 128 256 l 1,15,-1
 192 256 l 1,16,-1
 192 192 l 1,17,-1
 128 192 l 1,18,-1
 128 128 l 1,19,-1
 64 128 l 1,20,-1
 64 64 l 1,21,-1
 0 64 l 1,22,-1
 0 384 l 1,23,-1
 64 384 l 1,12,-1
256 64 m 1,24,-1
 256 0 l 1,25,-1
 64 0 l 1,26,-1
 64 64 l 1,27,-1
 256 64 l 1,24,-1
EndSplineSet
EndChar

StartChar: one
Encoding: 17 49 16
Width: 384
VWidth: 1020
Flags: MWO
LayerCount: 2
Fore
SplineSet
256 0 m 1,0,-1
 64 0 l 1,1,-1
 64 64 l 1,2,-1
 128 64 l 1,3,-1
 128 320 l 1,4,-1
 64 320 l 1,5,-1
 64 384 l 1,6,-1
 128 384 l 4,7,-1
 128 448 l 0,8,-1
 192 448 l 1,9,-1
 192 64 l 1,10,-1
 256 64 l 1,11,-1
 256 0 l 1,0,-1
EndSplineSet
EndChar

StartChar: two
Encoding: 18 50 17
Width: 384
VWidth: 1020
Flags: MW
LayerCount: 2
Fore
SplineSet
128 64 m 1,0,-1
 320 64 l 1,1,-1
 320 0 l 1,2,-1
 0 0 l 1,3,-1
 0 64 l 1,4,-1
 64 64 l 1,5,-1
 64 128 l 1,6,-1
 128 128 l 1,7,-1
 128 192 l 1,8,-1
 192 192 l 1,9,-1
 192 256 l 1,10,-1
 256 256 l 1,11,-1
 256 384 l 1,12,-1
 64 384 l 1,13,-1
 64 448 l 1,14,-1
 256 448 l 1,15,-1
 256 384 l 1,16,-1
 320 384 l 1,17,-1
 320 256 l 1,18,-1
 256 256 l 1,19,-1
 256 192 l 1,20,-1
 192 192 l 1,21,-1
 192 128 l 1,22,-1
 128 128 l 1,23,-1
 128 64 l 1,0,-1
0 320 m 1,24,-1
 0 384 l 1,25,-1
 64 384 l 1,26,-1
 64 320 l 1,27,-1
 0 320 l 1,24,-1
EndSplineSet
EndChar

StartChar: three
Encoding: 19 51 18
Width: 384
VWidth: 1020
Flags: MW
LayerCount: 2
Fore
SplineSet
256 320 m 1,0,-1
 256 384 l 1,1,-1
 0 384 l 1,2,-1
 0 448 l 1,3,-1
 320 448 l 1,4,-1
 320 320 l 1,5,-1
 256 320 l 1,0,-1
256 320 m 1,6,-1
 256 192 l 1,7,-1
 128 192 l 1,8,-1
 128 256 l 1,9,-1
 192 256 l 1,10,-1
 192 320 l 1,11,-1
 256 320 l 1,6,-1
256 192 m 1,12,-1
 320 192 l 1,13,-1
 320 64 l 1,14,-1
 256 64 l 1,15,-1
 256 192 l 1,12,-1
256 64 m 1,16,-1
 256 0 l 1,17,-1
 64 0 l 1,18,-1
 64 64 l 1,19,-1
 0 64 l 1,20,-1
 0 128 l 1,21,-1
 64 128 l 1,22,-1
 64 64 l 1,23,-1
 256 64 l 1,16,-1
EndSplineSet
EndChar

StartChar: four
Encoding: 20 52 19
Width: 384
VWidth: 1020
Flags: MW
LayerCount: 2
Fore
SplineSet
64 192 m 1,0,-1
 192 192 l 1,1,-1
 192 320 l 1,2,-1
 128 320 l 1,3,-1
 128 256 l 1,4,-1
 64 256 l 1,5,-1
 64 192 l 1,0,-1
192 0 m 1,6,-1
 192 128 l 1,7,-1
 0 128 l 1,8,-1
 0 256 l 1,9,-1
 64 256 l 1,10,-1
 64 320 l 1,11,-1
 128 320 l 1,12,-1
 128 384 l 1,13,-1
 192 384 l 1,14,-1
 192 448 l 1,15,-1
 256 448 l 1,16,-1
 256 192 l 1,17,-1
 320 192 l 1,18,-1
 320 128 l 1,19,-1
 256 128 l 1,20,-1
 256 0 l 1,21,-1
 192 0 l 1,6,-1
EndSplineSet
EndChar

StartChar: five
Encoding: 21 53 20
Width: 384
VWidth: 1020
Flags: MW
LayerCount: 2
Fore
SplineSet
256 256 m 1,0,-1
 0 256 l 1,1,-1
 0 448 l 1,2,-1
 320 448 l 1,3,-1
 320 384 l 1,4,-1
 64 384 l 1,5,-1
 64 320 l 1,6,-1
 256 320 l 1,7,-1
 256 256 l 1,0,-1
256 256 m 1,8,-1
 320 256 l 1,9,-1
 320 64 l 1,10,-1
 256 64 l 1,11,-1
 256 256 l 1,8,-1
256 64 m 1,12,-1
 256 0 l 1,13,-1
 64 0 l 1,14,-1
 64 64 l 1,15,-1
 0 64 l 1,16,-1
 0 128 l 1,17,-1
 64 128 l 1,18,-1
 64 64 l 1,19,-1
 256 64 l 1,12,-1
EndSplineSet
EndChar

StartChar: six
Encoding: 22 54 21
Width: 384
VWidth: 1020
Flags: MW
LayerCount: 2
Fore
SplineSet
128 448 m 1,0,-1
 256 448 l 1,1,-1
 256 384 l 1,2,-1
 128 384 l 1,3,-1
 128 448 l 1,0,-1
128 384 m 1,4,-1
 128 320 l 1,5,-1
 64 320 l 1,6,-1
 64 384 l 1,7,-1
 128 384 l 1,4,-1
64 320 m 1,8,-1
 64 256 l 1,9,-1
 256 256 l 1,10,-1
 256 192 l 1,11,-1
 64 192 l 1,12,-1
 64 64 l 1,13,-1
 0 64 l 1,14,-1
 0 320 l 1,15,-1
 64 320 l 1,8,-1
256 192 m 1,16,-1
 320 192 l 1,17,-1
 320 64 l 1,18,-1
 256 64 l 1,19,-1
 256 192 l 1,16,-1
256 64 m 1,20,-1
 256 0 l 1,21,-1
 64 0 l 1,22,-1
 64 64 l 1,23,-1
 256 64 l 1,20,-1
EndSplineSet
EndChar

StartChar: seven
Encoding: 23 55 22
Width: 384
VWidth: 1020
Flags: MW
LayerCount: 2
Fore
SplineSet
64 0 m 1,0,-1
 64 192 l 1,1,-1
 128 192 l 1,2,-1
 128 256 l 1,3,-1
 192 256 l 1,4,-1
 192 320 l 1,5,-1
 256 320 l 1,6,-1
 256 384 l 1,7,-1
 0 384 l 1,8,-1
 0 448 l 1,9,-1
 320 448 l 1,10,-1
 320 320 l 1,11,-1
 256 320 l 1,12,-1
 256 256 l 1,13,-1
 192 256 l 1,14,-1
 192 192 l 1,15,-1
 128 192 l 1,16,-1
 128 0 l 1,17,-1
 64 0 l 1,0,-1
EndSplineSet
EndChar

StartChar: eight
Encoding: 24 56 23
Width: 384
VWidth: 1020
Flags: MW
LayerCount: 2
Fore
SplineSet
64 384 m 1,0,-1
 64 448 l 1,1,-1
 256 448 l 1,2,-1
 256 384 l 1,3,-1
 64 384 l 1,0,-1
64 384 m 1,4,-1
 64 256 l 1,5,-1
 0 256 l 1,6,-1
 0 384 l 1,7,-1
 64 384 l 1,4,-1
256 384 m 1,8,-1
 320 384 l 1,9,-1
 320 256 l 1,10,-1
 256 256 l 1,11,-1
 256 384 l 1,8,-1
256 256 m 1,12,-1
 256 192 l 1,13,-1
 64 192 l 1,14,-1
 64 256 l 1,15,-1
 256 256 l 1,12,-1
64 192 m 1,16,-1
 64 64 l 1,17,-1
 0 64 l 1,18,-1
 0 192 l 1,19,-1
 64 192 l 1,16,-1
256 192 m 1,20,-1
 320 192 l 1,21,-1
 320 64 l 1,22,-1
 256 64 l 1,23,-1
 256 192 l 1,20,-1
256 64 m 1,24,-1
 256 0 l 1,25,-1
 64 0 l 1,26,-1
 64 64 l 1,27,-1
 256 64 l 1,24,-1
EndSplineSet
EndChar

StartChar: nine
Encoding: 25 57 24
Width: 384
VWidth: 1020
Flags: MW
LayerCount: 2
Fore
SplineSet
64 384 m 1,0,-1
 64 448 l 1,1,-1
 256 448 l 1,2,-1
 256 384 l 1,3,-1
 64 384 l 1,0,-1
64 384 m 1,4,-1
 64 256 l 1,5,-1
 0 256 l 1,6,-1
 0 384 l 1,7,-1
 64 384 l 1,4,-1
256 384 m 1,8,-1
 320 384 l 1,9,-1
 320 128 l 1,10,-1
 256 128 l 1,11,-1
 256 192 l 1,12,-1
 64 192 l 1,13,-1
 64 256 l 1,14,-1
 256 256 l 1,15,-1
 256 384 l 1,8,-1
256 128 m 1,16,-1
 256 64 l 1,17,-1
 192 64 l 1,18,-1
 192 128 l 1,19,-1
 256 128 l 1,16,-1
192 64 m 1,20,-1
 192 0 l 1,21,-1
 64 0 l 1,22,-1
 64 64 l 1,23,-1
 192 64 l 1,20,-1
EndSplineSet
EndChar

StartChar: colon
Encoding: 26 58 25
Width: 384
VWidth: 1020
Flags: MW
LayerCount: 2
Fore
SplineSet
128 192 m 1,0,-1
 128 256 l 1,1,-1
 192 256 l 1,2,-1
 192 192 l 1,3,-1
 128 192 l 1,0,-1
128 64 m 1,4,-1
 128 128 l 1,5,-1
 192 128 l 1,6,-1
 192 64 l 1,7,-1
 128 64 l 1,4,-1
EndSplineSet
EndChar

StartChar: semicolon
Encoding: 27 59 26
Width: 384
VWidth: 1020
Flags: MW
LayerCount: 2
Fore
SplineSet
128 192 m 1,0,-1
 128 256 l 1,1,-1
 192 256 l 1,2,-1
 192 192 l 1,3,-1
 128 192 l 1,0,-1
64 -64 m 1,4,-1
 64 0 l 1,5,-1
 128 0 l 1,6,-1
 128 128 l 1,7,-1
 192 128 l 1,8,-1
 192 0 l 1,9,-1
 128 0 l 1,10,-1
 128 -64 l 1,11,-1
 64 -64 l 1,4,-1
EndSplineSet
EndChar

StartChar: less
Encoding: 28 60 27
Width: 384
VWidth: 1020
Flags: MW
LayerCount: 2
Fore
SplineSet
192 384 m 1,0,-1
 320 384 l 1,1,-1
 320 320 l 1,2,-1
 192 320 l 1,3,-1
 192 384 l 1,0,-1
192 320 m 1,4,-1
 192 256 l 1,5,-1
 64 256 l 1,6,-1
 64 320 l 1,7,-1
 192 320 l 1,4,-1
64 256 m 1,8,-1
 64 192 l 1,9,-1
 0 192 l 1,10,-1
 0 256 l 1,11,-1
 64 256 l 1,8,-1
64 192 m 1,12,-1
 192 192 l 1,13,-1
 192 128 l 1,14,-1
 64 128 l 1,15,-1
 64 192 l 1,12,-1
192 128 m 1,16,-1
 320 128 l 1,17,-1
 320 64 l 1,18,-1
 192 64 l 1,19,-1
 192 128 l 1,16,-1
EndSplineSet
EndChar

StartChar: equal
Encoding: 29 61 28
Width: 384
VWidth: 1020
Flags: MW
LayerCount: 2
Fore
SplineSet
0 320 m 1,0,-1
 320 320 l 1,1,-1
 320 256 l 1,2,-1
 0 256 l 1,3,-1
 0 320 l 1,0,-1
0 192 m 1,4,-1
 320 192 l 1,5,-1
 320 128 l 1,6,-1
 0 128 l 1,7,-1
 0 192 l 1,4,-1
EndSplineSet
EndChar

StartChar: greater
Encoding: 30 62 29
Width: 384
VWidth: 1020
Flags: MW
LayerCount: 2
Fore
SplineSet
320 256 m 1,0,-1
 320 192 l 1,1,-1
 256 192 l 1,2,-1
 256 256 l 1,3,-1
 128 256 l 1,4,-1
 128 320 l 1,5,-1
 0 320 l 1,6,-1
 0 384 l 1,7,-1
 128 384 l 1,8,-1
 128 320 l 1,9,-1
 256 320 l 1,10,-1
 256 256 l 1,11,-1
 320 256 l 1,0,-1
256 192 m 1,12,-1
 256 128 l 1,13,-1
 128 128 l 1,14,-1
 128 192 l 1,15,-1
 256 192 l 1,12,-1
128 128 m 1,16,-1
 128 64 l 1,17,-1
 0 64 l 1,18,-1
 0 128 l 1,19,-1
 128 128 l 1,16,-1
EndSplineSet
EndChar

StartChar: question
Encoding: 31 63 30
Width: 384
VWidth: 1020
Flags: MW
LayerCount: 2
Fore
SplineSet
0 320 m 1,0,-1
 0 384 l 1,1,-1
 64 384 l 1,2,-1
 64 448 l 1,3,-1
 256 448 l 1,4,-1
 256 384 l 1,5,-1
 64 384 l 1,6,-1
 64 320 l 1,7,-1
 0 320 l 1,0,-1
128 128 m 1,8,-1
 128 256 l 1,9,-1
 192 256 l 1,10,-1
 192 320 l 1,11,-1
 256 320 l 1,12,-1
 256 384 l 1,13,-1
 320 384 l 1,14,-1
 320 320 l 1,15,-1
 256 320 l 1,16,-1
 256 256 l 1,17,-1
 192 256 l 1,18,-1
 192 128 l 1,19,-1
 128 128 l 1,8,-1
128 0 m 1,20,-1
 128 64 l 1,21,-1
 192 64 l 1,22,-1
 192 0 l 1,23,-1
 128 0 l 1,20,-1
EndSplineSet
EndChar

StartChar: at
Encoding: 32 64 31
Width: 384
VWidth: 1020
Flags: MW
LayerCount: 2
Fore
SplineSet
256 0 m 1,0,-1
 128 0 l 1,1,-1
 128 64 l 1,2,-1
 64 64 l 1,3,-1
 64 -64 l 1,4,-1
 0 -64 l 1,5,-1
 0 384 l 1,6,-1
 64 384 l 1,7,-1
 64 448 l 1,8,-1
 256 448 l 1,9,-1
 256 384 l 1,10,-1
 64 384 l 1,11,-1
 64 256 l 1,12,-1
 128 256 l 1,13,-1
 128 320 l 1,14,-1
 192 320 l 1,15,-1
 192 64 l 1,16,-1
 256 64 l 1,17,-1
 256 384 l 1,18,-1
 320 384 l 1,19,-1
 320 64 l 1,20,-1
 256 64 l 1,21,-1
 256 0 l 1,0,-1
64 -64 m 1,22,-1
 320 -64 l 1,23,-1
 320 -128 l 1,24,-1
 64 -128 l 1,25,-1
 64 -64 l 1,22,-1
EndSplineSet
EndChar

StartChar: A
Encoding: 33 65 32
Width: 384
VWidth: 1020
Flags: MW
LayerCount: 2
Fore
SplineSet
256 0 m 5,0,-1
 256 192 l 1,1,-1
 64 192 l 1,2,-1
 64 0 l 1,3,-1
 0 0 l 1,4,-1
 0 384 l 1,5,-1
 64 384 l 1,6,-1
 64 448 l 1,7,-1
 256 448 l 1,8,-1
 256 384 l 1,9,-1
 64 384 l 1,10,-1
 64 256 l 1,11,-1
 256 256 l 1,12,-1
 256 384 l 1,13,-1
 320 384 l 1,14,-1
 320 0 l 5,15,-1
 256 0 l 5,0,-1
EndSplineSet
EndChar

StartChar: B
Encoding: 34 66 33
Width: 384
VWidth: 1020
Flags: MW
LayerCount: 2
Fore
SplineSet
256 0 m 1,0,-1
 0 0 l 1,1,-1
 0 448 l 1,2,-1
 256 448 l 1,3,-1
 256 384 l 1,4,-1
 64 384 l 1,5,-1
 64 256 l 1,6,-1
 256 256 l 1,7,-1
 256 192 l 1,8,-1
 320 192 l 1,9,-1
 320 64 l 1,10,-1
 256 64 l 1,11,-1
 256 0 l 1,0,-1
256 256 m 1,12,-1
 256 384 l 1,13,-1
 320 384 l 1,14,-1
 320 256 l 1,15,-1
 256 256 l 1,12,-1
256 192 m 1,16,-1
 64 192 l 1,17,-1
 64 64 l 1,18,-1
 256 64 l 1,19,-1
 256 192 l 1,16,-1
EndSplineSet
EndChar

StartChar: C
Encoding: 35 67 34
Width: 384
VWidth: 1020
Flags: MW
LayerCount: 2
Fore
SplineSet
64 384 m 1,0,-1
 64 448 l 1,1,-1
 256 448 l 1,2,-1
 256 384 l 1,3,-1
 64 384 l 1,0,-1
64 384 m 1,4,-1
 64 64 l 1,5,-1
 0 64 l 1,6,-1
 0 384 l 1,7,-1
 64 384 l 1,4,-1
256 64 m 1,8,-1
 256 128 l 1,9,-1
 320 128 l 1,10,-1
 320 64 l 1,11,-1
 256 64 l 1,8,-1
256 64 m 1,12,-1
 256 0 l 1,13,-1
 64 0 l 1,14,-1
 64 64 l 1,15,-1
 256 64 l 1,12,-1
256 384 m 1,16,-1
 320 384 l 1,17,-1
 320 320 l 1,18,-1
 256 320 l 1,19,-1
 256 384 l 1,16,-1
EndSplineSet
EndChar

StartChar: D
Encoding: 36 68 35
Width: 384
VWidth: 1020
Flags: MW
LayerCount: 2
Fore
SplineSet
256 0 m 1,0,-1
 0 0 l 1,1,-1
 0 448 l 1,2,-1
 256 448 l 1,3,-1
 256 384 l 1,4,-1
 320 384 l 1,5,-1
 320 64 l 1,6,-1
 256 64 l 1,7,-1
 256 0 l 1,0,-1
256 384 m 1,8,-1
 64 384 l 1,9,-1
 64 64 l 1,10,-1
 256 64 l 1,11,-1
 256 384 l 1,8,-1
EndSplineSet
EndChar

StartChar: E
Encoding: 37 69 36
Width: 384
VWidth: 1020
Flags: MW
LayerCount: 2
Fore
SplineSet
64 64 m 1,0,-1
 320 64 l 1,1,-1
 320 0 l 1,2,-1
 0 0 l 1,3,-1
 0 448 l 1,4,-1
 320 448 l 1,5,-1
 320 384 l 1,6,-1
 64 384 l 1,7,-1
 64 256 l 1,8,-1
 256 256 l 1,9,-1
 256 192 l 1,10,-1
 64 192 l 1,11,-1
 64 64 l 1,0,-1
EndSplineSet
EndChar

StartChar: F
Encoding: 38 70 37
Width: 384
VWidth: 1020
Flags: MW
LayerCount: 2
Fore
SplineSet
0 0 m 1,0,-1
 0 448 l 1,1,-1
 320 448 l 1,2,-1
 320 384 l 1,3,-1
 64 384 l 1,4,-1
 64 256 l 1,5,-1
 256 256 l 1,6,-1
 256 192 l 1,7,-1
 64 192 l 1,8,-1
 64 0 l 1,9,-1
 0 0 l 1,0,-1
EndSplineSet
EndChar

StartChar: G
Encoding: 39 71 38
Width: 384
VWidth: 1020
Flags: MW
LayerCount: 2
Fore
SplineSet
64 448 m 1,0,-1
 320 448 l 1,1,-1
 320 384 l 1,2,-1
 64 384 l 1,3,-1
 64 448 l 1,0,-1
320 0 m 1,4,-1
 64 0 l 1,5,-1
 64 64 l 1,6,-1
 0 64 l 1,7,-1
 0 384 l 1,8,-1
 64 384 l 1,9,-1
 64 64 l 1,10,-1
 256 64 l 1,11,-1
 256 192 l 1,12,-1
 192 192 l 1,13,-1
 192 256 l 1,14,-1
 320 256 l 1,15,-1
 320 0 l 1,4,-1
EndSplineSet
EndChar

StartChar: H
Encoding: 40 72 39
Width: 384
VWidth: 1020
Flags: MW
LayerCount: 2
Fore
SplineSet
256 0 m 1,0,-1
 256 192 l 1,1,-1
 64 192 l 1,2,-1
 64 0 l 1,3,-1
 0 0 l 1,4,-1
 0 448 l 1,5,-1
 64 448 l 1,6,-1
 64 256 l 1,7,-1
 256 256 l 1,8,-1
 256 448 l 1,9,-1
 320 448 l 1,10,-1
 320 0 l 1,11,-1
 256 0 l 1,0,-1
EndSplineSet
EndChar

StartChar: I
Encoding: 41 73 40
Width: 384
VWidth: 1020
Flags: MW
LayerCount: 2
Fore
SplineSet
256 0 m 1,0,-1
 64 0 l 1,1,-1
 64 64 l 1,2,-1
 128 64 l 1,3,-1
 128 384 l 1,4,-1
 64 384 l 1,5,-1
 64 448 l 1,6,-1
 256 448 l 1,7,-1
 256 384 l 1,8,-1
 192 384 l 1,9,-1
 192 64 l 1,10,-1
 256 64 l 1,11,-1
 256 0 l 1,0,-1
EndSplineSet
EndChar

StartChar: J
Encoding: 42 74 41
Width: 384
VWidth: 1020
Flags: MW
LayerCount: 2
Fore
SplineSet
256 64 m 1,0,-1
 256 448 l 1,1,-1
 320 448 l 1,2,-1
 320 64 l 1,3,-1
 256 64 l 1,0,-1
256 64 m 1,4,-1
 256 0 l 1,5,-1
 64 0 l 1,6,-1
 64 64 l 1,7,-1
 0 64 l 1,8,-1
 0 128 l 1,9,-1
 64 128 l 1,10,-1
 64 64 l 1,11,-1
 256 64 l 1,4,-1
EndSplineSet
EndChar

StartChar: K
Encoding: 43 75 42
Width: 384
VWidth: 1020
Flags: MW
LayerCount: 2
Fore
SplineSet
0 0 m 1,0,-1
 0 448 l 1,1,-1
 64 448 l 1,2,-1
 64 256 l 1,3,-1
 128 256 l 1,4,-1
 128 320 l 1,5,-1
 192 320 l 1,6,-1
 192 384 l 1,7,-1
 256 384 l 1,8,-1
 256 448 l 1,9,-1
 320 448 l 1,10,-1
 320 384 l 1,11,-1
 256 384 l 1,12,-1
 256 320 l 1,13,-1
 192 320 l 1,14,-1
 192 256 l 1,15,-1
 128 256 l 1,16,-1
 128 192 l 1,17,-1
 64 192 l 1,18,-1
 64 0 l 1,19,-1
 0 0 l 1,0,-1
192 128 m 1,20,-1
 128 128 l 1,21,-1
 128 192 l 1,22,-1
 192 192 l 1,23,-1
 192 128 l 1,20,-1
192 128 m 1,24,-1
 256 128 l 1,25,-1
 256 64 l 1,26,-1
 192 64 l 1,27,-1
 192 128 l 1,24,-1
256 64 m 1,28,-1
 320 64 l 1,29,-1
 320 0 l 1,30,-1
 256 0 l 1,31,-1
 256 64 l 1,28,-1
EndSplineSet
EndChar

StartChar: L
Encoding: 44 76 43
Width: 384
VWidth: 1020
Flags: MW
LayerCount: 2
Fore
SplineSet
64 64 m 1,0,-1
 320 64 l 1,1,-1
 320 0 l 1,2,-1
 0 0 l 1,3,-1
 0 448 l 1,4,-1
 64 448 l 1,5,-1
 64 64 l 1,0,-1
EndSplineSet
EndChar

StartChar: M
Encoding: 45 77 44
Width: 384
VWidth: 1020
Flags: MW
LayerCount: 2
Fore
SplineSet
0 0 m 1,0,-1
 0 448 l 1,1,-1
 64 448 l 1,2,-1
 64 384 l 1,3,-1
 128 384 l 1,4,-1
 128 320 l 1,5,-1
 64 320 l 1,6,-1
 64 0 l 1,7,-1
 0 0 l 1,0,-1
256 0 m 1,8,-1
 256 320 l 1,9,-1
 192 320 l 1,10,-1
 192 384 l 1,11,-1
 256 384 l 1,12,-1
 256 448 l 1,13,-1
 320 448 l 1,14,-1
 320 0 l 1,15,-1
 256 0 l 1,8,-1
128 320 m 1,16,-1
 192 320 l 1,17,-1
 192 192 l 1,18,-1
 128 192 l 1,19,-1
 128 320 l 1,16,-1
EndSplineSet
EndChar

StartChar: N
Encoding: 46 78 45
Width: 384
VWidth: 1020
Flags: MW
LayerCount: 2
Fore
SplineSet
0 0 m 1,0,-1
 0 448 l 1,1,-1
 64 448 l 1,2,-1
 64 320 l 1,3,-1
 128 320 l 1,4,-1
 128 256 l 1,5,-1
 64 256 l 1,6,-1
 64 0 l 1,7,-1
 0 0 l 1,0,-1
256 0 m 1,8,-1
 256 128 l 1,9,-1
 192 128 l 1,10,-1
 192 192 l 1,11,-1
 128 192 l 1,12,-1
 128 256 l 1,13,-1
 192 256 l 1,14,-1
 192 192 l 1,15,-1
 256 192 l 1,16,-1
 256 448 l 1,17,-1
 320 448 l 1,18,-1
 320 0 l 1,19,-1
 256 0 l 1,8,-1
EndSplineSet
EndChar

StartChar: O
Encoding: 47 79 46
Width: 384
VWidth: 1020
Flags: MW
LayerCount: 2
Fore
SplineSet
64 384 m 1,0,-1
 64 448 l 1,1,-1
 256 448 l 1,2,-1
 256 384 l 1,3,-1
 64 384 l 1,0,-1
64 384 m 1,4,-1
 64 64 l 1,5,-1
 0 64 l 1,6,-1
 0 384 l 1,7,-1
 64 384 l 1,4,-1
256 384 m 1,8,-1
 320 384 l 1,9,-1
 320 64 l 1,10,-1
 256 64 l 1,11,-1
 256 384 l 1,8,-1
256 64 m 1,12,-1
 256 0 l 1,13,-1
 64 0 l 1,14,-1
 64 64 l 1,15,-1
 256 64 l 1,12,-1
EndSplineSet
EndChar

StartChar: P
Encoding: 48 80 47
Width: 384
VWidth: 1020
Flags: MW
LayerCount: 2
Fore
SplineSet
0 0 m 1,0,-1
 0 448 l 1,1,-1
 256 448 l 1,2,-1
 256 384 l 1,3,-1
 64 384 l 1,4,-1
 64 256 l 1,5,-1
 256 256 l 1,6,-1
 256 192 l 1,7,-1
 64 192 l 1,8,-1
 64 0 l 1,9,-1
 0 0 l 1,0,-1
256 256 m 1,10,-1
 256 384 l 1,11,-1
 320 384 l 1,12,-1
 320 256 l 1,13,-1
 256 256 l 1,10,-1
EndSplineSet
EndChar

StartChar: Q
Encoding: 49 81 48
Width: 384
VWidth: 1020
Flags: MW
LayerCount: 2
Fore
SplineSet
256 384 m 1,0,-1
 64 384 l 1,1,-1
 64 448 l 1,2,-1
 256 448 l 1,3,-1
 256 384 l 1,0,-1
256 384 m 1,4,-1
 320 384 l 1,5,-1
 320 128 l 1,6,-1
 256 128 l 1,7,-1
 256 384 l 1,4,-1
64 384 m 1,8,-1
 64 64 l 1,9,-1
 0 64 l 1,10,-1
 0 384 l 1,11,-1
 64 384 l 1,8,-1
256 128 m 1,12,-1
 256 64 l 1,13,-1
 192 64 l 1,14,-1
 192 128 l 1,15,-1
 128 128 l 1,16,-1
 128 192 l 1,17,-1
 192 192 l 1,18,-1
 192 128 l 1,19,-1
 256 128 l 1,12,-1
192 64 m 1,20,-1
 192 0 l 1,21,-1
 64 0 l 1,22,-1
 64 64 l 1,23,-1
 192 64 l 1,20,-1
256 64 m 1,24,-1
 320 64 l 1,25,-1
 320 0 l 1,26,-1
 256 0 l 1,27,-1
 256 64 l 1,24,-1
EndSplineSet
EndChar

StartChar: R
Encoding: 50 82 49
Width: 384
VWidth: 1020
Flags: MW
LayerCount: 2
Fore
SplineSet
0 0 m 1,0,-1
 0 448 l 1,1,-1
 256 448 l 1,2,-1
 256 384 l 1,3,-1
 64 384 l 1,4,-1
 64 256 l 1,5,-1
 256 256 l 1,6,-1
 256 192 l 1,7,-1
 192 192 l 1,8,-1
 192 128 l 1,9,-1
 128 128 l 1,10,-1
 128 192 l 1,11,-1
 64 192 l 1,12,-1
 64 0 l 1,13,-1
 0 0 l 1,0,-1
192 128 m 1,14,-1
 256 128 l 1,15,-1
 256 64 l 1,16,-1
 192 64 l 1,17,-1
 192 128 l 1,14,-1
256 256 m 1,18,-1
 256 384 l 1,19,-1
 320 384 l 1,20,-1
 320 256 l 1,21,-1
 256 256 l 1,18,-1
256 64 m 1,22,-1
 320 64 l 1,23,-1
 320 0 l 1,24,-1
 256 0 l 1,25,-1
 256 64 l 1,22,-1
EndSplineSet
EndChar

StartChar: S
Encoding: 51 83 50
Width: 384
VWidth: 1020
Flags: MW
LayerCount: 2
Fore
SplineSet
64 384 m 1,0,-1
 64 448 l 1,1,-1
 256 448 l 1,2,-1
 256 384 l 1,3,-1
 64 384 l 1,0,-1
64 384 m 1,4,-1
 64 256 l 1,5,-1
 0 256 l 1,6,-1
 0 384 l 1,7,-1
 64 384 l 1,4,-1
64 256 m 1,8,-1
 256 256 l 1,9,-1
 256 192 l 1,10,-1
 64 192 l 1,11,-1
 64 256 l 1,8,-1
256 192 m 1,12,-1
 320 192 l 1,13,-1
 320 64 l 1,14,-1
 256 64 l 1,15,-1
 256 192 l 1,12,-1
256 64 m 1,16,-1
 256 0 l 1,17,-1
 64 0 l 1,18,-1
 64 64 l 1,19,-1
 0 64 l 1,20,-1
 0 128 l 1,21,-1
 64 128 l 1,22,-1
 64 64 l 1,23,-1
 256 64 l 1,16,-1
256 384 m 1,24,-1
 320 384 l 1,25,-1
 320 320 l 1,26,-1
 256 320 l 1,27,-1
 256 384 l 1,24,-1
EndSplineSet
EndChar

StartChar: T
Encoding: 52 84 51
Width: 384
VWidth: 1020
Flags: MW
LayerCount: 2
Fore
SplineSet
128 0 m 1,0,-1
 128 384 l 1,1,-1
 0 384 l 1,2,-1
 0 448 l 1,3,-1
 320 448 l 1,4,-1
 320 384 l 1,5,-1
 192 384 l 1,6,-1
 192 0 l 1,7,-1
 128 0 l 1,0,-1
EndSplineSet
EndChar

StartChar: U
Encoding: 53 85 52
Width: 384
VWidth: 1020
Flags: MW
LayerCount: 2
Fore
SplineSet
256 64 m 1,0,-1
 256 448 l 1,1,-1
 320 448 l 1,2,-1
 320 64 l 1,3,-1
 256 64 l 1,0,-1
256 64 m 1,4,-1
 256 0 l 1,5,-1
 64 0 l 1,6,-1
 64 64 l 1,7,-1
 0 64 l 1,8,-1
 0 448 l 1,9,-1
 64 448 l 1,10,-1
 64 64 l 1,11,-1
 256 64 l 1,4,-1
EndSplineSet
EndChar

StartChar: V
Encoding: 54 86 53
Width: 384
VWidth: 1020
Flags: MW
LayerCount: 2
Fore
SplineSet
64 128 m 1,0,-1
 0 128 l 1,1,-1
 0 448 l 1,2,-1
 64 448 l 1,3,-1
 64 128 l 1,0,-1
64 128 m 1,4,-1
 128 128 l 1,5,-1
 128 64 l 1,6,-1
 64 64 l 1,7,-1
 64 128 l 1,4,-1
256 128 m 1,8,-1
 256 448 l 1,9,-1
 320 448 l 1,10,-1
 320 128 l 1,11,-1
 256 128 l 1,8,-1
256 128 m 1,12,-1
 256 64 l 1,13,-1
 192 64 l 1,14,-1
 192 128 l 1,15,-1
 256 128 l 1,12,-1
192 64 m 1,16,-1
 192 0 l 1,17,-1
 128 0 l 1,18,-1
 128 64 l 1,19,-1
 192 64 l 1,16,-1
EndSplineSet
EndChar

StartChar: W
Encoding: 55 87 54
Width: 384
VWidth: 1020
Flags: MW
LayerCount: 2
Fore
SplineSet
0 0 m 1,0,-1
 0 448 l 1,1,-1
 64 448 l 1,2,-1
 64 128 l 1,3,-1
 128 128 l 1,4,-1
 128 256 l 1,5,-1
 192 256 l 1,6,-1
 192 128 l 1,7,-1
 128 128 l 1,8,-1
 128 64 l 1,9,-1
 64 64 l 1,10,-1
 64 0 l 1,11,-1
 0 0 l 1,0,-1
256 0 m 1,12,-1
 256 64 l 1,13,-1
 192 64 l 1,14,-1
 192 128 l 1,15,-1
 256 128 l 1,16,-1
 256 448 l 1,17,-1
 320 448 l 1,18,-1
 320 0 l 1,19,-1
 256 0 l 1,12,-1
EndSplineSet
EndChar

StartChar: X
Encoding: 56 88 55
Width: 384
VWidth: 1020
Flags: MW
LayerCount: 2
Fore
SplineSet
0 0 m 1,0,-1
 0 128 l 1,1,-1
 64 128 l 1,2,-1
 64 192 l 1,3,-1
 128 192 l 1,4,-1
 128 256 l 1,5,-1
 64 256 l 1,6,-1
 64 320 l 1,7,-1
 0 320 l 1,8,-1
 0 448 l 1,9,-1
 64 448 l 1,10,-1
 64 320 l 1,11,-1
 128 320 l 1,12,-1
 128 256 l 1,13,-1
 192 256 l 1,14,-1
 192 320 l 1,15,-1
 256 320 l 1,16,-1
 256 448 l 1,17,-1
 320 448 l 1,18,-1
 320 320 l 1,19,-1
 256 320 l 1,20,-1
 256 256 l 1,21,-1
 192 256 l 1,22,-1
 192 192 l 1,23,-1
 128 192 l 1,24,-1
 128 128 l 1,25,-1
 64 128 l 1,26,-1
 64 0 l 1,27,-1
 0 0 l 1,0,-1
192 192 m 1,28,-1
 256 192 l 1,29,-1
 256 128 l 1,30,-1
 192 128 l 1,31,-1
 192 192 l 1,28,-1
256 128 m 1,32,-1
 320 128 l 1,33,-1
 320 0 l 1,34,-1
 256 0 l 1,35,-1
 256 128 l 1,32,-1
EndSplineSet
EndChar

StartChar: Y
Encoding: 57 89 56
Width: 384
VWidth: 1020
Flags: MW
LayerCount: 2
Fore
SplineSet
64 320 m 1,0,-1
 0 320 l 1,1,-1
 0 448 l 1,2,-1
 64 448 l 1,3,-1
 64 320 l 1,0,-1
64 320 m 1,4,-1
 128 320 l 1,5,-1
 128 256 l 1,6,-1
 64 256 l 1,7,-1
 64 320 l 1,4,-1
256 320 m 1,8,-1
 256 448 l 1,9,-1
 320 448 l 1,10,-1
 320 320 l 1,11,-1
 256 320 l 1,8,-1
256 320 m 1,12,-1
 256 256 l 1,13,-1
 192 256 l 1,14,-1
 192 320 l 1,15,-1
 256 320 l 1,12,-1
192 256 m 1,16,-1
 192 0 l 1,17,-1
 128 0 l 1,18,-1
 128 256 l 1,19,-1
 192 256 l 1,16,-1
EndSplineSet
EndChar

StartChar: Z
Encoding: 58 90 57
Width: 384
VWidth: 1020
Flags: MW
LayerCount: 2
Fore
SplineSet
64 64 m 1,0,-1
 320 64 l 1,1,-1
 320 0 l 1,2,-1
 0 0 l 1,3,-1
 0 128 l 1,4,-1
 64 128 l 1,5,-1
 64 192 l 1,6,-1
 128 192 l 1,7,-1
 128 256 l 1,8,-1
 192 256 l 1,9,-1
 192 320 l 1,10,-1
 256 320 l 1,11,-1
 256 384 l 1,12,-1
 0 384 l 1,13,-1
 0 448 l 1,14,-1
 320 448 l 1,15,-1
 320 320 l 1,16,-1
 256 320 l 1,17,-1
 256 256 l 1,18,-1
 192 256 l 1,19,-1
 192 192 l 1,20,-1
 128 192 l 1,21,-1
 128 128 l 1,22,-1
 64 128 l 1,23,-1
 64 64 l 1,0,-1
EndSplineSet
EndChar

StartChar: bracketleft
Encoding: 59 91 58
Width: 384
VWidth: 1020
Flags: MW
LayerCount: 2
Fore
SplineSet
128 0 m 1,0,-1
 256 0 l 1,1,-1
 256 -64 l 1,2,-1
 64 -64 l 1,3,-1
 64 512 l 1,4,-1
 256 512 l 1,5,-1
 256 448 l 1,6,-1
 128 448 l 1,7,-1
 128 0 l 1,0,-1
EndSplineSet
EndChar

StartChar: backslash
Encoding: 60 92 59
Width: 384
VWidth: 1020
Flags: MW
LayerCount: 2
Fore
SplineSet
128 320 m 1,0,-1
 64 320 l 1,1,-1
 64 512 l 1,2,-1
 128 512 l 1,3,-1
 128 320 l 1,0,-1
128 320 m 1,4,-1
 192 320 l 1,5,-1
 192 128 l 1,6,-1
 128 128 l 1,7,-1
 128 320 l 1,4,-1
192 128 m 1,8,-1
 256 128 l 1,9,-1
 256 -64 l 1,10,-1
 192 -64 l 1,11,-1
 192 128 l 1,8,-1
EndSplineSet
EndChar

StartChar: bracketright
Encoding: 61 93 60
Width: 384
VWidth: 1020
Flags: MW
LayerCount: 2
Fore
SplineSet
256 -64 m 1,0,-1
 64 -64 l 1,1,-1
 64 0 l 1,2,-1
 192 0 l 1,3,-1
 192 448 l 1,4,-1
 64 448 l 1,5,-1
 64 512 l 1,6,-1
 256 512 l 1,7,-1
 256 -64 l 1,0,-1
EndSplineSet
EndChar

StartChar: asciicircum
Encoding: 62 94 61
Width: 384
VWidth: 1020
Flags: MW
LayerCount: 2
Fore
SplineSet
0 256 m 1,0,-1
 0 320 l 1,1,-1
 64 320 l 1,2,-1
 64 384 l 1,3,-1
 128 384 l 1,4,-1
 128 448 l 1,5,-1
 192 448 l 1,6,-1
 192 384 l 1,7,-1
 128 384 l 1,8,-1
 128 320 l 1,9,-1
 64 320 l 1,10,-1
 64 256 l 1,11,-1
 0 256 l 1,0,-1
192 384 m 1,12,-1
 256 384 l 1,13,-1
 256 320 l 1,14,-1
 192 320 l 1,15,-1
 192 384 l 1,12,-1
256 320 m 1,16,-1
 320 320 l 1,17,-1
 320 256 l 1,18,-1
 256 256 l 1,19,-1
 256 320 l 1,16,-1
EndSplineSet
EndChar

StartChar: underscore
Encoding: 63 95 62
Width: 384
VWidth: 1020
Flags: MW
LayerCount: 2
Fore
SplineSet
0 -64 m 1,0,-1
 384 -64 l 5,1,-1
 384 -128 l 5,2,-1
 0 -128 l 1,3,-1
 0 -64 l 1,0,-1
EndSplineSet
EndChar

StartChar: grave
Encoding: 64 96 63
Width: 384
VWidth: 1020
Flags: MW
LayerCount: 2
Fore
SplineSet
128 384 m 1,0,-1
 64 384 l 1,1,-1
 64 448 l 1,2,-1
 128 448 l 1,3,-1
 128 384 l 1,0,-1
128 384 m 1,4,-1
 192 384 l 1,5,-1
 192 320 l 1,6,-1
 128 320 l 1,7,-1
 128 384 l 1,4,-1
EndSplineSet
EndChar

StartChar: a
Encoding: 65 97 64
Width: 384
VWidth: 1020
Flags: MW
LayerCount: 2
Fore
SplineSet
320 0 m 1,0,-1
 64 0 l 1,1,-1
 64 64 l 1,2,-1
 256 64 l 1,3,-1
 256 256 l 1,4,-1
 64 256 l 1,5,-1
 64 64 l 1,6,-1
 0 64 l 1,7,-1
 0 256 l 1,8,-1
 64 256 l 1,9,-1
 64 320 l 1,10,-1
 320 320 l 1,11,-1
 320 0 l 1,0,-1
EndSplineSet
EndChar

StartChar: b
Encoding: 66 98 65
Width: 384
VWidth: 1020
Flags: MW
LayerCount: 2
Fore
SplineSet
256 0 m 1,0,-1
 0 0 l 1,1,-1
 0 448 l 1,2,-1
 64 448 l 1,3,-1
 64 320 l 1,4,-1
 256 320 l 1,5,-1
 256 256 l 1,6,-1
 320 256 l 1,7,-1
 320 64 l 1,8,-1
 256 64 l 1,9,-1
 256 0 l 1,0,-1
256 256 m 1,10,-1
 64 256 l 1,11,-1
 64 64 l 1,12,-1
 256 64 l 1,13,-1
 256 256 l 1,10,-1
EndSplineSet
EndChar

StartChar: c
Encoding: 67 99 66
Width: 384
VWidth: 1020
Flags: MW
LayerCount: 2
Fore
SplineSet
64 320 m 1,0,-1
 320 320 l 1,1,-1
 320 256 l 1,2,-1
 64 256 l 1,3,-1
 64 320 l 1,0,-1
64 256 m 1,4,-1
 64 64 l 1,5,-1
 0 64 l 1,6,-1
 0 256 l 1,7,-1
 64 256 l 1,4,-1
64 64 m 1,8,-1
 320 64 l 1,9,-1
 320 0 l 1,10,-1
 64 0 l 1,11,-1
 64 64 l 1,8,-1
EndSplineSet
EndChar

StartChar: d
Encoding: 68 100 67
Width: 384
VWidth: 1020
Flags: MW
LayerCount: 2
Fore
SplineSet
320 0 m 1,0,-1
 64 0 l 1,1,-1
 64 64 l 1,2,-1
 256 64 l 1,3,-1
 256 256 l 1,4,-1
 64 256 l 1,5,-1
 64 64 l 1,6,-1
 0 64 l 1,7,-1
 0 256 l 1,8,-1
 64 256 l 1,9,-1
 64 320 l 1,10,-1
 256 320 l 1,11,-1
 256 448 l 1,12,-1
 320 448 l 1,13,-1
 320 0 l 1,0,-1
EndSplineSet
EndChar

StartChar: e
Encoding: 69 101 68
Width: 384
VWidth: 1020
Flags: MW
LayerCount: 2
Fore
SplineSet
256 256 m 1,0,-1
 64 256 l 1,1,-1
 64 320 l 1,2,-1
 256 320 l 1,3,-1
 256 256 l 1,0,-1
256 256 m 1,4,-1
 320 256 l 1,5,-1
 320 128 l 1,6,-1
 64 128 l 1,7,-1
 64 64 l 1,8,-1
 0 64 l 1,9,-1
 0 256 l 1,10,-1
 64 256 l 1,11,-1
 64 192 l 1,12,-1
 256 192 l 1,13,-1
 256 256 l 1,4,-1
64 64 m 1,14,-1
 320 64 l 1,15,-1
 320 0 l 1,16,-1
 64 0 l 1,17,-1
 64 64 l 1,14,-1
EndSplineSet
EndChar

StartChar: f
Encoding: 70 102 69
Width: 384
VWidth: 1020
Flags: MW
LayerCount: 2
Fore
SplineSet
192 448 m 1,0,-1
 320 448 l 1,1,-1
 320 384 l 1,2,-1
 192 384 l 1,3,-1
 192 448 l 1,0,-1
128 0 m 1,4,-1
 128 256 l 1,5,-1
 64 256 l 1,6,-1
 64 320 l 1,7,-1
 128 320 l 1,8,-1
 128 384 l 1,9,-1
 192 384 l 1,10,-1
 192 320 l 1,11,-1
 320 320 l 1,12,-1
 320 256 l 1,13,-1
 192 256 l 1,14,-1
 192 0 l 1,15,-1
 128 0 l 1,4,-1
EndSplineSet
EndChar

StartChar: g
Encoding: 71 103 70
Width: 384
VWidth: 1020
Flags: MW
LayerCount: 2
Fore
SplineSet
64 256 m 1,0,-1
 64 64 l 1,1,-1
 256 64 l 1,2,-1
 256 256 l 1,3,-1
 64 256 l 1,0,-1
64 256 m 1,4,-1
 64 320 l 1,5,-1
 320 320 l 1,6,-1
 320 -64 l 1,7,-1
 256 -64 l 1,8,-1
 256 0 l 1,9,-1
 64 0 l 1,10,-1
 64 64 l 1,11,-1
 0 64 l 1,12,-1
 0 256 l 1,13,-1
 64 256 l 1,4,-1
256 -64 m 1,14,-1
 256 -128 l 1,15,-1
 64 -128 l 1,16,-1
 64 -64 l 1,17,-1
 256 -64 l 1,14,-1
EndSplineSet
EndChar

StartChar: h
Encoding: 72 104 71
Width: 384
VWidth: 1020
Flags: MW
LayerCount: 2
Fore
SplineSet
0 0 m 1,0,-1
 0 448 l 1,1,-1
 64 448 l 1,2,-1
 64 320 l 1,3,-1
 256 320 l 1,4,-1
 256 256 l 1,5,-1
 64 256 l 1,6,-1
 64 0 l 1,7,-1
 0 0 l 1,0,-1
256 256 m 1,8,-1
 320 256 l 1,9,-1
 320 0 l 1,10,-1
 256 0 l 1,11,-1
 256 256 l 1,8,-1
EndSplineSet
EndChar

StartChar: i
Encoding: 73 105 72
Width: 384
VWidth: 1020
Flags: MW
LayerCount: 2
Fore
SplineSet
128 384 m 1,0,-1
 128 448 l 1,1,-1
 192 448 l 1,2,-1
 192 384 l 1,3,-1
 128 384 l 1,0,-1
64 0 m 1,4,-1
 64 64 l 1,5,-1
 128 64 l 1,6,-1
 128 256 l 1,7,-1
 64 256 l 1,8,-1
 64 320 l 1,9,-1
 192 320 l 1,10,-1
 192 64 l 1,11,-1
 256 64 l 1,12,-1
 256 0 l 1,13,-1
 64 0 l 1,4,-1
EndSplineSet
EndChar

StartChar: j
Encoding: 74 106 73
Width: 384
VWidth: 1020
Flags: MW
LayerCount: 2
Fore
SplineSet
128 384 m 1,0,-1
 128 448 l 1,1,-1
 192 448 l 1,2,-1
 192 384 l 1,3,-1
 128 384 l 1,0,-1
128 -64 m 1,4,-1
 128 256 l 1,5,-1
 64 256 l 1,6,-1
 64 320 l 1,7,-1
 192 320 l 1,8,-1
 192 -64 l 1,9,-1
 128 -64 l 1,4,-1
128 -64 m 1,10,-1
 128 -128 l 1,11,-1
 0 -128 l 1,12,-1
 0 -64 l 1,13,-1
 128 -64 l 1,10,-1
EndSplineSet
EndChar

StartChar: k
Encoding: 75 107 74
Width: 384
VWidth: 1020
Flags: MW
LayerCount: 2
Fore
SplineSet
0 0 m 1,0,-1
 0 448 l 1,1,-1
 64 448 l 1,2,-1
 64 192 l 1,3,-1
 128 192 l 1,4,-1
 128 256 l 1,5,-1
 192 256 l 1,6,-1
 192 320 l 1,7,-1
 256 320 l 1,8,-1
 256 256 l 1,9,-1
 192 256 l 1,10,-1
 192 192 l 1,11,-1
 128 192 l 1,12,-1
 128 128 l 1,13,-1
 64 128 l 1,14,-1
 64 0 l 1,15,-1
 0 0 l 1,0,-1
128 128 m 1,16,-1
 192 128 l 1,17,-1
 192 64 l 1,18,-1
 128 64 l 1,19,-1
 128 128 l 1,16,-1
192 64 m 1,20,-1
 256 64 l 1,21,-1
 256 0 l 1,22,-1
 192 0 l 1,23,-1
 192 64 l 1,20,-1
EndSplineSet
EndChar

StartChar: l
Encoding: 76 108 75
Width: 384
VWidth: 1020
Flags: MW
LayerCount: 2
Fore
SplineSet
128 0 m 1,0,-1
 128 384 l 1,1,-1
 64 384 l 1,2,-1
 64 448 l 1,3,-1
 192 448 l 1,4,-1
 192 0 l 1,5,-1
 128 0 l 1,0,-1
EndSplineSet
EndChar

StartChar: m
Encoding: 77 109 76
Width: 384
VWidth: 1020
Flags: MW
LayerCount: 2
Fore
SplineSet
128 0 m 1,0,-1
 128 256 l 1,1,-1
 64 256 l 1,2,-1
 64 0 l 1,3,-1
 0 0 l 1,4,-1
 0 320 l 1,5,-1
 256 320 l 1,6,-1
 256 256 l 1,7,-1
 192 256 l 1,8,-1
 192 0 l 1,9,-1
 128 0 l 1,0,-1
256 256 m 1,10,-1
 320 256 l 1,11,-1
 320 0 l 1,12,-1
 256 0 l 1,13,-1
 256 256 l 1,10,-1
EndSplineSet
EndChar

StartChar: n
Encoding: 78 110 77
Width: 384
VWidth: 1020
Flags: MW
LayerCount: 2
Fore
SplineSet
0 0 m 1,0,-1
 0 320 l 1,1,-1
 256 320 l 1,2,-1
 256 256 l 1,3,-1
 64 256 l 1,4,-1
 64 0 l 1,5,-1
 0 0 l 1,0,-1
256 256 m 1,6,-1
 320 256 l 1,7,-1
 320 0 l 1,8,-1
 256 0 l 1,9,-1
 256 256 l 1,6,-1
EndSplineSet
EndChar

StartChar: o
Encoding: 79 111 78
Width: 384
VWidth: 1020
Flags: MW
LayerCount: 2
Fore
SplineSet
64 256 m 1,0,-1
 64 320 l 1,1,-1
 256 320 l 1,2,-1
 256 256 l 1,3,-1
 64 256 l 1,0,-1
64 256 m 1,4,-1
 64 64 l 1,5,-1
 0 64 l 1,6,-1
 0 256 l 1,7,-1
 64 256 l 1,4,-1
256 256 m 1,8,-1
 320 256 l 1,9,-1
 320 64 l 1,10,-1
 256 64 l 1,11,-1
 256 256 l 1,8,-1
256 64 m 1,12,-1
 256 0 l 1,13,-1
 64 0 l 1,14,-1
 64 64 l 1,15,-1
 256 64 l 1,12,-1
EndSplineSet
EndChar

StartChar: p
Encoding: 80 112 79
Width: 384
VWidth: 1020
Flags: MW
LayerCount: 2
Fore
SplineSet
0 -128 m 1,0,-1
 0 320 l 1,1,-1
 256 320 l 1,2,-1
 256 256 l 1,3,-1
 64 256 l 1,4,-1
 64 64 l 1,5,-1
 256 64 l 1,6,-1
 256 0 l 1,7,-1
 64 0 l 1,8,-1
 64 -128 l 1,9,-1
 0 -128 l 1,0,-1
256 64 m 1,10,-1
 256 256 l 1,11,-1
 320 256 l 1,12,-1
 320 64 l 1,13,-1
 256 64 l 1,10,-1
EndSplineSet
EndChar

StartChar: q
Encoding: 81 113 80
Width: 384
VWidth: 1020
Flags: MW
LayerCount: 2
Fore
SplineSet
256 -128 m 5,0,-1
 256 0 l 1,1,-1
 64 0 l 1,2,-1
 64 64 l 1,3,-1
 256 64 l 1,4,-1
 256 256 l 1,5,-1
 64 256 l 1,6,-1
 64 64 l 1,7,-1
 0 64 l 1,8,-1
 0 256 l 1,9,-1
 64 256 l 1,10,-1
 64 320 l 1,11,-1
 320 320 l 1,12,-1
 320 -128 l 1,13,-1
 256 -128 l 5,0,-1
EndSplineSet
EndChar

StartChar: r
Encoding: 82 114 81
Width: 384
VWidth: 1020
Flags: MW
LayerCount: 2
Fore
SplineSet
64 320 m 1,0,-1
 256 320 l 1,1,-1
 256 256 l 1,2,-1
 64 256 l 1,3,-1
 64 320 l 1,0,-1
0 0 m 1,4,-1
 0 256 l 1,5,-1
 64 256 l 1,6,-1
 64 0 l 1,7,-1
 0 0 l 1,4,-1
EndSplineSet
EndChar

StartChar: s
Encoding: 83 115 82
Width: 384
VWidth: 1020
Flags: MW
LayerCount: 2
Fore
SplineSet
64 320 m 1,0,-1
 320 320 l 1,1,-1
 320 256 l 1,2,-1
 64 256 l 1,3,-1
 64 320 l 1,0,-1
64 256 m 1,4,-1
 64 192 l 1,5,-1
 0 192 l 1,6,-1
 0 256 l 1,7,-1
 64 256 l 1,4,-1
64 192 m 1,8,-1
 256 192 l 1,9,-1
 256 128 l 1,10,-1
 64 128 l 1,11,-1
 64 192 l 1,8,-1
256 128 m 1,12,-1
 320 128 l 1,13,-1
 320 64 l 1,14,-1
 256 64 l 1,15,-1
 256 128 l 1,12,-1
256 64 m 1,16,-1
 256 0 l 1,17,-1
 0 0 l 1,18,-1
 0 64 l 1,19,-1
 256 64 l 1,16,-1
EndSplineSet
EndChar

StartChar: t
Encoding: 84 116 83
Width: 384
VWidth: 1020
Flags: MW
LayerCount: 2
Fore
SplineSet
192 64 m 1,0,-1
 128 64 l 1,1,-1
 128 256 l 1,2,-1
 64 256 l 1,3,-1
 64 320 l 1,4,-1
 128 320 l 1,5,-1
 128 384 l 1,6,-1
 192 384 l 1,7,-1
 192 320 l 1,8,-1
 320 320 l 1,9,-1
 320 256 l 1,10,-1
 192 256 l 1,11,-1
 192 64 l 1,0,-1
192 64 m 1,12,-1
 320 64 l 1,13,-1
 320 0 l 1,14,-1
 192 0 l 1,15,-1
 192 64 l 1,12,-1
EndSplineSet
EndChar

StartChar: u
Encoding: 85 117 84
Width: 384
VWidth: 1020
Flags: MW
LayerCount: 2
Fore
SplineSet
256 64 m 1,0,-1
 256 320 l 1,1,-1
 320 320 l 1,2,-1
 320 64 l 1,3,-1
 256 64 l 1,0,-1
256 64 m 1,4,-1
 256 0 l 1,5,-1
 64 0 l 1,6,-1
 64 64 l 1,7,-1
 0 64 l 1,8,-1
 0 320 l 1,9,-1
 64 320 l 1,10,-1
 64 64 l 1,11,-1
 256 64 l 1,4,-1
EndSplineSet
EndChar

StartChar: v
Encoding: 86 118 85
Width: 384
VWidth: 1020
Flags: MW
LayerCount: 2
Fore
SplineSet
64 128 m 1,0,-1
 0 128 l 1,1,-1
 0 320 l 1,2,-1
 64 320 l 1,3,-1
 64 128 l 1,0,-1
64 128 m 1,4,-1
 128 128 l 1,5,-1
 128 64 l 1,6,-1
 64 64 l 1,7,-1
 64 128 l 1,4,-1
256 128 m 1,8,-1
 256 320 l 1,9,-1
 320 320 l 1,10,-1
 320 128 l 1,11,-1
 256 128 l 1,8,-1
256 128 m 1,12,-1
 256 64 l 1,13,-1
 192 64 l 1,14,-1
 192 128 l 1,15,-1
 256 128 l 1,12,-1
192 64 m 1,16,-1
 192 0 l 1,17,-1
 128 0 l 1,18,-1
 128 64 l 1,19,-1
 192 64 l 1,16,-1
EndSplineSet
EndChar

StartChar: w
Encoding: 87 119 86
Width: 384
VWidth: 1020
Flags: MW
LayerCount: 2
Fore
SplineSet
0 0 m 1,0,-1
 0 320 l 1,1,-1
 64 320 l 1,2,-1
 64 128 l 1,3,-1
 128 128 l 1,4,-1
 128 256 l 1,5,-1
 192 256 l 1,6,-1
 192 128 l 1,7,-1
 128 128 l 1,8,-1
 128 64 l 1,9,-1
 64 64 l 1,10,-1
 64 0 l 1,11,-1
 0 0 l 1,0,-1
256 0 m 1,12,-1
 256 64 l 1,13,-1
 192 64 l 1,14,-1
 192 128 l 1,15,-1
 256 128 l 1,16,-1
 256 320 l 1,17,-1
 320 320 l 1,18,-1
 320 0 l 1,19,-1
 256 0 l 1,12,-1
EndSplineSet
EndChar

StartChar: x
Encoding: 88 120 87
Width: 384
VWidth: 1020
Flags: MW
LayerCount: 2
Fore
SplineSet
0 0 m 1,0,-1
 0 64 l 1,1,-1
 64 64 l 1,2,-1
 64 128 l 1,3,-1
 128 128 l 1,4,-1
 128 192 l 1,5,-1
 64 192 l 1,6,-1
 64 256 l 1,7,-1
 0 256 l 1,8,-1
 0 320 l 1,9,-1
 64 320 l 1,10,-1
 64 256 l 1,11,-1
 128 256 l 1,12,-1
 128 192 l 1,13,-1
 192 192 l 1,14,-1
 192 256 l 1,15,-1
 256 256 l 1,16,-1
 256 320 l 5,17,-1
 320 320 l 5,18,-1
 320 256 l 1,19,-1
 256 256 l 1,20,-1
 256 192 l 1,21,-1
 192 192 l 1,22,-1
 192 128 l 1,23,-1
 128 128 l 1,24,-1
 128 64 l 1,25,-1
 64 64 l 1,26,-1
 64 0 l 1,27,-1
 0 0 l 1,0,-1
192 128 m 1,28,-1
 256 128 l 1,29,-1
 256 64 l 1,30,-1
 192 64 l 1,31,-1
 192 128 l 1,28,-1
256 64 m 1,32,-1
 320 64 l 1,33,-1
 320 0 l 1,34,-1
 256 0 l 1,35,-1
 256 64 l 1,32,-1
EndSplineSet
EndChar

StartChar: y
Encoding: 89 121 88
Width: 384
VWidth: 1020
Flags: MW
LayerCount: 2
Fore
SplineSet
64 64 m 1,0,-1
 0 64 l 1,1,-1
 0 320 l 1,2,-1
 64 320 l 1,3,-1
 64 64 l 1,0,-1
64 64 m 1,4,-1
 256 64 l 1,5,-1
 256 320 l 1,6,-1
 320 320 l 1,7,-1
 320 -64 l 1,8,-1
 256 -64 l 1,9,-1
 256 0 l 1,10,-1
 64 0 l 1,11,-1
 64 64 l 1,4,-1
256 -64 m 1,12,-1
 256 -128 l 1,13,-1
 64 -128 l 1,14,-1
 64 -64 l 1,15,-1
 256 -64 l 1,12,-1
EndSplineSet
EndChar

StartChar: z
Encoding: 90 122 89
Width: 384
VWidth: 1020
Flags: MW
LayerCount: 2
Fore
SplineSet
128 64 m 1,0,-1
 320 64 l 1,1,-1
 320 0 l 1,2,-1
 0 0 l 1,3,-1
 0 64 l 1,4,-1
 64 64 l 1,5,-1
 64 128 l 1,6,-1
 128 128 l 1,7,-1
 128 192 l 1,8,-1
 192 192 l 1,9,-1
 192 256 l 1,10,-1
 0 256 l 1,11,-1
 0 320 l 1,12,-1
 320 320 l 1,13,-1
 320 256 l 1,14,-1
 256 256 l 1,15,-1
 256 192 l 1,16,-1
 192 192 l 1,17,-1
 192 128 l 1,18,-1
 128 128 l 1,19,-1
 128 64 l 1,0,-1
EndSplineSet
EndChar

StartChar: braceleft
Encoding: 91 123 90
Width: 384
VWidth: 1020
Flags: MW
LayerCount: 2
Fore
SplineSet
128 512 m 1,0,-1
 256 512 l 1,1,-1
 256 448 l 1,2,-1
 128 448 l 1,3,-1
 128 512 l 1,0,-1
128 448 m 1,4,-1
 128 256 l 1,5,-1
 64 256 l 1,6,-1
 64 448 l 1,7,-1
 128 448 l 1,4,-1
64 256 m 1,8,-1
 64 192 l 1,9,-1
 0 192 l 1,10,-1
 0 256 l 1,11,-1
 64 256 l 1,8,-1
64 192 m 1,12,-1
 128 192 l 1,13,-1
 128 0 l 1,14,-1
 64 0 l 1,15,-1
 64 192 l 1,12,-1
128 0 m 1,16,-1
 256 0 l 1,17,-1
 256 -64 l 1,18,-1
 128 -64 l 1,19,-1
 128 0 l 1,16,-1
EndSplineSet
EndChar

StartChar: bar
Encoding: 92 124 91
Width: 384
VWidth: 1020
Flags: MW
LayerCount: 2
Fore
SplineSet
128 -64 m 1,0,-1
 128 512 l 1,1,-1
 192 512 l 5,2,-1
 192 -64 l 1,3,-1
 128 -64 l 1,0,-1
EndSplineSet
EndChar

StartChar: braceright
Encoding: 93 125 92
Width: 384
VWidth: 1020
Flags: MW
LayerCount: 2
Fore
SplineSet
128 448 m 1,0,-1
 0 448 l 1,1,-1
 0 512 l 1,2,-1
 128 512 l 1,3,-1
 128 448 l 1,0,-1
128 448 m 1,4,-1
 192 448 l 1,5,-1
 192 256 l 1,6,-1
 128 256 l 1,7,-1
 128 448 l 1,4,-1
192 256 m 1,8,-1
 256 256 l 1,9,-1
 256 192 l 1,10,-1
 192 192 l 1,11,-1
 192 256 l 1,8,-1
192 192 m 1,12,-1
 192 0 l 1,13,-1
 128 0 l 1,14,-1
 128 192 l 1,15,-1
 192 192 l 1,12,-1
128 0 m 1,16,-1
 128 -64 l 1,17,-1
 0 -64 l 1,18,-1
 0 0 l 1,19,-1
 128 0 l 1,16,-1
EndSplineSet
EndChar

StartChar: asciitilde
Encoding: 94 126 93
Width: 384
VWidth: 1020
Flags: MW
LayerCount: 2
Fore
SplineSet
0 192 m 1,0,-1
 0 256 l 1,1,-1
 64 256 l 1,2,-1
 64 320 l 1,3,-1
 192 320 l 1,4,-1
 192 256 l 1,5,-1
 256 256 l 1,6,-1
 256 320 l 1,7,-1
 320 320 l 1,8,-1
 320 256 l 1,9,-1
 256 256 l 1,10,-1
 256 192 l 1,11,-1
 128 192 l 1,12,-1
 128 256 l 1,13,-1
 64 256 l 1,14,-1
 64 192 l 1,15,-1
 0 192 l 1,0,-1
EndSplineSet
EndChar

StartChar: exclamdown
Encoding: 96 161 94
Width: 384
VWidth: 1020
Flags: MW
LayerCount: 2
Fore
SplineSet
128 256 m 1,0,-1
 128 320 l 1,1,-1
 192 320 l 1,2,-1
 192 256 l 1,3,-1
 128 256 l 1,0,-1
128 -128 m 1,4,-1
 128 192 l 1,5,-1
 192 192 l 1,6,-1
 192 -128 l 1,7,-1
 128 -128 l 1,4,-1
EndSplineSet
EndChar

StartChar: cent
Encoding: 97 162 95
Width: 384
VWidth: 1020
Flags: MW
LayerCount: 2
Fore
SplineSet
128 64 m 1,0,-1
 128 256 l 1,1,-1
 64 256 l 1,2,-1
 64 64 l 1,3,-1
 128 64 l 1,0,-1
128 -64 m 1,4,-1
 128 0 l 1,5,-1
 64 0 l 1,6,-1
 64 64 l 1,7,-1
 0 64 l 1,8,-1
 0 256 l 1,9,-1
 64 256 l 1,10,-1
 64 320 l 1,11,-1
 128 320 l 1,12,-1
 128 384 l 1,13,-1
 192 384 l 1,14,-1
 192 320 l 1,15,-1
 320 320 l 1,16,-1
 320 256 l 1,17,-1
 192 256 l 1,18,-1
 192 64 l 1,19,-1
 320 64 l 1,20,-1
 320 0 l 1,21,-1
 192 0 l 1,22,-1
 192 -64 l 1,23,-1
 128 -64 l 1,4,-1
EndSplineSet
EndChar

StartChar: sterling
Encoding: 98 163 96
Width: 384
VWidth: 1020
Flags: MW
LayerCount: 2
Fore
SplineSet
128 448 m 1,0,-1
 256 448 l 1,1,-1
 256 384 l 1,2,-1
 128 384 l 1,3,-1
 128 448 l 1,0,-1
0 0 m 1,4,-1
 0 64 l 1,5,-1
 64 64 l 1,6,-1
 64 192 l 1,7,-1
 0 192 l 1,8,-1
 0 256 l 1,9,-1
 64 256 l 1,10,-1
 64 384 l 1,11,-1
 128 384 l 1,12,-1
 128 256 l 1,13,-1
 192 256 l 1,14,-1
 192 192 l 1,15,-1
 128 192 l 1,16,-1
 128 64 l 1,17,-1
 64 64 l 1,18,-1
 64 0 l 1,19,-1
 0 0 l 1,4,-1
256 64 m 1,20,-1
 256 128 l 1,21,-1
 320 128 l 1,22,-1
 320 64 l 1,23,-1
 256 64 l 1,20,-1
256 64 m 1,24,-1
 256 0 l 1,25,-1
 128 0 l 1,26,-1
 128 64 l 1,27,-1
 256 64 l 1,24,-1
EndSplineSet
EndChar

StartChar: currency
Encoding: 99 164 97
Width: 384
VWidth: 1020
Flags: MW
LayerCount: 2
Fore
SplineSet
192 128 m 1,0,-1
 192 192 l 1,1,-1
 128 192 l 1,2,-1
 128 128 l 1,3,-1
 192 128 l 1,0,-1
0 0 m 1,4,-1
 0 64 l 1,5,-1
 64 64 l 1,6,-1
 64 256 l 1,7,-1
 0 256 l 1,8,-1
 0 320 l 1,9,-1
 64 320 l 1,10,-1
 64 256 l 1,11,-1
 256 256 l 1,12,-1
 256 320 l 1,13,-1
 320 320 l 1,14,-1
 320 256 l 1,15,-1
 256 256 l 1,16,-1
 256 64 l 1,17,-1
 64 64 l 1,18,-1
 64 0 l 1,19,-1
 0 0 l 1,4,-1
256 64 m 1,20,-1
 320 64 l 1,21,-1
 320 0 l 1,22,-1
 256 0 l 1,23,-1
 256 64 l 1,20,-1
EndSplineSet
EndChar

StartChar: yen
Encoding: 100 165 98
Width: 384
VWidth: 1020
Flags: MW
LayerCount: 2
Fore
SplineSet
128 0 m 1,0,-1
 128 64 l 1,1,-1
 0 64 l 1,2,-1
 0 128 l 1,3,-1
 128 128 l 1,4,-1
 128 192 l 1,5,-1
 0 192 l 1,6,-1
 0 256 l 1,7,-1
 64 256 l 1,8,-1
 64 320 l 1,9,-1
 0 320 l 1,10,-1
 0 448 l 1,11,-1
 64 448 l 1,12,-1
 64 320 l 1,13,-1
 128 320 l 1,14,-1
 128 256 l 1,15,-1
 192 256 l 1,16,-1
 192 320 l 1,17,-1
 256 320 l 1,18,-1
 256 448 l 1,19,-1
 320 448 l 1,20,-1
 320 320 l 1,21,-1
 256 320 l 1,22,-1
 256 256 l 1,23,-1
 320 256 l 1,24,-1
 320 192 l 1,25,-1
 192 192 l 1,26,-1
 192 128 l 1,27,-1
 320 128 l 1,28,-1
 320 64 l 1,29,-1
 192 64 l 1,30,-1
 192 0 l 1,31,-1
 128 0 l 1,0,-1
EndSplineSet
EndChar

StartChar: brokenbar
Encoding: 101 166 99
Width: 384
VWidth: 1020
Flags: MW
LayerCount: 2
Fore
SplineSet
128 256 m 1,0,-1
 128 512 l 1,1,-1
 192 512 l 1,2,-1
 192 256 l 1,3,-1
 128 256 l 1,0,-1
128 -64 m 1,4,-1
 128 192 l 1,5,-1
 192 192 l 1,6,-1
 192 -64 l 1,7,-1
 128 -64 l 1,4,-1
EndSplineSet
EndChar

StartChar: section
Encoding: 102 167 100
Width: 384
VWidth: 1020
Flags: MW
LayerCount: 2
Fore
SplineSet
64 384 m 1,0,-1
 64 448 l 1,1,-1
 256 448 l 1,2,-1
 256 384 l 1,3,-1
 64 384 l 1,0,-1
64 384 m 1,4,-1
 64 256 l 1,5,-1
 0 256 l 1,6,-1
 0 384 l 1,7,-1
 64 384 l 1,4,-1
64 256 m 1,8,-1
 256 256 l 1,9,-1
 256 192 l 1,10,-1
 64 192 l 1,11,-1
 64 256 l 1,8,-1
64 192 m 1,12,-1
 64 128 l 1,13,-1
 0 128 l 1,14,-1
 0 192 l 1,15,-1
 64 192 l 1,12,-1
256 192 m 1,16,-1
 320 192 l 1,17,-1
 320 128 l 1,18,-1
 256 128 l 1,19,-1
 256 192 l 1,16,-1
256 128 m 1,20,-1
 256 64 l 1,21,-1
 64 64 l 1,22,-1
 64 128 l 1,23,-1
 256 128 l 1,20,-1
256 64 m 1,24,-1
 320 64 l 1,25,-1
 320 -64 l 1,26,-1
 256 -64 l 1,27,-1
 256 64 l 1,24,-1
256 -64 m 1,28,-1
 256 -128 l 1,29,-1
 64 -128 l 1,30,-1
 64 -64 l 1,31,-1
 0 -64 l 1,32,-1
 0 0 l 1,33,-1
 64 0 l 1,34,-1
 64 -64 l 1,35,-1
 256 -64 l 1,28,-1
256 384 m 1,36,-1
 320 384 l 1,37,-1
 320 320 l 1,38,-1
 256 320 l 1,39,-1
 256 384 l 1,36,-1
EndSplineSet
EndChar

StartChar: dieresis
Encoding: 103 168 101
Width: 384
VWidth: 1020
Flags: MW
LayerCount: 2
Fore
SplineSet
64 384 m 1,0,-1
 64 448 l 1,1,-1
 128 448 l 1,2,-1
 128 384 l 1,3,-1
 64 384 l 1,0,-1
192 384 m 1,4,-1
 192 448 l 1,5,-1
 256 448 l 1,6,-1
 256 384 l 1,7,-1
 192 384 l 1,4,-1
EndSplineSet
EndChar

StartChar: copyright
Encoding: 104 169 102
Width: 384
VWidth: 1020
Flags: MW
LayerCount: 2
Fore
SplineSet
192 128 m 1,0,-1
 128 128 l 1,1,-1
 128 192 l 1,2,-1
 192 192 l 1,3,-1
 192 128 l 1,0,-1
64 384 m 1,4,-1
 64 448 l 1,5,-1
 256 448 l 1,6,-1
 256 384 l 1,7,-1
 64 384 l 1,4,-1
64 384 m 1,8,-1
 64 256 l 1,9,-1
 128 256 l 1,10,-1
 128 192 l 1,11,-1
 64 192 l 1,12,-1
 64 64 l 1,13,-1
 0 64 l 1,14,-1
 0 384 l 1,15,-1
 64 384 l 1,8,-1
128 256 m 1,16,-1
 128 320 l 1,17,-1
 192 320 l 1,18,-1
 192 256 l 1,19,-1
 128 256 l 1,16,-1
256 384 m 1,20,-1
 320 384 l 1,21,-1
 320 64 l 1,22,-1
 256 64 l 1,23,-1
 256 384 l 1,20,-1
256 64 m 1,24,-1
 256 0 l 1,25,-1
 64 0 l 1,26,-1
 64 64 l 1,27,-1
 256 64 l 1,24,-1
EndSplineSet
EndChar

StartChar: ordfeminine
Encoding: 105 170 103
Width: 384
VWidth: 1020
Flags: MW
LayerCount: 2
Fore
SplineSet
256 192 m 1,0,-1
 64 192 l 1,1,-1
 64 256 l 1,2,-1
 192 256 l 1,3,-1
 192 384 l 1,4,-1
 64 384 l 1,5,-1
 64 256 l 1,6,-1
 0 256 l 1,7,-1
 0 384 l 1,8,-1
 64 384 l 1,9,-1
 64 448 l 1,10,-1
 256 448 l 1,11,-1
 256 192 l 1,0,-1
0 128 m 1,12,-1
 256 128 l 1,13,-1
 256 64 l 1,14,-1
 0 64 l 1,15,-1
 0 128 l 1,12,-1
EndSplineSet
EndChar

StartChar: guillemotleft
Encoding: 106 171 104
Width: 384
VWidth: 1020
Flags: MW
LayerCount: 2
Fore
SplineSet
128 256 m 1,0,-1
 128 320 l 1,1,-1
 192 320 l 1,2,-1
 192 256 l 1,3,-1
 128 256 l 1,0,-1
128 256 m 1,4,-1
 128 192 l 1,5,-1
 64 192 l 1,6,-1
 64 256 l 1,7,-1
 128 256 l 1,4,-1
256 256 m 1,8,-1
 256 320 l 1,9,-1
 320 320 l 1,10,-1
 320 256 l 1,11,-1
 256 256 l 1,8,-1
256 256 m 1,12,-1
 256 192 l 1,13,-1
 192 192 l 1,14,-1
 192 256 l 1,15,-1
 256 256 l 1,12,-1
64 192 m 1,16,-1
 64 128 l 1,17,-1
 0 128 l 1,18,-1
 0 192 l 1,19,-1
 64 192 l 1,16,-1
192 192 m 1,20,-1
 192 128 l 1,21,-1
 128 128 l 1,22,-1
 128 192 l 1,23,-1
 192 192 l 1,20,-1
128 128 m 1,24,-1
 128 64 l 1,25,-1
 64 64 l 1,26,-1
 64 128 l 1,27,-1
 128 128 l 1,24,-1
192 128 m 1,28,-1
 256 128 l 1,29,-1
 256 64 l 1,30,-1
 192 64 l 1,31,-1
 192 128 l 1,28,-1
192 64 m 1,32,-1
 192 0 l 1,33,-1
 128 0 l 1,34,-1
 128 64 l 1,35,-1
 192 64 l 1,32,-1
256 64 m 1,36,-1
 320 64 l 1,37,-1
 320 0 l 1,38,-1
 256 0 l 1,39,-1
 256 64 l 1,36,-1
EndSplineSet
EndChar

StartChar: logicalnot
Encoding: 107 172 105
Width: 384
VWidth: 1020
Flags: MW
LayerCount: 2
Fore
SplineSet
256 64 m 1,0,-1
 256 192 l 1,1,-1
 0 192 l 1,2,-1
 0 256 l 1,3,-1
 320 256 l 1,4,-1
 320 64 l 1,5,-1
 256 64 l 1,0,-1
EndSplineSet
EndChar

StartChar: registered
Encoding: 108 174 106
Width: 384
VWidth: 1020
Flags: MW
LayerCount: 2
Fore
SplineSet
64 384 m 1,0,-1
 64 448 l 1,1,-1
 256 448 l 1,2,-1
 256 384 l 1,3,-1
 64 384 l 1,0,-1
64 384 m 1,4,-1
 64 320 l 1,5,-1
 128 320 l 1,6,-1
 192 320 l 1,7,-1
 192 192 l 1,8,-1
 128 192 l 1,9,-1
 128 128 l 1,10,-1
 64 128 l 1,11,-1
 64 64 l 1,12,-1
 0 64 l 1,13,-1
 0 384 l 1,14,-1
 64 384 l 1,4,-1
256 384 m 1,15,-1
 320 384 l 1,16,-1
 320 64 l 1,17,-1
 256 64 l 1,18,-1
 256 128 l 1,19,-1
 192 128 l 1,20,-1
 192 192 l 1,21,-1
 256 192 l 1,22,-1
 256 384 l 1,15,-1
256 64 m 1,23,-1
 256 0 l 1,24,-1
 64 0 l 1,25,-1
 64 64 l 1,26,-1
 256 64 l 1,23,-1
EndSplineSet
EndChar

StartChar: macron
Encoding: 109 175 107
Width: 384
VWidth: 1020
Flags: MW
LayerCount: 2
Fore
SplineSet
0 512 m 1,0,-1
 384 512 l 5,1,-1
 384 448 l 5,2,-1
 0 448 l 1,3,-1
 0 512 l 1,0,-1
EndSplineSet
EndChar

StartChar: degree
Encoding: 110 176 108
Width: 384
VWidth: 1020
Flags: MW
LayerCount: 2
Fore
SplineSet
64 384 m 1,0,-1
 64 448 l 1,1,-1
 192 448 l 1,2,-1
 192 384 l 1,3,-1
 64 384 l 1,0,-1
64 384 m 1,4,-1
 64 256 l 1,5,-1
 0 256 l 1,6,-1
 0 384 l 1,7,-1
 64 384 l 1,4,-1
192 384 m 1,8,-1
 256 384 l 1,9,-1
 256 256 l 1,10,-1
 192 256 l 1,11,-1
 192 384 l 1,8,-1
192 256 m 1,12,-1
 192 192 l 1,13,-1
 64 192 l 1,14,-1
 64 256 l 1,15,-1
 192 256 l 1,12,-1
EndSplineSet
EndChar

StartChar: plusminus
Encoding: 111 177 109
Width: 384
VWidth: 1020
Flags: MW
LayerCount: 2
Fore
SplineSet
0 64 m 1,0,-1
 320 64 l 1,1,-1
 320 0 l 1,2,-1
 0 0 l 1,3,-1
 0 64 l 1,0,-1
128 128 m 1,4,-1
 128 192 l 1,5,-1
 0 192 l 1,6,-1
 0 256 l 1,7,-1
 128 256 l 1,8,-1
 128 384 l 1,9,-1
 192 384 l 1,10,-1
 192 256 l 1,11,-1
 320 256 l 1,12,-1
 320 192 l 1,13,-1
 192 192 l 1,14,-1
 192 128 l 1,15,-1
 128 128 l 1,4,-1
EndSplineSet
EndChar

StartChar: uni00B2
Encoding: 112 178 110
Width: 384
VWidth: 1020
Flags: MW
LayerCount: 2
Fore
SplineSet
256 192 m 1,0,-1
 64 192 l 1,1,-1
 64 256 l 1,2,-1
 128 256 l 1,3,-1
 128 320 l 1,4,-1
 192 320 l 1,5,-1
 192 384 l 1,6,-1
 64 384 l 1,7,-1
 64 448 l 1,8,-1
 192 448 l 1,9,-1
 192 384 l 1,10,-1
 256 384 l 1,11,-1
 256 320 l 1,12,-1
 192 320 l 1,13,-1
 192 256 l 1,14,-1
 256 256 l 1,15,-1
 256 192 l 1,0,-1
EndSplineSet
EndChar

StartChar: uni00B3
Encoding: 113 179 111
Width: 384
VWidth: 1020
Flags: MW
LayerCount: 2
Fore
SplineSet
192 320 m 1,0,-1
 128 320 l 1,1,-1
 128 384 l 1,2,-1
 64 384 l 1,3,-1
 64 448 l 1,4,-1
 256 448 l 1,5,-1
 256 384 l 1,6,-1
 192 384 l 1,7,-1
 192 320 l 1,0,-1
192 320 m 1,8,-1
 256 320 l 1,9,-1
 256 256 l 1,10,-1
 192 256 l 1,11,-1
 192 320 l 1,8,-1
192 256 m 1,12,-1
 192 192 l 1,13,-1
 64 192 l 1,14,-1
 64 256 l 1,15,-1
 192 256 l 1,12,-1
EndSplineSet
EndChar

StartChar: acute
Encoding: 114 180 112
Width: 384
VWidth: 1020
Flags: MW
LayerCount: 2
Fore
SplineSet
64 320 m 1,0,-1
 64 384 l 1,1,-1
 128 384 l 1,2,-1
 128 448 l 1,3,-1
 192 448 l 1,4,-1
 192 384 l 1,5,-1
 128 384 l 1,6,-1
 128 320 l 1,7,-1
 64 320 l 1,0,-1
EndSplineSet
EndChar

StartChar: mu
Encoding: 115 181 113
Width: 384
VWidth: 1020
Flags: MW
LayerCount: 2
Fore
SplineSet
0 -128 m 5,0,-1
 0 320 l 1,1,-1
 64 320 l 1,2,-1
 64 64 l 1,3,-1
 256 64 l 1,4,-1
 256 320 l 1,5,-1
 320 320 l 1,6,-1
 320 0 l 1,7,-1
 64 0 l 1,8,-1
 64 -128 l 5,9,-1
 0 -128 l 5,0,-1
EndSplineSet
EndChar

StartChar: paragraph
Encoding: 116 182 114
Width: 384
VWidth: 1020
Flags: MW
LayerCount: 2
Fore
SplineSet
256 -64 m 1,0,-1
 256 384 l 1,1,-1
 192 384 l 1,2,-1
 192 -64 l 1,3,-1
 128 -64 l 1,4,-1
 128 192 l 1,5,-1
 64 192 l 1,6,-1
 64 256 l 1,7,-1
 0 256 l 1,8,-1
 0 384 l 1,9,-1
 64 384 l 1,10,-1
 64 448 l 1,11,-1
 320 448 l 1,12,-1
 320 -64 l 1,13,-1
 256 -64 l 1,0,-1
EndSplineSet
EndChar

StartChar: periodcentered
Encoding: 117 183 115
Width: 384
VWidth: 1020
Flags: MW
LayerCount: 2
Fore
SplineSet
128 192 m 1,0,-1
 128 256 l 1,1,-1
 192 256 l 1,2,-1
 192 192 l 1,3,-1
 128 192 l 1,0,-1
EndSplineSet
EndChar

StartChar: cedilla
Encoding: 118 184 116
Width: 384
VWidth: 1020
Flags: MW
LayerCount: 2
Fore
SplineSet
192 -64 m 1,0,-1
 128 -64 l 1,1,-1
 128 0 l 1,2,-1
 192 0 l 1,3,-1
 192 -64 l 1,0,-1
192 -64 m 1,4,-1
 256 -64 l 1,5,-1
 256 -128 l 1,6,-1
 192 -128 l 1,7,-1
 192 -64 l 1,4,-1
192 -128 m 1,8,-1
 192 -192 l 1,9,-1
 64 -192 l 1,10,-1
 64 -128 l 1,11,-1
 192 -128 l 1,8,-1
EndSplineSet
EndChar

StartChar: uni00B9
Encoding: 119 185 117
Width: 384
VWidth: 1020
Flags: MW
LayerCount: 2
Fore
SplineSet
128 192 m 1,0,-1
 128 384 l 1,1,-1
 64 384 l 1,2,-1
 64 448 l 1,3,-1
 192 448 l 1,4,-1
 192 192 l 1,5,-1
 128 192 l 1,0,-1
EndSplineSet
EndChar

StartChar: ordmasculine
Encoding: 120 186 118
Width: 384
VWidth: 1020
Flags: MW
LayerCount: 2
Fore
SplineSet
0 128 m 1,0,-1
 256 128 l 1,1,-1
 256 64 l 1,2,-1
 0 64 l 1,3,-1
 0 128 l 1,0,-1
64 384 m 1,4,-1
 64 448 l 1,5,-1
 192 448 l 1,6,-1
 192 384 l 1,7,-1
 64 384 l 1,4,-1
64 384 m 1,8,-1
 64 256 l 1,9,-1
 0 256 l 1,10,-1
 0 384 l 1,11,-1
 64 384 l 1,8,-1
192 384 m 1,12,-1
 256 384 l 1,13,-1
 256 256 l 1,14,-1
 192 256 l 1,15,-1
 192 384 l 1,12,-1
192 256 m 1,16,-1
 192 192 l 1,17,-1
 64 192 l 1,18,-1
 64 256 l 1,19,-1
 192 256 l 1,16,-1
EndSplineSet
EndChar

StartChar: guillemotright
Encoding: 121 187 119
Width: 384
VWidth: 1020
Flags: MW
LayerCount: 2
Fore
SplineSet
0 0 m 1,0,-1
 0 64 l 1,1,-1
 64 64 l 1,2,-1
 64 128 l 1,3,-1
 128 128 l 1,4,-1
 128 192 l 1,5,-1
 64 192 l 1,6,-1
 64 256 l 1,7,-1
 0 256 l 1,8,-1
 0 320 l 1,9,-1
 64 320 l 1,10,-1
 64 256 l 1,11,-1
 128 256 l 1,12,-1
 128 320 l 1,13,-1
 192 320 l 1,14,-1
 192 256 l 1,15,-1
 128 256 l 1,16,-1
 128 192 l 1,17,-1
 192 192 l 1,18,-1
 192 256 l 1,19,-1
 256 256 l 1,20,-1
 256 192 l 1,21,-1
 192 192 l 1,22,-1
 192 128 l 1,23,-1
 128 128 l 1,24,-1
 128 64 l 1,25,-1
 64 64 l 1,26,-1
 64 0 l 1,27,-1
 0 0 l 1,0,-1
256 192 m 1,28,-1
 320 192 l 1,29,-1
 320 128 l 1,30,-1
 256 128 l 1,31,-1
 256 192 l 1,28,-1
256 128 m 1,32,-1
 256 64 l 1,33,-1
 192 64 l 1,34,-1
 192 128 l 1,35,-1
 256 128 l 1,32,-1
192 64 m 1,36,-1
 192 0 l 1,37,-1
 128 0 l 1,38,-1
 128 64 l 1,39,-1
 192 64 l 1,36,-1
EndSplineSet
EndChar

StartChar: onequarter
Encoding: 122 188 120
Width: 384
VWidth: 1020
Flags: MW
LayerCount: 2
Fore
SplineSet
0 192 m 1,0,-1
 0 448 l 1,1,-1
 64 448 l 1,2,-1
 64 192 l 1,3,-1
 0 192 l 1,0,-1
64 0 m 1,4,-1
 64 128 l 1,5,-1
 128 128 l 1,6,-1
 128 320 l 1,7,-1
 192 320 l 1,8,-1
 192 448 l 1,9,-1
 256 448 l 1,10,-1
 256 320 l 1,11,-1
 192 320 l 1,12,-1
 192 192 l 1,13,-1
 256 192 l 1,14,-1
 256 256 l 1,15,-1
 320 256 l 1,16,-1
 320 0 l 1,17,-1
 256 0 l 1,18,-1
 256 64 l 1,19,-1
 192 64 l 1,20,-1
 192 128 l 1,21,-1
 128 128 l 1,22,-1
 128 0 l 1,23,-1
 64 0 l 1,4,-1
EndSplineSet
EndChar

StartChar: onehalf
Encoding: 123 189 121
Width: 384
VWidth: 1020
Flags: MW
LayerCount: 2
Fore
SplineSet
320 0 m 1,0,-1
 192 0 l 1,1,-1
 192 128 l 1,2,-1
 128 128 l 1,3,-1
 128 192 l 1,4,-1
 128 256 l 1,5,-1
 128 320 l 1,6,-1
 192 320 l 1,7,-1
 192 448 l 1,8,-1
 256 448 l 1,9,-1
 256 320 l 1,10,-1
 192 320 l 1,11,-1
 192 256 l 1,12,-1
 256 256 l 1,13,-1
 256 192 l 1,14,-1
 192 192 l 1,15,-1
 192 128 l 1,16,-1
 256 128 l 1,17,-1
 256 192 l 1,18,-1
 320 192 l 1,19,-1
 320 128 l 1,20,-1
 256 128 l 1,21,-1
 256 64 l 1,22,-1
 320 64 l 1,23,-1
 320 0 l 1,0,-1
0 192 m 1,24,-1
 0 448 l 1,25,-1
 64 448 l 1,26,-1
 64 192 l 1,27,-1
 0 192 l 1,24,-1
64 0 m 1,28,-1
 64 128 l 1,29,-1
 128 128 l 1,30,-1
 128 0 l 1,31,-1
 64 0 l 1,28,-1
EndSplineSet
EndChar

StartChar: threequarters
Encoding: 124 190 122
Width: 384
VWidth: 1020
Flags: MW
LayerCount: 2
Fore
SplineSet
64 0 m 1,0,-1
 64 128 l 1,1,-1
 128 128 l 1,2,-1
 128 256 l 1,3,-1
 64 256 l 1,4,-1
 64 320 l 1,5,-1
 0 320 l 1,6,-1
 0 448 l 1,7,-1
 128 448 l 1,8,-1
 128 384 l 1,9,-1
 64 384 l 1,10,-1
 64 320 l 1,11,-1
 128 320 l 1,12,-1
 192 320 l 1,13,-1
 192 448 l 1,14,-1
 256 448 l 1,15,-1
 256 320 l 1,16,-1
 192 320 l 1,17,-1
 192 192 l 1,18,-1
 256 192 l 1,19,-1
 256 256 l 1,20,-1
 320 256 l 1,21,-1
 320 0 l 1,22,-1
 256 0 l 1,23,-1
 256 64 l 1,24,-1
 192 64 l 1,25,-1
 192 128 l 1,26,-1
 128 128 l 1,27,-1
 128 0 l 1,28,-1
 64 0 l 1,0,-1
64 256 m 1,29,-1
 64 192 l 1,30,-1
 0 192 l 1,31,-1
 0 256 l 1,32,-1
 64 256 l 1,29,-1
EndSplineSet
EndChar

StartChar: questiondown
Encoding: 125 191 123
Width: 384
VWidth: 1020
Flags: MW
LayerCount: 2
Fore
SplineSet
128 256 m 1,0,-1
 128 320 l 1,1,-1
 192 320 l 1,2,-1
 192 256 l 1,3,-1
 128 256 l 1,0,-1
128 64 m 1,4,-1
 128 192 l 1,5,-1
 192 192 l 1,6,-1
 192 64 l 1,7,-1
 128 64 l 1,4,-1
128 64 m 1,8,-1
 128 0 l 1,9,-1
 64 0 l 1,10,-1
 64 64 l 1,11,-1
 128 64 l 1,8,-1
64 0 m 1,12,-1
 64 -64 l 1,13,-1
 0 -64 l 1,14,-1
 0 0 l 1,15,-1
 64 0 l 1,12,-1
256 -64 m 1,16,-1
 256 0 l 1,17,-1
 320 0 l 1,18,-1
 320 -64 l 1,19,-1
 256 -64 l 1,16,-1
256 -64 m 1,20,-1
 256 -128 l 1,21,-1
 64 -128 l 1,22,-1
 64 -64 l 1,23,-1
 256 -64 l 1,20,-1
EndSplineSet
EndChar

StartChar: Agrave
Encoding: 126 192 124
Width: 384
VWidth: 1020
Flags: MW
LayerCount: 2
Fore
SplineSet
256 0 m 1,0,-1
 256 192 l 1,1,-1
 64 192 l 1,2,-1
 64 0 l 1,3,-1
 0 0 l 1,4,-1
 0 384 l 1,5,-1
 64 384 l 1,6,-1
 64 448 l 1,7,-1
 256 448 l 1,8,-1
 256 384 l 1,9,-1
 64 384 l 1,10,-1
 64 256 l 1,11,-1
 256 256 l 1,12,-1
 256 384 l 1,13,-1
 320 384 l 1,14,-1
 320 0 l 1,15,-1
 256 0 l 1,0,-1
128 576 m 1,16,-1
 64 576 l 1,17,-1
 64 640 l 1,18,-1
 128 640 l 1,19,-1
 128 576 l 1,16,-1
128 576 m 1,20,-1
 192 576 l 1,21,-1
 192 512 l 1,22,-1
 128 512 l 1,23,-1
 128 576 l 1,20,-1
EndSplineSet
EndChar

StartChar: Aacute
Encoding: 127 193 125
Width: 384
VWidth: 1020
Flags: MW
LayerCount: 2
Fore
SplineSet
128 512 m 1,0,-1
 128 576 l 1,1,-1
 192 576 l 1,2,-1
 192 640 l 1,3,-1
 256 640 l 1,4,-1
 256 576 l 1,5,-1
 192 576 l 1,6,-1
 192 512 l 1,7,-1
 128 512 l 1,0,-1
256 0 m 1,8,-1
 256 192 l 1,9,-1
 64 192 l 1,10,-1
 64 0 l 1,11,-1
 0 0 l 1,12,-1
 0 384 l 1,13,-1
 64 384 l 1,14,-1
 64 448 l 1,15,-1
 256 448 l 1,16,-1
 256 384 l 1,17,-1
 64 384 l 1,18,-1
 64 256 l 1,19,-1
 256 256 l 1,20,-1
 256 384 l 1,21,-1
 320 384 l 1,22,-1
 320 0 l 1,23,-1
 256 0 l 1,8,-1
EndSplineSet
EndChar

StartChar: Acircumflex
Encoding: 128 194 126
Width: 384
VWidth: 1020
Flags: MW
LayerCount: 2
Fore
SplineSet
64 512 m 1,0,-1
 64 576 l 1,1,-1
 128 576 l 1,2,-1
 128 640 l 1,3,-1
 192 640 l 1,4,-1
 192 576 l 1,5,-1
 128 576 l 1,6,-1
 128 512 l 1,7,-1
 64 512 l 1,0,-1
256 0 m 1,8,-1
 256 192 l 1,9,-1
 64 192 l 1,10,-1
 64 0 l 1,11,-1
 0 0 l 1,12,-1
 0 384 l 1,13,-1
 64 384 l 1,14,-1
 64 448 l 1,15,-1
 256 448 l 1,16,-1
 256 384 l 1,17,-1
 64 384 l 1,18,-1
 64 256 l 1,19,-1
 256 256 l 1,20,-1
 256 384 l 1,21,-1
 320 384 l 1,22,-1
 320 0 l 1,23,-1
 256 0 l 1,8,-1
192 576 m 1,24,-1
 256 576 l 1,25,-1
 256 512 l 1,26,-1
 192 512 l 1,27,-1
 192 576 l 1,24,-1
EndSplineSet
EndChar

StartChar: Atilde
Encoding: 129 195 127
Width: 384
VWidth: 1020
Flags: MW
LayerCount: 2
Fore
SplineSet
256 512 m 1,0,-1
 128 512 l 1,1,-1
 128 576 l 1,2,-1
 64 576 l 1,3,-1
 64 640 l 5,4,-1
 192 640 l 5,5,-1
 192 576 l 1,6,-1
 256 576 l 1,7,-1
 256 640 l 5,8,-1
 320 640 l 5,9,-1
 320 576 l 1,10,-1
 256 576 l 1,11,-1
 256 512 l 1,0,-1
0 512 m 1,12,-1
 0 576 l 1,13,-1
 64 576 l 1,14,-1
 64 512 l 1,15,-1
 0 512 l 1,12,-1
256 0 m 1,16,-1
 256 192 l 1,17,-1
 64 192 l 1,18,-1
 64 0 l 1,19,-1
 0 0 l 1,20,-1
 0 384 l 1,21,-1
 64 384 l 1,22,-1
 64 448 l 1,23,-1
 256 448 l 1,24,-1
 256 384 l 1,25,-1
 64 384 l 1,26,-1
 64 256 l 1,27,-1
 256 256 l 1,28,-1
 256 384 l 1,29,-1
 320 384 l 1,30,-1
 320 0 l 1,31,-1
 256 0 l 1,16,-1
EndSplineSet
EndChar

StartChar: Adieresis
Encoding: 130 196 128
Width: 384
VWidth: 1020
Flags: MW
LayerCount: 2
Fore
SplineSet
64 512 m 1,0,-1
 64 576 l 1,1,-1
 128 576 l 1,2,-1
 128 512 l 1,3,-1
 64 512 l 1,0,-1
192 512 m 1,4,-1
 192 576 l 1,5,-1
 256 576 l 1,6,-1
 256 512 l 1,7,-1
 192 512 l 1,4,-1
256 0 m 1,8,-1
 256 192 l 1,9,-1
 64 192 l 1,10,-1
 64 0 l 1,11,-1
 0 0 l 1,12,-1
 0 384 l 1,13,-1
 64 384 l 1,14,-1
 64 448 l 1,15,-1
 256 448 l 1,16,-1
 256 384 l 1,17,-1
 64 384 l 1,18,-1
 64 256 l 1,19,-1
 256 256 l 1,20,-1
 256 384 l 1,21,-1
 320 384 l 1,22,-1
 320 0 l 1,23,-1
 256 0 l 1,8,-1
EndSplineSet
EndChar

StartChar: Aring
Encoding: 131 197 129
Width: 384
VWidth: 1020
Flags: MW
LayerCount: 2
Fore
SplineSet
256 0 m 1,0,-1
 256 192 l 1,1,-1
 64 192 l 1,2,-1
 64 0 l 1,3,-1
 0 0 l 1,4,-1
 0 384 l 1,5,-1
 64 384 l 1,6,-1
 64 448 l 1,7,-1
 128 448 l 1,8,-1
 128 512 l 1,9,-1
 64 512 l 1,10,-1
 64 576 l 1,11,-1
 128 576 l 1,12,-1
 128 640 l 1,13,-1
 192 640 l 1,14,-1
 192 576 l 1,15,-1
 128 576 l 1,16,-1
 128 512 l 1,17,-1
 192 512 l 1,18,-1
 192 576 l 1,19,-1
 256 576 l 1,20,-1
 256 512 l 1,21,-1
 192 512 l 1,22,-1
 192 448 l 1,23,-1
 256 448 l 1,24,-1
 256 384 l 1,25,-1
 64 384 l 1,26,-1
 64 256 l 1,27,-1
 256 256 l 1,28,-1
 256 384 l 1,29,-1
 320 384 l 1,30,-1
 320 0 l 1,31,-1
 256 0 l 1,0,-1
EndSplineSet
EndChar

StartChar: AE
Encoding: 132 198 130
Width: 384
VWidth: 1020
Flags: MW
LayerCount: 2
Fore
SplineSet
320 448 m 1,0,-1
 64 448 l 1,1,-1
 64 384 l 1,2,-1
 0 384 l 1,3,-1
 0 0 l 1,4,-1
 64 0 l 1,5,-1
 64 192 l 1,6,-1
 128 192 l 1,7,-1
 128 0 l 1,8,-1
 320 0 l 1,9,-1
 320 64 l 1,10,-1
 192 64 l 1,11,-1
 192 192 l 1,12,-1
 256 192 l 1,13,-1
 256 256 l 1,14,-1
 192 256 l 1,15,-1
 192 384 l 1,16,-1
 320 384 l 1,17,-1
 320 448 l 1,0,-1
128 256 m 1,18,-1
 64 256 l 1,19,-1
 64 384 l 1,20,-1
 128 384 l 1,21,-1
 128 256 l 1,18,-1
EndSplineSet
EndChar

StartChar: Ccedilla
Encoding: 133 199 131
Width: 384
VWidth: 1020
Flags: MW
LayerCount: 2
Fore
SplineSet
64 384 m 1,0,-1
 64 448 l 1,1,-1
 256 448 l 1,2,-1
 256 384 l 1,3,-1
 64 384 l 1,0,-1
64 384 m 1,4,-1
 64 64 l 1,5,-1
 0 64 l 1,6,-1
 0 384 l 1,7,-1
 64 384 l 1,4,-1
256 64 m 1,8,-1
 256 128 l 1,9,-1
 320 128 l 1,10,-1
 320 64 l 1,11,-1
 256 64 l 1,8,-1
256 64 m 1,12,-1
 256 0 l 1,13,-1
 192 0 l 1,14,-1
 192 -64 l 1,15,-1
 128 -64 l 1,16,-1
 128 0 l 1,17,-1
 64 0 l 1,18,-1
 64 64 l 1,19,-1
 256 64 l 1,12,-1
192 -64 m 1,20,-1
 256 -64 l 1,21,-1
 256 -128 l 1,22,-1
 192 -128 l 1,23,-1
 192 -64 l 1,20,-1
192 -128 m 1,24,-1
 192 -192 l 1,25,-1
 64 -192 l 1,26,-1
 64 -128 l 1,27,-1
 192 -128 l 1,24,-1
256 384 m 1,28,-1
 320 384 l 1,29,-1
 320 320 l 1,30,-1
 256 320 l 1,31,-1
 256 384 l 1,28,-1
EndSplineSet
EndChar

StartChar: Egrave
Encoding: 134 200 132
Width: 384
VWidth: 1020
Flags: MW
LayerCount: 2
Fore
SplineSet
64 64 m 1,0,-1
 320 64 l 1,1,-1
 320 0 l 1,2,-1
 0 0 l 1,3,-1
 0 448 l 1,4,-1
 320 448 l 1,5,-1
 320 384 l 1,6,-1
 64 384 l 1,7,-1
 64 256 l 1,8,-1
 256 256 l 1,9,-1
 256 192 l 1,10,-1
 64 192 l 1,11,-1
 64 64 l 1,0,-1
128 576 m 1,12,-1
 64 576 l 1,13,-1
 64 640 l 1,14,-1
 128 640 l 1,15,-1
 128 576 l 1,12,-1
128 576 m 1,16,-1
 192 576 l 1,17,-1
 192 512 l 1,18,-1
 128 512 l 1,19,-1
 128 576 l 1,16,-1
EndSplineSet
EndChar

StartChar: Eacute
Encoding: 135 201 133
Width: 384
VWidth: 1020
Flags: MW
LayerCount: 2
Fore
SplineSet
64 64 m 1,0,-1
 320 64 l 1,1,-1
 320 0 l 1,2,-1
 0 0 l 1,3,-1
 0 448 l 1,4,-1
 320 448 l 1,5,-1
 320 384 l 1,6,-1
 64 384 l 1,7,-1
 64 256 l 1,8,-1
 256 256 l 1,9,-1
 256 192 l 1,10,-1
 64 192 l 1,11,-1
 64 64 l 1,0,-1
128 512 m 1,12,-1
 128 576 l 1,13,-1
 192 576 l 1,14,-1
 192 640 l 1,15,-1
 256 640 l 1,16,-1
 256 576 l 1,17,-1
 192 576 l 1,18,-1
 192 512 l 1,19,-1
 128 512 l 1,12,-1
EndSplineSet
EndChar

StartChar: Ecircumflex
Encoding: 136 202 134
Width: 384
VWidth: 1020
Flags: MW
LayerCount: 2
Fore
SplineSet
64 64 m 1,0,-1
 320 64 l 1,1,-1
 320 0 l 1,2,-1
 0 0 l 1,3,-1
 0 448 l 1,4,-1
 320 448 l 1,5,-1
 320 384 l 1,6,-1
 64 384 l 1,7,-1
 64 256 l 1,8,-1
 256 256 l 1,9,-1
 256 192 l 1,10,-1
 64 192 l 1,11,-1
 64 64 l 1,0,-1
64 512 m 1,12,-1
 64 576 l 1,13,-1
 128 576 l 1,14,-1
 128 640 l 1,15,-1
 192 640 l 1,16,-1
 192 576 l 1,17,-1
 128 576 l 1,18,-1
 128 512 l 1,19,-1
 64 512 l 1,12,-1
192 576 m 1,20,-1
 256 576 l 1,21,-1
 256 512 l 1,22,-1
 192 512 l 1,23,-1
 192 576 l 1,20,-1
EndSplineSet
EndChar

StartChar: Edieresis
Encoding: 137 203 135
Width: 384
VWidth: 1020
Flags: MW
LayerCount: 2
Fore
SplineSet
64 64 m 1,0,-1
 320 64 l 1,1,-1
 320 0 l 1,2,-1
 0 0 l 1,3,-1
 0 448 l 1,4,-1
 320 448 l 1,5,-1
 320 384 l 1,6,-1
 64 384 l 1,7,-1
 64 256 l 1,8,-1
 256 256 l 1,9,-1
 256 192 l 1,10,-1
 64 192 l 1,11,-1
 64 64 l 1,0,-1
64 512 m 1,12,-1
 64 576 l 1,13,-1
 128 576 l 1,14,-1
 128 512 l 1,15,-1
 64 512 l 1,12,-1
192 512 m 1,16,-1
 192 576 l 1,17,-1
 256 576 l 1,18,-1
 256 512 l 1,19,-1
 192 512 l 1,16,-1
EndSplineSet
EndChar

StartChar: Igrave
Encoding: 138 204 136
Width: 384
VWidth: 1020
Flags: MW
LayerCount: 2
Fore
SplineSet
256 0 m 1,0,-1
 64 0 l 1,1,-1
 64 64 l 1,2,-1
 128 64 l 1,3,-1
 128 384 l 1,4,-1
 64 384 l 1,5,-1
 64 448 l 1,6,-1
 256 448 l 1,7,-1
 256 384 l 1,8,-1
 192 384 l 1,9,-1
 192 64 l 1,10,-1
 256 64 l 1,11,-1
 256 0 l 1,0,-1
128 576 m 1,12,-1
 64 576 l 1,13,-1
 64 640 l 1,14,-1
 128 640 l 1,15,-1
 128 576 l 1,12,-1
128 576 m 1,16,-1
 192 576 l 1,17,-1
 192 512 l 1,18,-1
 128 512 l 1,19,-1
 128 576 l 1,16,-1
EndSplineSet
EndChar

StartChar: Iacute
Encoding: 139 205 137
Width: 384
VWidth: 1020
Flags: MW
LayerCount: 2
Fore
SplineSet
256 0 m 1,0,-1
 64 0 l 1,1,-1
 64 64 l 1,2,-1
 128 64 l 1,3,-1
 128 384 l 1,4,-1
 64 384 l 1,5,-1
 64 448 l 1,6,-1
 256 448 l 1,7,-1
 256 384 l 1,8,-1
 192 384 l 1,9,-1
 192 64 l 1,10,-1
 256 64 l 1,11,-1
 256 0 l 1,0,-1
128 512 m 1,12,-1
 128 576 l 1,13,-1
 192 576 l 1,14,-1
 192 640 l 1,15,-1
 256 640 l 1,16,-1
 256 576 l 1,17,-1
 192 576 l 1,18,-1
 192 512 l 1,19,-1
 128 512 l 1,12,-1
EndSplineSet
EndChar

StartChar: Icircumflex
Encoding: 140 206 138
Width: 384
VWidth: 1020
Flags: MW
LayerCount: 2
Fore
SplineSet
256 0 m 1,0,-1
 64 0 l 1,1,-1
 64 64 l 1,2,-1
 128 64 l 1,3,-1
 128 384 l 1,4,-1
 64 384 l 1,5,-1
 64 448 l 1,6,-1
 256 448 l 1,7,-1
 256 384 l 1,8,-1
 192 384 l 1,9,-1
 192 64 l 1,10,-1
 256 64 l 1,11,-1
 256 0 l 1,0,-1
64 512 m 1,12,-1
 64 576 l 1,13,-1
 128 576 l 1,14,-1
 128 640 l 1,15,-1
 192 640 l 1,16,-1
 192 576 l 1,17,-1
 128 576 l 1,18,-1
 128 512 l 1,19,-1
 64 512 l 1,12,-1
192 576 m 1,20,-1
 256 576 l 1,21,-1
 256 512 l 1,22,-1
 192 512 l 1,23,-1
 192 576 l 1,20,-1
EndSplineSet
EndChar

StartChar: Idieresis
Encoding: 141 207 139
Width: 384
VWidth: 1020
Flags: MW
LayerCount: 2
Fore
SplineSet
256 0 m 1,0,-1
 64 0 l 1,1,-1
 64 64 l 1,2,-1
 128 64 l 1,3,-1
 128 384 l 1,4,-1
 64 384 l 1,5,-1
 64 448 l 1,6,-1
 256 448 l 1,7,-1
 256 384 l 1,8,-1
 192 384 l 1,9,-1
 192 64 l 1,10,-1
 256 64 l 1,11,-1
 256 0 l 1,0,-1
64 512 m 1,12,-1
 64 576 l 1,13,-1
 128 576 l 1,14,-1
 128 512 l 1,15,-1
 64 512 l 1,12,-1
192 512 m 1,16,-1
 192 576 l 1,17,-1
 256 576 l 1,18,-1
 256 512 l 1,19,-1
 192 512 l 1,16,-1
EndSplineSet
EndChar

StartChar: Eth
Encoding: 142 208 140
Width: 384
VWidth: 1020
Flags: MW
LayerCount: 2
Fore
SplineSet
256 0 m 1,0,-1
 64 0 l 1,1,-1
 64 192 l 1,2,-1
 0 192 l 1,3,-1
 0 256 l 1,4,-1
 64 256 l 1,5,-1
 64 448 l 1,6,-1
 256 448 l 1,7,-1
 256 384 l 1,8,-1
 320 384 l 1,9,-1
 320 64 l 1,10,-1
 256 64 l 1,11,-1
 256 0 l 1,0,-1
256 384 m 1,12,-1
 128 384 l 1,13,-1
 128 256 l 1,14,-1
 192 256 l 1,15,-1
 192 192 l 1,16,-1
 128 192 l 1,17,-1
 128 64 l 1,18,-1
 256 64 l 1,19,-1
 256 384 l 1,12,-1
EndSplineSet
EndChar

StartChar: Ntilde
Encoding: 143 209 141
Width: 384
VWidth: 1020
Flags: MW
LayerCount: 2
Fore
SplineSet
256 512 m 1,0,-1
 128 512 l 1,1,-1
 128 576 l 1,2,-1
 64 576 l 1,3,-1
 64 640 l 1,4,-1
 192 640 l 1,5,-1
 192 576 l 1,6,-1
 256 576 l 1,7,-1
 256 640 l 1,8,-1
 320 640 l 1,9,-1
 320 576 l 1,10,-1
 256 576 l 1,11,-1
 256 512 l 1,0,-1
0 512 m 1,12,-1
 0 576 l 1,13,-1
 64 576 l 1,14,-1
 64 512 l 1,15,-1
 0 512 l 1,12,-1
0 0 m 1,16,-1
 0 448 l 1,17,-1
 64 448 l 1,18,-1
 64 320 l 1,19,-1
 128 320 l 1,20,-1
 128 256 l 1,21,-1
 64 256 l 1,22,-1
 64 0 l 1,23,-1
 0 0 l 1,16,-1
256 0 m 1,24,-1
 256 128 l 1,25,-1
 192 128 l 1,26,-1
 192 192 l 1,27,-1
 128 192 l 1,28,-1
 128 256 l 1,29,-1
 192 256 l 1,30,-1
 192 192 l 1,31,-1
 256 192 l 1,32,-1
 256 448 l 1,33,-1
 320 448 l 1,34,-1
 320 0 l 1,35,-1
 256 0 l 1,24,-1
EndSplineSet
EndChar

StartChar: Ograve
Encoding: 144 210 142
Width: 384
VWidth: 1020
Flags: MW
LayerCount: 2
Fore
SplineSet
64 384 m 1,0,-1
 64 448 l 1,1,-1
 256 448 l 1,2,-1
 256 384 l 1,3,-1
 64 384 l 1,0,-1
64 384 m 1,4,-1
 64 64 l 1,5,-1
 0 64 l 1,6,-1
 0 384 l 1,7,-1
 64 384 l 1,4,-1
256 384 m 1,8,-1
 320 384 l 1,9,-1
 320 64 l 1,10,-1
 256 64 l 1,11,-1
 256 384 l 1,8,-1
256 64 m 1,12,-1
 256 0 l 1,13,-1
 64 0 l 1,14,-1
 64 64 l 1,15,-1
 256 64 l 1,12,-1
128 576 m 1,16,-1
 64 576 l 1,17,-1
 64 640 l 1,18,-1
 128 640 l 1,19,-1
 128 576 l 1,16,-1
128 576 m 1,20,-1
 192 576 l 1,21,-1
 192 512 l 1,22,-1
 128 512 l 1,23,-1
 128 576 l 1,20,-1
EndSplineSet
EndChar

StartChar: Oacute
Encoding: 145 211 143
Width: 384
VWidth: 1020
Flags: MW
LayerCount: 2
Fore
SplineSet
128 512 m 1,0,-1
 128 576 l 1,1,-1
 192 576 l 1,2,-1
 192 640 l 1,3,-1
 256 640 l 1,4,-1
 256 576 l 1,5,-1
 192 576 l 1,6,-1
 192 512 l 1,7,-1
 128 512 l 1,0,-1
64 384 m 1,8,-1
 64 448 l 1,9,-1
 256 448 l 1,10,-1
 256 384 l 1,11,-1
 64 384 l 1,8,-1
64 384 m 1,12,-1
 64 64 l 1,13,-1
 0 64 l 1,14,-1
 0 384 l 1,15,-1
 64 384 l 1,12,-1
256 384 m 1,16,-1
 320 384 l 1,17,-1
 320 64 l 1,18,-1
 256 64 l 1,19,-1
 256 384 l 1,16,-1
256 64 m 1,20,-1
 256 0 l 1,21,-1
 64 0 l 1,22,-1
 64 64 l 1,23,-1
 256 64 l 1,20,-1
EndSplineSet
EndChar

StartChar: Ocircumflex
Encoding: 146 212 144
Width: 384
VWidth: 1020
Flags: MW
LayerCount: 2
Fore
SplineSet
64 512 m 1,0,-1
 64 576 l 1,1,-1
 128 576 l 1,2,-1
 128 640 l 1,3,-1
 192 640 l 1,4,-1
 192 576 l 1,5,-1
 128 576 l 1,6,-1
 128 512 l 1,7,-1
 64 512 l 1,0,-1
64 384 m 1,8,-1
 64 448 l 1,9,-1
 256 448 l 1,10,-1
 256 384 l 1,11,-1
 64 384 l 1,8,-1
64 384 m 1,12,-1
 64 64 l 1,13,-1
 0 64 l 1,14,-1
 0 384 l 1,15,-1
 64 384 l 1,12,-1
256 384 m 1,16,-1
 320 384 l 1,17,-1
 320 64 l 1,18,-1
 256 64 l 1,19,-1
 256 384 l 1,16,-1
256 64 m 1,20,-1
 256 0 l 1,21,-1
 64 0 l 1,22,-1
 64 64 l 1,23,-1
 256 64 l 1,20,-1
192 576 m 1,24,-1
 256 576 l 1,25,-1
 256 512 l 1,26,-1
 192 512 l 1,27,-1
 192 576 l 1,24,-1
EndSplineSet
EndChar

StartChar: Otilde
Encoding: 147 213 145
Width: 384
VWidth: 1020
Flags: MW
LayerCount: 2
Fore
SplineSet
256 512 m 1,0,-1
 128 512 l 1,1,-1
 128 576 l 1,2,-1
 64 576 l 1,3,-1
 64 640 l 1,4,-1
 192 640 l 1,5,-1
 192 576 l 1,6,-1
 256 576 l 1,7,-1
 256 640 l 1,8,-1
 320 640 l 1,9,-1
 320 576 l 1,10,-1
 256 576 l 1,11,-1
 256 512 l 1,0,-1
0 512 m 1,12,-1
 0 576 l 1,13,-1
 64 576 l 1,14,-1
 64 512 l 1,15,-1
 0 512 l 1,12,-1
64 384 m 1,16,-1
 64 448 l 1,17,-1
 256 448 l 1,18,-1
 256 384 l 1,19,-1
 64 384 l 1,16,-1
64 384 m 1,20,-1
 64 64 l 1,21,-1
 0 64 l 1,22,-1
 0 384 l 1,23,-1
 64 384 l 1,20,-1
256 384 m 1,24,-1
 320 384 l 1,25,-1
 320 64 l 1,26,-1
 256 64 l 1,27,-1
 256 384 l 1,24,-1
256 64 m 1,28,-1
 256 0 l 1,29,-1
 64 0 l 1,30,-1
 64 64 l 1,31,-1
 256 64 l 1,28,-1
EndSplineSet
EndChar

StartChar: Odieresis
Encoding: 148 214 146
Width: 384
VWidth: 1020
Flags: MW
LayerCount: 2
Fore
SplineSet
64 512 m 1,0,-1
 64 576 l 1,1,-1
 128 576 l 1,2,-1
 128 512 l 1,3,-1
 64 512 l 1,0,-1
192 512 m 1,4,-1
 192 576 l 1,5,-1
 256 576 l 1,6,-1
 256 512 l 1,7,-1
 192 512 l 1,4,-1
64 384 m 1,8,-1
 64 448 l 1,9,-1
 256 448 l 1,10,-1
 256 384 l 1,11,-1
 64 384 l 1,8,-1
64 384 m 1,12,-1
 64 64 l 1,13,-1
 0 64 l 1,14,-1
 0 384 l 1,15,-1
 64 384 l 1,12,-1
256 384 m 1,16,-1
 320 384 l 1,17,-1
 320 64 l 1,18,-1
 256 64 l 1,19,-1
 256 384 l 1,16,-1
256 64 m 1,20,-1
 256 0 l 1,21,-1
 64 0 l 1,22,-1
 64 64 l 1,23,-1
 256 64 l 1,20,-1
EndSplineSet
EndChar

StartChar: multiply
Encoding: 149 215 147
Width: 384
VWidth: 1020
Flags: MW
LayerCount: 2
Fore
SplineSet
0 0 m 1,0,-1
 0 64 l 1,1,-1
 64 64 l 1,2,-1
 64 128 l 1,3,-1
 128 128 l 1,4,-1
 128 192 l 1,5,-1
 64 192 l 1,6,-1
 64 256 l 1,7,-1
 0 256 l 1,8,-1
 0 320 l 1,9,-1
 64 320 l 1,10,-1
 64 256 l 1,11,-1
 128 256 l 1,12,-1
 128 192 l 1,13,-1
 192 192 l 1,14,-1
 192 256 l 1,15,-1
 256 256 l 1,16,-1
 256 320 l 1,17,-1
 320 320 l 1,18,-1
 320 256 l 1,19,-1
 256 256 l 1,20,-1
 256 192 l 1,21,-1
 192 192 l 1,22,-1
 192 128 l 1,23,-1
 128 128 l 1,24,-1
 128 64 l 1,25,-1
 64 64 l 1,26,-1
 64 0 l 1,27,-1
 0 0 l 1,0,-1
192 128 m 1,28,-1
 256 128 l 1,29,-1
 256 64 l 1,30,-1
 192 64 l 1,31,-1
 192 128 l 1,28,-1
256 64 m 1,32,-1
 320 64 l 1,33,-1
 320 0 l 1,34,-1
 256 0 l 1,35,-1
 256 64 l 1,32,-1
EndSplineSet
EndChar

StartChar: Oslash
Encoding: 150 216 148
Width: 384
VWidth: 1020
Flags: MW
LayerCount: 2
Fore
SplineSet
64 384 m 1,0,-1
 64 448 l 1,1,-1
 256 448 l 1,2,-1
 320 448 l 1,3,-1
 320 64 l 1,4,-1
 256 64 l 1,5,-1
 256 320 l 1,6,-1
 192 320 l 1,7,-1
 192 384 l 1,8,-1
 64 384 l 1,0,-1
64 384 m 1,9,-1
 64 128 l 1,10,-1
 128 128 l 1,11,-1
 128 64 l 1,12,-1
 256 64 l 1,13,-1
 256 0 l 1,14,-1
 64 0 l 1,15,-1
 0 0 l 1,16,-1
 0 384 l 1,17,-1
 64 384 l 1,9,-1
128 128 m 1,18,-1
 128 192 l 1,19,-1
 128 320 l 1,20,-1
 192 320 l 1,21,-1
 192 192 l 1,22,-1
 192 128 l 1,23,-1
 128 128 l 1,18,-1
EndSplineSet
EndChar

StartChar: Ugrave
Encoding: 151 217 149
Width: 384
VWidth: 1020
Flags: MW
LayerCount: 2
Fore
SplineSet
256 64 m 1,0,-1
 256 448 l 1,1,-1
 320 448 l 1,2,-1
 320 64 l 1,3,-1
 256 64 l 1,0,-1
256 64 m 1,4,-1
 256 0 l 1,5,-1
 64 0 l 1,6,-1
 64 64 l 1,7,-1
 0 64 l 1,8,-1
 0 448 l 1,9,-1
 64 448 l 1,10,-1
 64 64 l 1,11,-1
 256 64 l 1,4,-1
128 576 m 1,12,-1
 64 576 l 1,13,-1
 64 640 l 5,14,-1
 128 640 l 5,15,-1
 128 576 l 1,12,-1
128 576 m 1,16,-1
 192 576 l 1,17,-1
 192 512 l 1,18,-1
 128 512 l 1,19,-1
 128 576 l 1,16,-1
EndSplineSet
EndChar

StartChar: Uacute
Encoding: 152 218 150
Width: 384
VWidth: 1020
Flags: MW
LayerCount: 2
Fore
SplineSet
128 512 m 1,0,-1
 128 576 l 1,1,-1
 192 576 l 1,2,-1
 192 640 l 1,3,-1
 256 640 l 1,4,-1
 256 576 l 1,5,-1
 192 576 l 1,6,-1
 192 512 l 1,7,-1
 128 512 l 1,0,-1
256 64 m 1,8,-1
 256 448 l 1,9,-1
 320 448 l 1,10,-1
 320 64 l 1,11,-1
 256 64 l 1,8,-1
256 64 m 1,12,-1
 256 0 l 1,13,-1
 64 0 l 1,14,-1
 64 64 l 1,15,-1
 0 64 l 1,16,-1
 0 448 l 1,17,-1
 64 448 l 1,18,-1
 64 64 l 1,19,-1
 256 64 l 1,12,-1
EndSplineSet
EndChar

StartChar: Ucircumflex
Encoding: 153 219 151
Width: 384
VWidth: 1020
Flags: MW
LayerCount: 2
Fore
SplineSet
64 512 m 1,0,-1
 64 576 l 1,1,-1
 128 576 l 1,2,-1
 128 640 l 1,3,-1
 192 640 l 1,4,-1
 192 576 l 1,5,-1
 128 576 l 1,6,-1
 128 512 l 1,7,-1
 64 512 l 1,0,-1
256 64 m 1,8,-1
 256 448 l 1,9,-1
 320 448 l 1,10,-1
 320 64 l 1,11,-1
 256 64 l 1,8,-1
256 64 m 1,12,-1
 256 0 l 1,13,-1
 64 0 l 1,14,-1
 64 64 l 1,15,-1
 0 64 l 1,16,-1
 0 448 l 1,17,-1
 64 448 l 1,18,-1
 64 64 l 1,19,-1
 256 64 l 1,12,-1
192 576 m 1,20,-1
 256 576 l 1,21,-1
 256 512 l 1,22,-1
 192 512 l 1,23,-1
 192 576 l 1,20,-1
EndSplineSet
EndChar

StartChar: Udieresis
Encoding: 154 220 152
Width: 384
VWidth: 1020
Flags: MW
LayerCount: 2
Fore
SplineSet
64 512 m 1,0,-1
 64 576 l 1,1,-1
 128 576 l 1,2,-1
 128 512 l 1,3,-1
 64 512 l 1,0,-1
192 512 m 1,4,-1
 192 576 l 1,5,-1
 256 576 l 1,6,-1
 256 512 l 1,7,-1
 192 512 l 1,4,-1
256 64 m 1,8,-1
 256 448 l 1,9,-1
 320 448 l 1,10,-1
 320 64 l 1,11,-1
 256 64 l 1,8,-1
256 64 m 1,12,-1
 256 0 l 1,13,-1
 64 0 l 1,14,-1
 64 64 l 1,15,-1
 0 64 l 1,16,-1
 0 448 l 1,17,-1
 64 448 l 1,18,-1
 64 64 l 1,19,-1
 256 64 l 1,12,-1
EndSplineSet
EndChar

StartChar: Yacute
Encoding: 155 221 153
Width: 384
VWidth: 1020
Flags: MW
LayerCount: 2
Fore
SplineSet
128 512 m 1,0,-1
 128 576 l 1,1,-1
 192 576 l 1,2,-1
 192 640 l 1,3,-1
 256 640 l 1,4,-1
 256 576 l 1,5,-1
 192 576 l 1,6,-1
 192 512 l 1,7,-1
 128 512 l 1,0,-1
64 320 m 1,8,-1
 0 320 l 1,9,-1
 0 448 l 1,10,-1
 64 448 l 1,11,-1
 64 320 l 1,8,-1
64 320 m 1,12,-1
 128 320 l 1,13,-1
 128 256 l 1,14,-1
 64 256 l 1,15,-1
 64 320 l 1,12,-1
256 320 m 1,16,-1
 256 448 l 1,17,-1
 320 448 l 1,18,-1
 320 320 l 1,19,-1
 256 320 l 1,16,-1
256 320 m 1,20,-1
 256 256 l 1,21,-1
 192 256 l 1,22,-1
 192 320 l 1,23,-1
 256 320 l 1,20,-1
192 256 m 1,24,-1
 192 0 l 1,25,-1
 128 0 l 1,26,-1
 128 256 l 1,27,-1
 192 256 l 1,24,-1
EndSplineSet
EndChar

StartChar: Thorn
Encoding: 156 222 154
Width: 384
VWidth: 1020
Flags: MW
LayerCount: 2
Fore
SplineSet
0 0 m 1,0,-1
 0 448 l 1,1,-1
 64 448 l 1,2,-1
 64 384 l 1,3,-1
 256 384 l 1,4,-1
 256 320 l 1,5,-1
 64 320 l 1,6,-1
 64 128 l 1,7,-1
 256 128 l 1,8,-1
 256 64 l 1,9,-1
 64 64 l 1,10,-1
 64 0 l 1,11,-1
 0 0 l 1,0,-1
256 128 m 1,12,-1
 256 320 l 1,13,-1
 320 320 l 1,14,-1
 320 128 l 1,15,-1
 256 128 l 1,12,-1
EndSplineSet
EndChar

StartChar: germandbls
Encoding: 157 223 155
Width: 384
VWidth: 1020
Flags: MW
LayerCount: 2
Fore
SplineSet
0 0 m 1,0,-1
 0 384 l 1,1,-1
 64 384 l 1,2,-1
 64 448 l 1,3,-1
 192 448 l 1,4,-1
 192 384 l 1,5,-1
 64 384 l 1,6,-1
 64 0 l 1,7,-1
 0 0 l 1,0,-1
192 384 m 1,8,-1
 256 384 l 1,9,-1
 256 192 l 1,10,-1
 128 192 l 1,11,-1
 128 256 l 1,12,-1
 192 256 l 1,13,-1
 192 384 l 1,8,-1
256 192 m 1,14,-1
 320 192 l 1,15,-1
 320 64 l 1,16,-1
 256 64 l 1,17,-1
 256 192 l 1,14,-1
256 64 m 1,18,-1
 256 0 l 1,19,-1
 128 0 l 1,20,-1
 128 64 l 1,21,-1
 256 64 l 1,18,-1
EndSplineSet
EndChar

StartChar: agrave
Encoding: 158 224 156
Width: 384
VWidth: 1020
Flags: MW
LayerCount: 2
Fore
SplineSet
320 0 m 1,0,-1
 64 0 l 1,1,-1
 64 64 l 1,2,-1
 256 64 l 1,3,-1
 256 256 l 1,4,-1
 64 256 l 1,5,-1
 64 64 l 1,6,-1
 0 64 l 1,7,-1
 0 256 l 1,8,-1
 64 256 l 1,9,-1
 64 320 l 1,10,-1
 320 320 l 1,11,-1
 320 0 l 1,0,-1
192 448 m 1,12,-1
 128 448 l 1,13,-1
 128 512 l 1,14,-1
 192 512 l 1,15,-1
 192 448 l 1,12,-1
192 448 m 1,16,-1
 256 448 l 1,17,-1
 256 384 l 1,18,-1
 192 384 l 1,19,-1
 192 448 l 1,16,-1
EndSplineSet
EndChar

StartChar: aacute
Encoding: 159 225 157
Width: 384
VWidth: 1020
Flags: MW
LayerCount: 2
Fore
SplineSet
320 0 m 1,0,-1
 64 0 l 1,1,-1
 64 64 l 1,2,-1
 256 64 l 1,3,-1
 256 256 l 1,4,-1
 64 256 l 1,5,-1
 64 64 l 1,6,-1
 0 64 l 1,7,-1
 0 256 l 1,8,-1
 64 256 l 1,9,-1
 64 320 l 1,10,-1
 320 320 l 1,11,-1
 320 0 l 1,0,-1
128 384 m 1,12,-1
 128 448 l 1,13,-1
 192 448 l 1,14,-1
 192 512 l 1,15,-1
 256 512 l 1,16,-1
 256 448 l 1,17,-1
 192 448 l 1,18,-1
 192 384 l 1,19,-1
 128 384 l 1,12,-1
EndSplineSet
EndChar

StartChar: acircumflex
Encoding: 160 226 158
Width: 384
VWidth: 1020
Flags: MW
LayerCount: 2
Fore
SplineSet
320 0 m 1,0,-1
 64 0 l 1,1,-1
 64 64 l 1,2,-1
 256 64 l 1,3,-1
 256 256 l 1,4,-1
 64 256 l 1,5,-1
 64 64 l 1,6,-1
 0 64 l 1,7,-1
 0 256 l 1,8,-1
 64 256 l 1,9,-1
 64 320 l 1,10,-1
 320 320 l 1,11,-1
 320 0 l 1,0,-1
64 384 m 1,12,-1
 64 448 l 1,13,-1
 128 448 l 1,14,-1
 128 512 l 1,15,-1
 192 512 l 1,16,-1
 192 448 l 1,17,-1
 128 448 l 1,18,-1
 128 384 l 1,19,-1
 64 384 l 1,12,-1
192 448 m 1,20,-1
 256 448 l 1,21,-1
 256 384 l 1,22,-1
 192 384 l 1,23,-1
 192 448 l 1,20,-1
EndSplineSet
EndChar

StartChar: atilde
Encoding: 161 227 159
Width: 384
VWidth: 1020
Flags: MW
LayerCount: 2
Fore
SplineSet
256 384 m 1,0,-1
 128 384 l 1,1,-1
 128 448 l 1,2,-1
 64 448 l 1,3,-1
 64 512 l 1,4,-1
 192 512 l 1,5,-1
 192 448 l 1,6,-1
 256 448 l 1,7,-1
 256 512 l 1,8,-1
 320 512 l 1,9,-1
 320 448 l 1,10,-1
 256 448 l 1,11,-1
 256 384 l 1,0,-1
320 0 m 1,12,-1
 64 0 l 1,13,-1
 64 64 l 1,14,-1
 256 64 l 1,15,-1
 256 256 l 1,16,-1
 64 256 l 1,17,-1
 64 64 l 1,18,-1
 0 64 l 1,19,-1
 0 256 l 1,20,-1
 64 256 l 1,21,-1
 64 320 l 1,22,-1
 320 320 l 1,23,-1
 320 0 l 1,12,-1
0 384 m 1,24,-1
 0 448 l 1,25,-1
 64 448 l 1,26,-1
 64 384 l 1,27,-1
 0 384 l 1,24,-1
EndSplineSet
EndChar

StartChar: adieresis
Encoding: 162 228 160
Width: 384
VWidth: 1020
Flags: MW
LayerCount: 2
Fore
SplineSet
320 0 m 1,0,-1
 64 0 l 1,1,-1
 64 64 l 1,2,-1
 256 64 l 1,3,-1
 256 256 l 1,4,-1
 64 256 l 1,5,-1
 64 64 l 1,6,-1
 0 64 l 1,7,-1
 0 256 l 1,8,-1
 64 256 l 1,9,-1
 64 320 l 1,10,-1
 320 320 l 1,11,-1
 320 0 l 1,0,-1
64 384 m 1,12,-1
 64 448 l 1,13,-1
 128 448 l 1,14,-1
 128 384 l 1,15,-1
 64 384 l 1,12,-1
192 384 m 1,16,-1
 192 448 l 1,17,-1
 256 448 l 1,18,-1
 256 384 l 1,19,-1
 192 384 l 1,16,-1
EndSplineSet
EndChar

StartChar: aring
Encoding: 163 229 161
Width: 384
VWidth: 1020
Flags: MW
LayerCount: 2
Fore
SplineSet
320 0 m 1,0,-1
 64 0 l 1,1,-1
 64 64 l 1,2,-1
 256 64 l 1,3,-1
 256 256 l 1,4,-1
 64 256 l 1,5,-1
 64 64 l 1,6,-1
 0 64 l 1,7,-1
 0 256 l 1,8,-1
 64 256 l 1,9,-1
 64 320 l 1,10,-1
 320 320 l 1,11,-1
 320 0 l 1,0,-1
128 512 m 1,12,-1
 128 576 l 1,13,-1
 192 576 l 1,14,-1
 192 512 l 1,15,-1
 128 512 l 1,12,-1
128 512 m 1,16,-1
 128 448 l 1,17,-1
 64 448 l 1,18,-1
 64 512 l 1,19,-1
 128 512 l 1,16,-1
192 512 m 1,20,-1
 256 512 l 1,21,-1
 256 448 l 1,22,-1
 192 448 l 1,23,-1
 192 512 l 1,20,-1
192 448 m 1,24,-1
 192 384 l 1,25,-1
 128 384 l 1,26,-1
 128 448 l 1,27,-1
 192 448 l 1,24,-1
EndSplineSet
EndChar

StartChar: ae
Encoding: 164 230 162
Width: 384
VWidth: 1020
Flags: MW
LayerCount: 2
Fore
SplineSet
192 192 m 1,0,-1
 192 256 l 1,1,-1
 256 256 l 1,2,-1
 256 192 l 1,3,-1
 192 192 l 1,0,-1
128 64 m 1,4,-1
 64 64 l 1,5,-1
 64 128 l 1,6,-1
 128 128 l 1,7,-1
 128 64 l 1,4,-1
256 256 m 1,8,-1
 256 320 l 1,9,-1
 192 320 l 1,10,-1
 64 320 l 1,11,-1
 64 256 l 1,12,-1
 128 256 l 1,13,-1
 128 192 l 1,14,-1
 64 192 l 1,15,-1
 64 128 l 1,16,-1
 0 128 l 1,17,-1
 0 64 l 1,18,-1
 64 64 l 1,19,-1
 64 0 l 1,20,-1
 192 0 l 1,21,-1
 320 0 l 1,22,-1
 320 64 l 1,23,-1
 256 64 l 1,24,-1
 192 64 l 1,25,-1
 192 128 l 1,26,-1
 256 128 l 1,27,-1
 320 128 l 1,28,-1
 320 256 l 1,29,-1
 256 256 l 1,8,-1
EndSplineSet
EndChar

StartChar: ccedilla
Encoding: 165 231 163
Width: 384
VWidth: 1020
Flags: MW
LayerCount: 2
Fore
SplineSet
64 320 m 1,0,-1
 320 320 l 1,1,-1
 320 256 l 1,2,-1
 64 256 l 1,3,-1
 64 320 l 1,0,-1
64 256 m 1,4,-1
 64 64 l 1,5,-1
 0 64 l 1,6,-1
 0 256 l 1,7,-1
 64 256 l 1,4,-1
64 64 m 1,8,-1
 320 64 l 1,9,-1
 320 0 l 1,10,-1
 192 0 l 1,11,-1
 192 -64 l 1,12,-1
 128 -64 l 1,13,-1
 128 0 l 1,14,-1
 64 0 l 1,15,-1
 64 64 l 1,8,-1
192 -64 m 1,16,-1
 256 -64 l 1,17,-1
 256 -128 l 1,18,-1
 192 -128 l 1,19,-1
 192 -64 l 1,16,-1
192 -128 m 1,20,-1
 192 -192 l 1,21,-1
 64 -192 l 1,22,-1
 64 -128 l 1,23,-1
 192 -128 l 1,20,-1
EndSplineSet
EndChar

StartChar: egrave
Encoding: 166 232 164
Width: 384
VWidth: 1020
Flags: MW
LayerCount: 2
Fore
SplineSet
256 256 m 1,0,-1
 64 256 l 1,1,-1
 64 320 l 1,2,-1
 256 320 l 1,3,-1
 256 256 l 1,0,-1
256 256 m 1,4,-1
 320 256 l 1,5,-1
 320 128 l 1,6,-1
 64 128 l 1,7,-1
 64 64 l 1,8,-1
 0 64 l 1,9,-1
 0 256 l 1,10,-1
 64 256 l 1,11,-1
 64 192 l 1,12,-1
 256 192 l 1,13,-1
 256 256 l 1,4,-1
64 64 m 1,14,-1
 320 64 l 1,15,-1
 320 0 l 1,16,-1
 64 0 l 1,17,-1
 64 64 l 1,14,-1
128 448 m 1,18,-1
 64 448 l 1,19,-1
 64 512 l 1,20,-1
 128 512 l 1,21,-1
 128 448 l 1,18,-1
128 448 m 1,22,-1
 192 448 l 1,23,-1
 192 384 l 1,24,-1
 128 384 l 1,25,-1
 128 448 l 1,22,-1
EndSplineSet
EndChar

StartChar: eacute
Encoding: 167 233 165
Width: 384
VWidth: 1020
Flags: MW
LayerCount: 2
Fore
SplineSet
128 384 m 1,0,-1
 128 448 l 1,1,-1
 192 448 l 1,2,-1
 192 512 l 1,3,-1
 256 512 l 1,4,-1
 256 448 l 1,5,-1
 192 448 l 1,6,-1
 192 384 l 1,7,-1
 128 384 l 1,0,-1
256 256 m 1,8,-1
 64 256 l 1,9,-1
 64 320 l 1,10,-1
 256 320 l 1,11,-1
 256 256 l 1,8,-1
256 256 m 1,12,-1
 320 256 l 1,13,-1
 320 128 l 1,14,-1
 64 128 l 1,15,-1
 64 64 l 1,16,-1
 0 64 l 1,17,-1
 0 256 l 1,18,-1
 64 256 l 1,19,-1
 64 192 l 1,20,-1
 256 192 l 1,21,-1
 256 256 l 1,12,-1
64 64 m 1,22,-1
 320 64 l 1,23,-1
 320 0 l 1,24,-1
 64 0 l 1,25,-1
 64 64 l 1,22,-1
EndSplineSet
EndChar

StartChar: ecircumflex
Encoding: 168 234 166
Width: 384
VWidth: 1020
Flags: MW
LayerCount: 2
Fore
SplineSet
64 384 m 1,0,-1
 64 448 l 1,1,-1
 128 448 l 1,2,-1
 128 512 l 1,3,-1
 192 512 l 1,4,-1
 192 448 l 1,5,-1
 128 448 l 1,6,-1
 128 384 l 1,7,-1
 64 384 l 1,0,-1
256 256 m 1,8,-1
 64 256 l 1,9,-1
 64 320 l 1,10,-1
 256 320 l 1,11,-1
 256 256 l 1,8,-1
256 256 m 1,12,-1
 320 256 l 1,13,-1
 320 128 l 1,14,-1
 64 128 l 1,15,-1
 64 64 l 1,16,-1
 0 64 l 1,17,-1
 0 256 l 1,18,-1
 64 256 l 1,19,-1
 64 192 l 1,20,-1
 256 192 l 1,21,-1
 256 256 l 1,12,-1
64 64 m 1,22,-1
 320 64 l 1,23,-1
 320 0 l 1,24,-1
 64 0 l 1,25,-1
 64 64 l 1,22,-1
192 448 m 1,26,-1
 256 448 l 1,27,-1
 256 384 l 1,28,-1
 192 384 l 1,29,-1
 192 448 l 1,26,-1
EndSplineSet
EndChar

StartChar: edieresis
Encoding: 169 235 167
Width: 384
VWidth: 1020
Flags: MW
LayerCount: 2
Fore
SplineSet
64 384 m 1,0,-1
 64 448 l 1,1,-1
 128 448 l 1,2,-1
 128 384 l 1,3,-1
 64 384 l 1,0,-1
192 384 m 1,4,-1
 192 448 l 1,5,-1
 256 448 l 1,6,-1
 256 384 l 1,7,-1
 192 384 l 1,4,-1
256 256 m 1,8,-1
 64 256 l 1,9,-1
 64 320 l 1,10,-1
 256 320 l 1,11,-1
 256 256 l 1,8,-1
256 256 m 1,12,-1
 320 256 l 1,13,-1
 320 128 l 1,14,-1
 64 128 l 1,15,-1
 64 64 l 1,16,-1
 0 64 l 1,17,-1
 0 256 l 1,18,-1
 64 256 l 1,19,-1
 64 192 l 1,20,-1
 256 192 l 1,21,-1
 256 256 l 1,12,-1
64 64 m 1,22,-1
 320 64 l 1,23,-1
 320 0 l 1,24,-1
 64 0 l 1,25,-1
 64 64 l 1,22,-1
EndSplineSet
EndChar

StartChar: igrave
Encoding: 170 236 168
Width: 384
VWidth: 1020
Flags: MW
LayerCount: 2
Fore
SplineSet
128 0 m 1,0,-1
 128 256 l 1,1,-1
 64 256 l 1,2,-1
 64 320 l 1,3,-1
 192 320 l 1,4,-1
 192 0 l 1,5,-1
 128 0 l 1,0,-1
128 448 m 1,6,-1
 64 448 l 1,7,-1
 64 512 l 1,8,-1
 128 512 l 1,9,-1
 128 448 l 1,6,-1
128 448 m 1,10,-1
 192 448 l 1,11,-1
 192 384 l 1,12,-1
 128 384 l 1,13,-1
 128 448 l 1,10,-1
EndSplineSet
EndChar

StartChar: iacute
Encoding: 171 237 169
Width: 384
VWidth: 1020
Flags: MW
LayerCount: 2
Fore
SplineSet
128 384 m 1,0,-1
 128 448 l 1,1,-1
 192 448 l 1,2,-1
 192 512 l 1,3,-1
 256 512 l 1,4,-1
 256 448 l 1,5,-1
 192 448 l 1,6,-1
 192 384 l 1,7,-1
 128 384 l 1,0,-1
128 0 m 1,8,-1
 128 256 l 1,9,-1
 64 256 l 1,10,-1
 64 320 l 1,11,-1
 192 320 l 1,12,-1
 192 0 l 1,13,-1
 128 0 l 1,8,-1
EndSplineSet
EndChar

StartChar: icircumflex
Encoding: 172 238 170
Width: 384
VWidth: 1020
Flags: MW
LayerCount: 2
Fore
SplineSet
64 384 m 1,0,-1
 64 448 l 1,1,-1
 128 448 l 1,2,-1
 128 512 l 1,3,-1
 192 512 l 1,4,-1
 192 448 l 1,5,-1
 128 448 l 1,6,-1
 128 384 l 1,7,-1
 64 384 l 1,0,-1
128 0 m 1,8,-1
 128 256 l 1,9,-1
 64 256 l 1,10,-1
 64 320 l 1,11,-1
 192 320 l 1,12,-1
 192 0 l 1,13,-1
 128 0 l 1,8,-1
192 448 m 1,14,-1
 256 448 l 1,15,-1
 256 384 l 1,16,-1
 192 384 l 1,17,-1
 192 448 l 1,14,-1
EndSplineSet
EndChar

StartChar: idieresis
Encoding: 173 239 171
Width: 384
VWidth: 1020
Flags: MW
LayerCount: 2
Fore
SplineSet
64 384 m 1,0,-1
 64 448 l 1,1,-1
 128 448 l 1,2,-1
 128 384 l 1,3,-1
 64 384 l 1,0,-1
192 384 m 1,4,-1
 192 448 l 1,5,-1
 256 448 l 1,6,-1
 256 384 l 1,7,-1
 192 384 l 1,4,-1
128 0 m 1,8,-1
 128 256 l 1,9,-1
 64 256 l 1,10,-1
 64 320 l 1,11,-1
 192 320 l 1,12,-1
 192 0 l 1,13,-1
 128 0 l 1,8,-1
EndSplineSet
EndChar

StartChar: eth
Encoding: 174 240 172
Width: 384
VWidth: 1020
Flags: MW
LayerCount: 2
Fore
SplineSet
256 384 m 1,0,-1
 256 448 l 1,1,-1
 320 448 l 1,2,-1
 320 384 l 1,3,-1
 256 384 l 1,0,-1
256 384 m 1,4,-1
 256 320 l 1,5,-1
 128 320 l 1,6,-1
 128 384 l 1,7,-1
 64 384 l 1,8,-1
 64 448 l 1,9,-1
 192 448 l 1,10,-1
 192 384 l 1,11,-1
 256 384 l 1,4,-1
256 320 m 1,12,-1
 320 320 l 1,13,-1
 320 64 l 1,14,-1
 256 64 l 1,15,-1
 256 192 l 1,16,-1
 64 192 l 1,17,-1
 64 256 l 1,18,-1
 256 256 l 1,19,-1
 256 320 l 1,12,-1
64 192 m 1,20,-1
 64 64 l 1,21,-1
 0 64 l 1,22,-1
 0 192 l 1,23,-1
 64 192 l 1,20,-1
256 64 m 1,24,-1
 256 0 l 1,25,-1
 64 0 l 1,26,-1
 64 64 l 1,27,-1
 256 64 l 1,24,-1
EndSplineSet
EndChar

StartChar: ntilde
Encoding: 175 241 173
Width: 384
VWidth: 1020
Flags: MW
LayerCount: 2
Fore
SplineSet
256 384 m 1,0,-1
 128 384 l 1,1,-1
 128 448 l 1,2,-1
 64 448 l 1,3,-1
 64 512 l 1,4,-1
 192 512 l 1,5,-1
 192 448 l 1,6,-1
 256 448 l 1,7,-1
 256 512 l 1,8,-1
 320 512 l 1,9,-1
 320 448 l 1,10,-1
 256 448 l 1,11,-1
 256 384 l 1,0,-1
0 384 m 1,12,-1
 0 448 l 1,13,-1
 64 448 l 1,14,-1
 64 384 l 1,15,-1
 0 384 l 1,12,-1
0 0 m 1,16,-1
 0 320 l 1,17,-1
 256 320 l 1,18,-1
 256 256 l 1,19,-1
 64 256 l 1,20,-1
 64 0 l 1,21,-1
 0 0 l 1,16,-1
256 256 m 1,22,-1
 320 256 l 1,23,-1
 320 0 l 1,24,-1
 256 0 l 1,25,-1
 256 256 l 1,22,-1
EndSplineSet
EndChar

StartChar: ograve
Encoding: 176 242 174
Width: 384
VWidth: 1020
Flags: MW
LayerCount: 2
Fore
SplineSet
64 256 m 1,0,-1
 64 320 l 1,1,-1
 256 320 l 1,2,-1
 256 256 l 1,3,-1
 64 256 l 1,0,-1
64 256 m 1,4,-1
 64 64 l 1,5,-1
 0 64 l 1,6,-1
 0 256 l 1,7,-1
 64 256 l 1,4,-1
256 256 m 1,8,-1
 320 256 l 1,9,-1
 320 64 l 1,10,-1
 256 64 l 1,11,-1
 256 256 l 1,8,-1
256 64 m 1,12,-1
 256 0 l 1,13,-1
 64 0 l 1,14,-1
 64 64 l 1,15,-1
 256 64 l 1,12,-1
128 448 m 1,16,-1
 64 448 l 1,17,-1
 64 512 l 1,18,-1
 128 512 l 1,19,-1
 128 448 l 1,16,-1
128 448 m 1,20,-1
 192 448 l 1,21,-1
 192 384 l 1,22,-1
 128 384 l 1,23,-1
 128 448 l 1,20,-1
EndSplineSet
EndChar

StartChar: oacute
Encoding: 177 243 175
Width: 384
VWidth: 1020
Flags: MW
LayerCount: 2
Fore
SplineSet
128 384 m 1,0,-1
 128 448 l 1,1,-1
 192 448 l 1,2,-1
 192 512 l 1,3,-1
 256 512 l 1,4,-1
 256 448 l 1,5,-1
 192 448 l 1,6,-1
 192 384 l 1,7,-1
 128 384 l 1,0,-1
64 256 m 1,8,-1
 64 320 l 1,9,-1
 256 320 l 1,10,-1
 256 256 l 1,11,-1
 64 256 l 1,8,-1
64 256 m 1,12,-1
 64 64 l 1,13,-1
 0 64 l 1,14,-1
 0 256 l 1,15,-1
 64 256 l 1,12,-1
256 256 m 1,16,-1
 320 256 l 1,17,-1
 320 64 l 1,18,-1
 256 64 l 1,19,-1
 256 256 l 1,16,-1
256 64 m 1,20,-1
 256 0 l 1,21,-1
 64 0 l 1,22,-1
 64 64 l 1,23,-1
 256 64 l 1,20,-1
EndSplineSet
EndChar

StartChar: ocircumflex
Encoding: 178 244 176
Width: 384
VWidth: 1020
Flags: MW
LayerCount: 2
Fore
SplineSet
64 384 m 1,0,-1
 64 448 l 1,1,-1
 128 448 l 1,2,-1
 128 512 l 1,3,-1
 192 512 l 1,4,-1
 192 448 l 1,5,-1
 128 448 l 1,6,-1
 128 384 l 1,7,-1
 64 384 l 1,0,-1
64 256 m 1,8,-1
 64 320 l 1,9,-1
 256 320 l 1,10,-1
 256 256 l 1,11,-1
 64 256 l 1,8,-1
64 256 m 1,12,-1
 64 64 l 1,13,-1
 0 64 l 1,14,-1
 0 256 l 1,15,-1
 64 256 l 1,12,-1
256 256 m 1,16,-1
 320 256 l 1,17,-1
 320 64 l 1,18,-1
 256 64 l 1,19,-1
 256 256 l 1,16,-1
256 64 m 1,20,-1
 256 0 l 1,21,-1
 64 0 l 1,22,-1
 64 64 l 1,23,-1
 256 64 l 1,20,-1
192 448 m 1,24,-1
 256 448 l 1,25,-1
 256 384 l 1,26,-1
 192 384 l 1,27,-1
 192 448 l 1,24,-1
EndSplineSet
EndChar

StartChar: otilde
Encoding: 179 245 177
Width: 384
VWidth: 1020
Flags: MW
LayerCount: 2
Fore
SplineSet
256 384 m 1,0,-1
 128 384 l 1,1,-1
 128 448 l 1,2,-1
 64 448 l 1,3,-1
 64 512 l 1,4,-1
 192 512 l 1,5,-1
 192 448 l 1,6,-1
 256 448 l 1,7,-1
 256 512 l 1,8,-1
 320 512 l 1,9,-1
 320 448 l 1,10,-1
 256 448 l 1,11,-1
 256 384 l 1,0,-1
0 384 m 1,12,-1
 0 448 l 1,13,-1
 64 448 l 1,14,-1
 64 384 l 1,15,-1
 0 384 l 1,12,-1
64 256 m 1,16,-1
 64 320 l 1,17,-1
 256 320 l 1,18,-1
 256 256 l 1,19,-1
 64 256 l 1,16,-1
64 256 m 1,20,-1
 64 64 l 1,21,-1
 0 64 l 1,22,-1
 0 256 l 1,23,-1
 64 256 l 1,20,-1
256 256 m 1,24,-1
 320 256 l 1,25,-1
 320 64 l 1,26,-1
 256 64 l 1,27,-1
 256 256 l 1,24,-1
256 64 m 1,28,-1
 256 0 l 1,29,-1
 64 0 l 1,30,-1
 64 64 l 1,31,-1
 256 64 l 1,28,-1
EndSplineSet
EndChar

StartChar: odieresis
Encoding: 180 246 178
Width: 384
VWidth: 1020
Flags: MW
LayerCount: 2
Fore
SplineSet
64 384 m 1,0,-1
 64 448 l 1,1,-1
 128 448 l 1,2,-1
 128 384 l 1,3,-1
 64 384 l 1,0,-1
192 384 m 1,4,-1
 192 448 l 1,5,-1
 256 448 l 1,6,-1
 256 384 l 1,7,-1
 192 384 l 1,4,-1
64 256 m 1,8,-1
 64 320 l 1,9,-1
 256 320 l 1,10,-1
 256 256 l 1,11,-1
 64 256 l 1,8,-1
64 256 m 1,12,-1
 64 64 l 1,13,-1
 0 64 l 1,14,-1
 0 256 l 1,15,-1
 64 256 l 1,12,-1
256 256 m 1,16,-1
 320 256 l 1,17,-1
 320 64 l 1,18,-1
 256 64 l 1,19,-1
 256 256 l 1,16,-1
256 64 m 1,20,-1
 256 0 l 1,21,-1
 64 0 l 1,22,-1
 64 64 l 1,23,-1
 256 64 l 1,20,-1
EndSplineSet
EndChar

StartChar: divide
Encoding: 181 247 179
Width: 384
VWidth: 1020
Flags: MW
LayerCount: 2
Fore
SplineSet
0 256 m 1,0,-1
 320 256 l 1,1,-1
 320 192 l 1,2,-1
 0 192 l 1,3,-1
 0 256 l 1,0,-1
128 320 m 1,4,-1
 128 384 l 1,5,-1
 192 384 l 1,6,-1
 192 320 l 1,7,-1
 128 320 l 1,4,-1
128 64 m 1,8,-1
 128 128 l 1,9,-1
 192 128 l 1,10,-1
 192 64 l 1,11,-1
 128 64 l 1,8,-1
EndSplineSet
EndChar

StartChar: oslash
Encoding: 182 248 180
Width: 384
VWidth: 1020
Flags: MW
LayerCount: 2
Fore
SplineSet
192 192 m 1,0,-1
 192 256 l 1,1,-1
 64 256 l 1,2,-1
 64 320 l 1,3,-1
 320 320 l 1,4,-1
 320 64 l 1,5,-1
 256 64 l 1,6,-1
 256 192 l 1,7,-1
 192 192 l 1,0,-1
192 192 m 1,8,-1
 192 128 l 1,9,-1
 128 128 l 1,10,-1
 128 192 l 1,11,-1
 192 192 l 1,8,-1
128 128 m 1,12,-1
 128 64 l 1,13,-1
 256 64 l 1,14,-1
 256 0 l 1,15,-1
 0 0 l 1,16,-1
 0 256 l 1,17,-1
 64 256 l 1,18,-1
 64 128 l 1,19,-1
 128 128 l 1,12,-1
EndSplineSet
EndChar

StartChar: ugrave
Encoding: 183 249 181
Width: 384
VWidth: 1020
Flags: MW
LayerCount: 2
Fore
SplineSet
256 64 m 1,0,-1
 256 320 l 1,1,-1
 320 320 l 1,2,-1
 320 64 l 1,3,-1
 256 64 l 1,0,-1
256 64 m 1,4,-1
 256 0 l 1,5,-1
 64 0 l 1,6,-1
 64 64 l 1,7,-1
 0 64 l 1,8,-1
 0 320 l 1,9,-1
 64 320 l 1,10,-1
 64 64 l 1,11,-1
 256 64 l 1,4,-1
128 448 m 1,12,-1
 64 448 l 1,13,-1
 64 512 l 1,14,-1
 128 512 l 1,15,-1
 128 448 l 1,12,-1
128 448 m 1,16,-1
 192 448 l 1,17,-1
 192 384 l 1,18,-1
 128 384 l 1,19,-1
 128 448 l 1,16,-1
EndSplineSet
EndChar

StartChar: uacute
Encoding: 184 250 182
Width: 384
VWidth: 1020
Flags: MW
LayerCount: 2
Fore
SplineSet
128 384 m 1,0,-1
 128 448 l 1,1,-1
 192 448 l 1,2,-1
 192 512 l 1,3,-1
 256 512 l 1,4,-1
 256 448 l 1,5,-1
 192 448 l 1,6,-1
 192 384 l 1,7,-1
 128 384 l 1,0,-1
256 64 m 1,8,-1
 256 320 l 1,9,-1
 320 320 l 1,10,-1
 320 64 l 1,11,-1
 256 64 l 1,8,-1
256 64 m 1,12,-1
 256 0 l 1,13,-1
 64 0 l 1,14,-1
 64 64 l 1,15,-1
 0 64 l 1,16,-1
 0 320 l 1,17,-1
 64 320 l 1,18,-1
 64 64 l 1,19,-1
 256 64 l 1,12,-1
EndSplineSet
EndChar

StartChar: ucircumflex
Encoding: 185 251 183
Width: 384
VWidth: 1020
Flags: MW
LayerCount: 2
Fore
SplineSet
64 384 m 1,0,-1
 64 448 l 1,1,-1
 128 448 l 1,2,-1
 128 512 l 1,3,-1
 192 512 l 1,4,-1
 192 448 l 1,5,-1
 128 448 l 1,6,-1
 128 384 l 1,7,-1
 64 384 l 1,0,-1
256 64 m 1,8,-1
 256 320 l 1,9,-1
 320 320 l 1,10,-1
 320 64 l 1,11,-1
 256 64 l 1,8,-1
256 64 m 1,12,-1
 256 0 l 1,13,-1
 64 0 l 1,14,-1
 64 64 l 1,15,-1
 0 64 l 1,16,-1
 0 320 l 1,17,-1
 64 320 l 1,18,-1
 64 64 l 1,19,-1
 256 64 l 1,12,-1
192 448 m 1,20,-1
 256 448 l 1,21,-1
 256 384 l 1,22,-1
 192 384 l 1,23,-1
 192 448 l 1,20,-1
EndSplineSet
EndChar

StartChar: udieresis
Encoding: 186 252 184
Width: 384
VWidth: 1020
Flags: MW
LayerCount: 2
Fore
SplineSet
64 384 m 1,0,-1
 64 448 l 1,1,-1
 128 448 l 1,2,-1
 128 384 l 1,3,-1
 64 384 l 1,0,-1
192 384 m 1,4,-1
 192 448 l 1,5,-1
 256 448 l 1,6,-1
 256 384 l 1,7,-1
 192 384 l 1,4,-1
256 64 m 1,8,-1
 256 320 l 1,9,-1
 320 320 l 1,10,-1
 320 64 l 1,11,-1
 256 64 l 1,8,-1
256 64 m 1,12,-1
 256 0 l 1,13,-1
 64 0 l 1,14,-1
 64 64 l 1,15,-1
 0 64 l 1,16,-1
 0 320 l 1,17,-1
 64 320 l 1,18,-1
 64 64 l 1,19,-1
 256 64 l 1,12,-1
EndSplineSet
EndChar

StartChar: yacute
Encoding: 187 253 185
Width: 384
VWidth: 1020
Flags: MW
LayerCount: 2
Fore
SplineSet
128 384 m 1,0,-1
 128 448 l 1,1,-1
 192 448 l 1,2,-1
 192 512 l 1,3,-1
 256 512 l 1,4,-1
 256 448 l 1,5,-1
 192 448 l 1,6,-1
 192 384 l 1,7,-1
 128 384 l 1,0,-1
64 64 m 1,8,-1
 0 64 l 1,9,-1
 0 320 l 1,10,-1
 64 320 l 1,11,-1
 64 64 l 1,8,-1
64 64 m 1,12,-1
 256 64 l 1,13,-1
 256 320 l 1,14,-1
 320 320 l 1,15,-1
 320 -64 l 1,16,-1
 256 -64 l 1,17,-1
 256 0 l 1,18,-1
 64 0 l 1,19,-1
 64 64 l 1,12,-1
256 -64 m 1,20,-1
 256 -128 l 1,21,-1
 64 -128 l 1,22,-1
 64 -64 l 1,23,-1
 256 -64 l 1,20,-1
EndSplineSet
EndChar

StartChar: thorn
Encoding: 188 254 186
Width: 384
VWidth: 1020
Flags: MW
LayerCount: 2
Fore
SplineSet
0 -128 m 1,0,-1
 0 448 l 1,1,-1
 64 448 l 1,2,-1
 64 320 l 1,3,-1
 256 320 l 1,4,-1
 256 256 l 1,5,-1
 64 256 l 1,6,-1
 64 64 l 1,7,-1
 256 64 l 1,8,-1
 256 0 l 1,9,-1
 64 0 l 1,10,-1
 64 -128 l 1,11,-1
 0 -128 l 1,0,-1
256 64 m 1,12,-1
 256 256 l 1,13,-1
 320 256 l 1,14,-1
 320 64 l 1,15,-1
 256 64 l 1,12,-1
EndSplineSet
EndChar

StartChar: ydieresis
Encoding: 189 255 187
Width: 384
VWidth: 1020
Flags: MW
LayerCount: 2
Fore
SplineSet
64 384 m 1,0,-1
 64 448 l 1,1,-1
 128 448 l 1,2,-1
 128 384 l 1,3,-1
 64 384 l 1,0,-1
192 384 m 1,4,-1
 192 448 l 1,5,-1
 256 448 l 1,6,-1
 256 384 l 1,7,-1
 192 384 l 1,4,-1
64 64 m 1,8,-1
 0 64 l 1,9,-1
 0 320 l 1,10,-1
 64 320 l 1,11,-1
 64 64 l 1,8,-1
64 64 m 1,12,-1
 256 64 l 1,13,-1
 256 320 l 1,14,-1
 320 320 l 1,15,-1
 320 -64 l 1,16,-1
 256 -64 l 1,17,-1
 256 0 l 1,18,-1
 64 0 l 1,19,-1
 64 64 l 1,12,-1
256 -64 m 1,20,-1
 256 -128 l 1,21,-1
 64 -128 l 1,22,-1
 64 -64 l 1,23,-1
 256 -64 l 1,20,-1
EndSplineSet
EndChar

StartChar: Amacron
Encoding: 190 256 188
Width: 384
VWidth: 1020
Flags: MW
LayerCount: 2
Fore
SplineSet
64 576 m 1,0,-1
 256 576 l 1,1,-1
 256 512 l 1,2,-1
 64 512 l 1,3,-1
 64 576 l 1,0,-1
256 0 m 1,4,-1
 256 192 l 1,5,-1
 64 192 l 1,6,-1
 64 0 l 1,7,-1
 0 0 l 1,8,-1
 0 384 l 1,9,-1
 64 384 l 1,10,-1
 64 448 l 1,11,-1
 256 448 l 1,12,-1
 256 384 l 1,13,-1
 64 384 l 1,14,-1
 64 256 l 1,15,-1
 256 256 l 1,16,-1
 256 384 l 1,17,-1
 320 384 l 1,18,-1
 320 0 l 1,19,-1
 256 0 l 1,4,-1
EndSplineSet
EndChar

StartChar: amacron
Encoding: 191 257 189
Width: 384
VWidth: 1020
Flags: MW
LayerCount: 2
Fore
SplineSet
64 448 m 1,0,-1
 256 448 l 1,1,-1
 256 384 l 1,2,-1
 64 384 l 1,3,-1
 64 448 l 1,0,-1
320 0 m 1,4,-1
 64 0 l 1,5,-1
 64 64 l 1,6,-1
 256 64 l 1,7,-1
 256 256 l 1,8,-1
 64 256 l 1,9,-1
 64 64 l 1,10,-1
 0 64 l 1,11,-1
 0 256 l 1,12,-1
 64 256 l 1,13,-1
 64 320 l 1,14,-1
 320 320 l 1,15,-1
 320 0 l 1,4,-1
EndSplineSet
EndChar

StartChar: Abreve
Encoding: 192 258 190
Width: 384
VWidth: 1020
Flags: MW
LayerCount: 2
Fore
SplineSet
256 0 m 1,0,-1
 256 192 l 1,1,-1
 64 192 l 1,2,-1
 64 0 l 1,3,-1
 0 0 l 1,4,-1
 0 384 l 1,5,-1
 64 384 l 1,6,-1
 64 448 l 1,7,-1
 256 448 l 1,8,-1
 256 384 l 1,9,-1
 64 384 l 1,10,-1
 64 256 l 1,11,-1
 256 256 l 1,12,-1
 256 384 l 1,13,-1
 320 384 l 1,14,-1
 320 0 l 1,15,-1
 256 0 l 1,0,-1
256 576 m 1,16,-1
 256 640 l 1,17,-1
 320 640 l 1,18,-1
 320 576 l 1,19,-1
 256 576 l 1,16,-1
256 576 m 1,20,-1
 256 512 l 1,21,-1
 128 512 l 1,22,-1
 128 576 l 1,23,-1
 64 576 l 1,24,-1
 64 640 l 1,25,-1
 128 640 l 1,26,-1
 128 576 l 1,27,-1
 256 576 l 1,20,-1
EndSplineSet
EndChar

StartChar: abreve
Encoding: 193 259 191
Width: 384
VWidth: 1020
Flags: MW
LayerCount: 2
Fore
SplineSet
320 0 m 1,0,-1
 64 0 l 1,1,-1
 64 64 l 1,2,-1
 256 64 l 1,3,-1
 256 256 l 1,4,-1
 64 256 l 1,5,-1
 64 64 l 1,6,-1
 0 64 l 1,7,-1
 0 256 l 1,8,-1
 64 256 l 1,9,-1
 64 320 l 1,10,-1
 320 320 l 1,11,-1
 320 0 l 1,0,-1
256 448 m 1,12,-1
 256 512 l 1,13,-1
 320 512 l 1,14,-1
 320 448 l 1,15,-1
 256 448 l 1,12,-1
256 448 m 1,16,-1
 256 384 l 1,17,-1
 128 384 l 1,18,-1
 128 448 l 1,19,-1
 64 448 l 1,20,-1
 64 512 l 1,21,-1
 128 512 l 1,22,-1
 128 448 l 1,23,-1
 256 448 l 1,16,-1
EndSplineSet
EndChar

StartChar: Aogonek
Encoding: 194 260 192
Width: 384
VWidth: 1020
Flags: MW
LayerCount: 2
Fore
SplineSet
0 0 m 1,0,-1
 0 384 l 1,1,-1
 64 384 l 1,2,-1
 64 448 l 1,3,-1
 256 448 l 1,4,-1
 256 384 l 1,5,-1
 64 384 l 1,6,-1
 64 256 l 1,7,-1
 256 256 l 1,8,-1
 256 384 l 1,9,-1
 320 384 l 1,10,-1
 320 0 l 1,11,-1
 256 0 l 1,12,-1
 256 192 l 1,13,-1
 64 192 l 1,14,-1
 64 0 l 1,15,-1
 0 0 l 1,0,-1
192 -128 m 1,16,-1
 128 -128 l 1,17,-1
 128 -64 l 1,18,-1
 192 -64 l 1,19,-1
 192 0 l 1,20,-1
 256 0 l 1,21,-1
 256 -64 l 1,22,-1
 192 -64 l 1,23,-1
 192 -128 l 1,16,-1
192 -128 m 1,24,-1
 320 -128 l 1,25,-1
 320 -192 l 5,26,-1
 192 -192 l 5,27,-1
 192 -128 l 1,24,-1
EndSplineSet
EndChar

StartChar: aogonek
Encoding: 195 261 193
Width: 384
VWidth: 1020
Flags: MW
LayerCount: 2
Fore
SplineSet
64 256 m 1,0,-1
 64 64 l 1,1,-1
 256 64 l 1,2,-1
 256 256 l 1,3,-1
 64 256 l 1,0,-1
64 256 m 1,4,-1
 64 320 l 1,5,-1
 320 320 l 1,6,-1
 320 0 l 1,7,-1
 256 0 l 1,8,-1
 256 -64 l 1,9,-1
 192 -64 l 1,10,-1
 192 0 l 1,11,-1
 64 0 l 1,12,-1
 64 64 l 1,13,-1
 0 64 l 1,14,-1
 0 256 l 1,15,-1
 64 256 l 1,4,-1
192 -64 m 1,16,-1
 192 -128 l 1,17,-1
 128 -128 l 1,18,-1
 128 -64 l 1,19,-1
 192 -64 l 1,16,-1
192 -128 m 1,20,-1
 320 -128 l 1,21,-1
 320 -192 l 1,22,-1
 192 -192 l 1,23,-1
 192 -128 l 1,20,-1
EndSplineSet
EndChar

StartChar: Cacute
Encoding: 196 262 194
Width: 384
VWidth: 1020
Flags: MW
LayerCount: 2
Fore
SplineSet
128 512 m 1,0,-1
 128 576 l 1,1,-1
 192 576 l 1,2,-1
 192 640 l 5,3,-1
 256 640 l 5,4,-1
 256 576 l 1,5,-1
 192 576 l 1,6,-1
 192 512 l 1,7,-1
 128 512 l 1,0,-1
64 384 m 1,8,-1
 64 448 l 1,9,-1
 256 448 l 1,10,-1
 256 384 l 1,11,-1
 64 384 l 1,8,-1
64 384 m 1,12,-1
 64 64 l 1,13,-1
 0 64 l 1,14,-1
 0 384 l 1,15,-1
 64 384 l 1,12,-1
256 64 m 1,16,-1
 256 128 l 1,17,-1
 320 128 l 1,18,-1
 320 64 l 1,19,-1
 256 64 l 1,16,-1
256 64 m 1,20,-1
 256 0 l 1,21,-1
 64 0 l 1,22,-1
 64 64 l 1,23,-1
 256 64 l 1,20,-1
256 384 m 1,24,-1
 320 384 l 1,25,-1
 320 320 l 1,26,-1
 256 320 l 1,27,-1
 256 384 l 1,24,-1
EndSplineSet
EndChar

StartChar: cacute
Encoding: 197 263 195
Width: 384
VWidth: 1020
Flags: MW
LayerCount: 2
Fore
SplineSet
64 320 m 1,0,-1
 320 320 l 1,1,-1
 320 256 l 1,2,-1
 64 256 l 1,3,-1
 64 320 l 1,0,-1
128 384 m 1,4,-1
 128 448 l 1,5,-1
 192 448 l 1,6,-1
 192 512 l 1,7,-1
 256 512 l 1,8,-1
 256 448 l 1,9,-1
 192 448 l 1,10,-1
 192 384 l 1,11,-1
 128 384 l 1,4,-1
64 256 m 1,12,-1
 64 64 l 1,13,-1
 0 64 l 1,14,-1
 0 256 l 1,15,-1
 64 256 l 1,12,-1
64 64 m 1,16,-1
 320 64 l 1,17,-1
 320 0 l 1,18,-1
 64 0 l 1,19,-1
 64 64 l 1,16,-1
EndSplineSet
EndChar

StartChar: Ccircumflex
Encoding: 198 264 196
Width: 384
VWidth: 1020
Flags: MW
LayerCount: 2
Fore
SplineSet
64 512 m 1,0,-1
 64 576 l 1,1,-1
 128 576 l 1,2,-1
 128 640 l 1,3,-1
 192 640 l 1,4,-1
 192 576 l 1,5,-1
 128 576 l 1,6,-1
 128 512 l 1,7,-1
 64 512 l 1,0,-1
64 384 m 1,8,-1
 64 448 l 1,9,-1
 256 448 l 1,10,-1
 256 384 l 1,11,-1
 64 384 l 1,8,-1
64 384 m 1,12,-1
 64 64 l 1,13,-1
 0 64 l 1,14,-1
 0 384 l 1,15,-1
 64 384 l 1,12,-1
256 64 m 1,16,-1
 256 128 l 1,17,-1
 320 128 l 1,18,-1
 320 64 l 1,19,-1
 256 64 l 1,16,-1
256 64 m 1,20,-1
 256 0 l 1,21,-1
 64 0 l 1,22,-1
 64 64 l 1,23,-1
 256 64 l 1,20,-1
192 576 m 1,24,-1
 256 576 l 1,25,-1
 256 512 l 1,26,-1
 192 512 l 1,27,-1
 192 576 l 1,24,-1
256 384 m 1,28,-1
 320 384 l 1,29,-1
 320 320 l 1,30,-1
 256 320 l 1,31,-1
 256 384 l 1,28,-1
EndSplineSet
EndChar

StartChar: ccircumflex
Encoding: 199 265 197
Width: 384
VWidth: 1020
Flags: MW
LayerCount: 2
Fore
SplineSet
64 320 m 1,0,-1
 320 320 l 1,1,-1
 320 256 l 1,2,-1
 64 256 l 1,3,-1
 64 320 l 1,0,-1
64 384 m 1,4,-1
 64 448 l 1,5,-1
 128 448 l 1,6,-1
 128 512 l 1,7,-1
 192 512 l 1,8,-1
 192 448 l 1,9,-1
 128 448 l 1,10,-1
 128 384 l 1,11,-1
 64 384 l 1,4,-1
64 256 m 1,12,-1
 64 64 l 1,13,-1
 0 64 l 1,14,-1
 0 256 l 1,15,-1
 64 256 l 1,12,-1
64 64 m 1,16,-1
 320 64 l 1,17,-1
 320 0 l 1,18,-1
 64 0 l 1,19,-1
 64 64 l 1,16,-1
192 448 m 1,20,-1
 256 448 l 1,21,-1
 256 384 l 1,22,-1
 192 384 l 1,23,-1
 192 448 l 1,20,-1
EndSplineSet
EndChar

StartChar: Cdotaccent
Encoding: 200 266 198
Width: 384
VWidth: 1020
Flags: MW
LayerCount: 2
Fore
SplineSet
128 512 m 1,0,-1
 128 576 l 1,1,-1
 192 576 l 1,2,-1
 192 512 l 1,3,-1
 128 512 l 1,0,-1
64 384 m 1,4,-1
 64 448 l 1,5,-1
 256 448 l 1,6,-1
 256 384 l 1,7,-1
 64 384 l 1,4,-1
64 384 m 1,8,-1
 64 64 l 1,9,-1
 0 64 l 1,10,-1
 0 384 l 1,11,-1
 64 384 l 1,8,-1
256 64 m 1,12,-1
 256 128 l 1,13,-1
 320 128 l 1,14,-1
 320 64 l 1,15,-1
 256 64 l 1,12,-1
256 64 m 1,16,-1
 256 0 l 1,17,-1
 64 0 l 1,18,-1
 64 64 l 1,19,-1
 256 64 l 1,16,-1
256 384 m 1,20,-1
 320 384 l 1,21,-1
 320 320 l 1,22,-1
 256 320 l 1,23,-1
 256 384 l 1,20,-1
EndSplineSet
EndChar

StartChar: cdotaccent
Encoding: 201 267 199
Width: 384
VWidth: 1020
Flags: MW
LayerCount: 2
Fore
SplineSet
64 320 m 1,0,-1
 320 320 l 1,1,-1
 320 256 l 1,2,-1
 64 256 l 1,3,-1
 64 320 l 1,0,-1
128 384 m 1,4,-1
 128 448 l 1,5,-1
 192 448 l 1,6,-1
 192 384 l 1,7,-1
 128 384 l 1,4,-1
64 256 m 1,8,-1
 64 64 l 1,9,-1
 0 64 l 1,10,-1
 0 256 l 1,11,-1
 64 256 l 1,8,-1
64 64 m 1,12,-1
 320 64 l 1,13,-1
 320 0 l 1,14,-1
 64 0 l 1,15,-1
 64 64 l 1,12,-1
EndSplineSet
EndChar

StartChar: Ccaron
Encoding: 202 268 200
Width: 384
VWidth: 1020
Flags: MW
LayerCount: 2
Fore
SplineSet
64 384 m 1,0,-1
 64 448 l 1,1,-1
 256 448 l 1,2,-1
 256 384 l 1,3,-1
 64 384 l 1,0,-1
64 384 m 1,4,-1
 64 64 l 1,5,-1
 0 64 l 1,6,-1
 0 384 l 1,7,-1
 64 384 l 1,4,-1
256 64 m 1,8,-1
 256 128 l 1,9,-1
 320 128 l 1,10,-1
 320 64 l 1,11,-1
 256 64 l 1,8,-1
256 64 m 1,12,-1
 256 0 l 1,13,-1
 64 0 l 1,14,-1
 64 64 l 1,15,-1
 256 64 l 1,12,-1
192 576 m 1,16,-1
 192 640 l 1,17,-1
 256 640 l 1,18,-1
 256 576 l 1,19,-1
 192 576 l 1,16,-1
192 576 m 1,20,-1
 192 512 l 1,21,-1
 128 512 l 1,22,-1
 128 576 l 1,23,-1
 64 576 l 1,24,-1
 64 640 l 1,25,-1
 128 640 l 1,26,-1
 128 576 l 1,27,-1
 192 576 l 1,20,-1
256 384 m 1,28,-1
 320 384 l 1,29,-1
 320 320 l 1,30,-1
 256 320 l 1,31,-1
 256 384 l 1,28,-1
EndSplineSet
EndChar

StartChar: ccaron
Encoding: 203 269 201
Width: 384
VWidth: 1020
Flags: MW
LayerCount: 2
Fore
SplineSet
64 320 m 1,0,-1
 320 320 l 1,1,-1
 320 256 l 1,2,-1
 64 256 l 1,3,-1
 64 320 l 1,0,-1
64 256 m 1,4,-1
 64 64 l 1,5,-1
 0 64 l 1,6,-1
 0 256 l 1,7,-1
 64 256 l 1,4,-1
64 64 m 1,8,-1
 320 64 l 1,9,-1
 320 0 l 1,10,-1
 64 0 l 1,11,-1
 64 64 l 1,8,-1
192 448 m 1,12,-1
 192 512 l 1,13,-1
 256 512 l 1,14,-1
 256 448 l 1,15,-1
 192 448 l 1,12,-1
192 448 m 1,16,-1
 192 384 l 1,17,-1
 128 384 l 1,18,-1
 128 448 l 1,19,-1
 64 448 l 1,20,-1
 64 512 l 1,21,-1
 128 512 l 1,22,-1
 128 448 l 1,23,-1
 192 448 l 1,16,-1
EndSplineSet
EndChar

StartChar: Dcaron
Encoding: 204 270 202
Width: 384
VWidth: 1020
Flags: MW
LayerCount: 2
Fore
SplineSet
256 0 m 1,0,-1
 0 0 l 1,1,-1
 0 448 l 1,2,-1
 256 448 l 1,3,-1
 256 384 l 1,4,-1
 320 384 l 1,5,-1
 320 64 l 1,6,-1
 256 64 l 1,7,-1
 256 0 l 1,0,-1
256 384 m 1,8,-1
 64 384 l 1,9,-1
 64 64 l 1,10,-1
 256 64 l 1,11,-1
 256 384 l 1,8,-1
192 576 m 1,12,-1
 192 640 l 1,13,-1
 256 640 l 1,14,-1
 256 576 l 1,15,-1
 192 576 l 1,12,-1
192 576 m 1,16,-1
 192 512 l 1,17,-1
 128 512 l 1,18,-1
 128 576 l 1,19,-1
 64 576 l 1,20,-1
 64 640 l 1,21,-1
 128 640 l 1,22,-1
 128 576 l 1,23,-1
 192 576 l 1,16,-1
EndSplineSet
EndChar

StartChar: dcaron
Encoding: 205 271 203
Width: 384
VWidth: 1020
Flags: MW
LayerCount: 2
Fore
SplineSet
128 64 m 1,0,-1
 128 256 l 1,1,-1
 64 256 l 1,2,-1
 64 64 l 1,3,-1
 128 64 l 1,0,-1
192 0 m 1,4,-1
 64 0 l 1,5,-1
 64 64 l 1,6,-1
 0 64 l 1,7,-1
 0 256 l 1,8,-1
 64 256 l 1,9,-1
 64 320 l 1,10,-1
 128 320 l 1,11,-1
 128 448 l 1,12,-1
 192 448 l 1,13,-1
 192 320 l 1,14,-1
 256 320 l 1,15,-1
 256 448 l 1,16,-1
 320 448 l 1,17,-1
 320 320 l 1,18,-1
 256 320 l 1,19,-1
 256 256 l 1,20,-1
 192 256 l 1,21,-1
 192 0 l 1,4,-1
EndSplineSet
EndChar

StartChar: Dcroat
Encoding: 206 272 204
Width: 384
VWidth: 1020
Flags: MW
LayerCount: 2
Fore
SplineSet
256 0 m 1,0,-1
 64 0 l 1,1,-1
 64 192 l 1,2,-1
 0 192 l 1,3,-1
 0 256 l 1,4,-1
 64 256 l 1,5,-1
 64 448 l 1,6,-1
 256 448 l 1,7,-1
 256 384 l 1,8,-1
 320 384 l 1,9,-1
 320 64 l 1,10,-1
 256 64 l 1,11,-1
 256 0 l 1,0,-1
256 384 m 1,12,-1
 128 384 l 1,13,-1
 128 256 l 1,14,-1
 192 256 l 1,15,-1
 192 192 l 1,16,-1
 128 192 l 1,17,-1
 128 64 l 1,18,-1
 256 64 l 1,19,-1
 256 384 l 1,12,-1
EndSplineSet
EndChar

StartChar: dcroat
Encoding: 207 273 205
Width: 384
VWidth: 1020
Flags: MW
LayerCount: 2
Fore
SplineSet
192 64 m 1,0,-1
 192 256 l 1,1,-1
 64 256 l 1,2,-1
 64 64 l 1,3,-1
 192 64 l 1,0,-1
256 0 m 1,4,-1
 64 0 l 1,5,-1
 64 64 l 1,6,-1
 0 64 l 1,7,-1
 0 256 l 1,8,-1
 64 256 l 1,9,-1
 64 320 l 1,10,-1
 192 320 l 1,11,-1
 192 384 l 1,12,-1
 128 384 l 1,13,-1
 128 448 l 1,14,-1
 320 448 l 1,15,-1
 320 384 l 1,16,-1
 256 384 l 1,17,-1
 256 0 l 1,4,-1
EndSplineSet
EndChar

StartChar: Emacron
Encoding: 208 274 206
Width: 384
VWidth: 1020
Flags: MW
LayerCount: 2
Fore
SplineSet
64 576 m 1,0,-1
 256 576 l 1,1,-1
 256 512 l 1,2,-1
 64 512 l 1,3,-1
 64 576 l 1,0,-1
64 64 m 1,4,-1
 320 64 l 1,5,-1
 320 0 l 1,6,-1
 0 0 l 1,7,-1
 0 448 l 1,8,-1
 320 448 l 1,9,-1
 320 384 l 1,10,-1
 64 384 l 1,11,-1
 64 256 l 1,12,-1
 256 256 l 1,13,-1
 256 192 l 1,14,-1
 64 192 l 1,15,-1
 64 64 l 1,4,-1
EndSplineSet
EndChar

StartChar: emacron
Encoding: 209 275 207
Width: 384
VWidth: 1020
Flags: MW
LayerCount: 2
Fore
SplineSet
64 448 m 1,0,-1
 256 448 l 1,1,-1
 256 384 l 1,2,-1
 64 384 l 1,3,-1
 64 448 l 1,0,-1
256 256 m 1,4,-1
 64 256 l 1,5,-1
 64 320 l 1,6,-1
 256 320 l 1,7,-1
 256 256 l 1,4,-1
256 256 m 1,8,-1
 320 256 l 1,9,-1
 320 128 l 1,10,-1
 64 128 l 1,11,-1
 64 64 l 1,12,-1
 0 64 l 1,13,-1
 0 256 l 1,14,-1
 64 256 l 1,15,-1
 64 192 l 1,16,-1
 256 192 l 1,17,-1
 256 256 l 1,8,-1
64 64 m 1,18,-1
 320 64 l 1,19,-1
 320 0 l 1,20,-1
 64 0 l 1,21,-1
 64 64 l 1,18,-1
EndSplineSet
EndChar

StartChar: Ebreve
Encoding: 210 276 208
Width: 384
VWidth: 1020
Flags: MW
LayerCount: 2
Fore
SplineSet
64 64 m 1,0,-1
 320 64 l 1,1,-1
 320 0 l 1,2,-1
 0 0 l 1,3,-1
 0 448 l 1,4,-1
 320 448 l 1,5,-1
 320 384 l 1,6,-1
 64 384 l 1,7,-1
 64 256 l 1,8,-1
 256 256 l 1,9,-1
 256 192 l 1,10,-1
 64 192 l 1,11,-1
 64 64 l 1,0,-1
256 576 m 1,12,-1
 256 640 l 1,13,-1
 320 640 l 1,14,-1
 320 576 l 1,15,-1
 256 576 l 1,12,-1
256 576 m 1,16,-1
 256 512 l 1,17,-1
 128 512 l 1,18,-1
 128 576 l 1,19,-1
 64 576 l 1,20,-1
 64 640 l 1,21,-1
 128 640 l 1,22,-1
 128 576 l 1,23,-1
 256 576 l 1,16,-1
EndSplineSet
EndChar

StartChar: ebreve
Encoding: 211 277 209
Width: 384
VWidth: 1020
Flags: MW
LayerCount: 2
Fore
SplineSet
256 448 m 1,0,-1
 256 512 l 1,1,-1
 320 512 l 1,2,-1
 320 448 l 1,3,-1
 256 448 l 1,0,-1
256 448 m 1,4,-1
 256 384 l 1,5,-1
 128 384 l 1,6,-1
 128 448 l 1,7,-1
 64 448 l 1,8,-1
 64 512 l 1,9,-1
 128 512 l 1,10,-1
 128 448 l 1,11,-1
 256 448 l 1,4,-1
256 256 m 1,12,-1
 64 256 l 1,13,-1
 64 320 l 1,14,-1
 256 320 l 1,15,-1
 256 256 l 1,12,-1
256 256 m 1,16,-1
 320 256 l 1,17,-1
 320 128 l 1,18,-1
 64 128 l 1,19,-1
 64 64 l 1,20,-1
 0 64 l 1,21,-1
 0 256 l 1,22,-1
 64 256 l 1,23,-1
 64 192 l 1,24,-1
 256 192 l 1,25,-1
 256 256 l 1,16,-1
64 64 m 1,26,-1
 320 64 l 1,27,-1
 320 0 l 1,28,-1
 64 0 l 1,29,-1
 64 64 l 1,26,-1
EndSplineSet
EndChar

StartChar: Edotaccent
Encoding: 212 278 210
Width: 384
VWidth: 1020
Flags: MW
LayerCount: 2
Fore
SplineSet
64 64 m 1,0,-1
 320 64 l 1,1,-1
 320 0 l 1,2,-1
 0 0 l 1,3,-1
 0 448 l 1,4,-1
 320 448 l 1,5,-1
 320 384 l 1,6,-1
 64 384 l 1,7,-1
 64 256 l 1,8,-1
 256 256 l 1,9,-1
 256 192 l 1,10,-1
 64 192 l 1,11,-1
 64 64 l 1,0,-1
128 512 m 1,12,-1
 128 576 l 1,13,-1
 192 576 l 1,14,-1
 192 512 l 1,15,-1
 128 512 l 1,12,-1
EndSplineSet
EndChar

StartChar: edotaccent
Encoding: 213 279 211
Width: 384
VWidth: 1020
Flags: MW
LayerCount: 2
Fore
SplineSet
128 384 m 1,0,-1
 128 448 l 1,1,-1
 192 448 l 1,2,-1
 192 384 l 1,3,-1
 128 384 l 1,0,-1
256 256 m 1,4,-1
 64 256 l 1,5,-1
 64 320 l 1,6,-1
 256 320 l 1,7,-1
 256 256 l 1,4,-1
256 256 m 1,8,-1
 320 256 l 1,9,-1
 320 128 l 1,10,-1
 64 128 l 1,11,-1
 64 64 l 1,12,-1
 0 64 l 1,13,-1
 0 256 l 1,14,-1
 64 256 l 1,15,-1
 64 192 l 1,16,-1
 256 192 l 1,17,-1
 256 256 l 1,8,-1
64 64 m 1,18,-1
 320 64 l 1,19,-1
 320 0 l 1,20,-1
 64 0 l 1,21,-1
 64 64 l 1,18,-1
EndSplineSet
EndChar

StartChar: Eogonek
Encoding: 214 280 212
Width: 384
VWidth: 1020
Flags: MW
LayerCount: 2
Fore
SplineSet
192 -64 m 1,0,-1
 192 0 l 1,1,-1
 0 0 l 1,2,-1
 0 448 l 5,3,-1
 320 448 l 5,4,-1
 320 384 l 1,5,-1
 64 384 l 1,6,-1
 64 256 l 1,7,-1
 256 256 l 1,8,-1
 256 192 l 1,9,-1
 64 192 l 1,10,-1
 64 64 l 1,11,-1
 320 64 l 1,12,-1
 320 0 l 1,13,-1
 256 0 l 1,14,-1
 256 -64 l 1,15,-1
 192 -64 l 1,0,-1
192 -64 m 1,16,-1
 192 -128 l 1,17,-1
 128 -128 l 1,18,-1
 128 -64 l 1,19,-1
 192 -64 l 1,16,-1
192 -128 m 1,20,-1
 320 -128 l 1,21,-1
 320 -192 l 1,22,-1
 192 -192 l 1,23,-1
 192 -128 l 1,20,-1
EndSplineSet
EndChar

StartChar: eogonek
Encoding: 215 281 213
Width: 384
VWidth: 1020
Flags: MW
LayerCount: 2
Fore
SplineSet
256 256 m 1,0,-1
 64 256 l 1,1,-1
 64 320 l 1,2,-1
 256 320 l 1,3,-1
 256 256 l 1,0,-1
256 256 m 1,4,-1
 320 256 l 1,5,-1
 320 128 l 1,6,-1
 64 128 l 1,7,-1
 64 64 l 1,8,-1
 0 64 l 1,9,-1
 0 256 l 1,10,-1
 64 256 l 1,11,-1
 64 192 l 1,12,-1
 256 192 l 1,13,-1
 256 256 l 1,4,-1
64 64 m 1,14,-1
 320 64 l 1,15,-1
 320 0 l 1,16,-1
 256 0 l 1,17,-1
 256 -64 l 1,18,-1
 192 -64 l 1,19,-1
 192 0 l 1,20,-1
 64 0 l 1,21,-1
 64 64 l 1,14,-1
192 -64 m 1,22,-1
 192 -128 l 1,23,-1
 128 -128 l 1,24,-1
 128 -64 l 1,25,-1
 192 -64 l 1,22,-1
192 -128 m 1,26,-1
 320 -128 l 1,27,-1
 320 -192 l 1,28,-1
 192 -192 l 1,29,-1
 192 -128 l 1,26,-1
EndSplineSet
EndChar

StartChar: Ecaron
Encoding: 216 282 214
Width: 384
VWidth: 1020
Flags: MW
LayerCount: 2
Fore
SplineSet
64 64 m 1,0,-1
 320 64 l 1,1,-1
 320 0 l 1,2,-1
 0 0 l 1,3,-1
 0 448 l 1,4,-1
 320 448 l 1,5,-1
 320 384 l 1,6,-1
 64 384 l 1,7,-1
 64 256 l 1,8,-1
 256 256 l 1,9,-1
 256 192 l 1,10,-1
 64 192 l 1,11,-1
 64 64 l 1,0,-1
192 576 m 1,12,-1
 192 640 l 1,13,-1
 256 640 l 1,14,-1
 256 576 l 1,15,-1
 192 576 l 1,12,-1
192 576 m 1,16,-1
 192 512 l 1,17,-1
 128 512 l 1,18,-1
 128 576 l 1,19,-1
 64 576 l 1,20,-1
 64 640 l 1,21,-1
 128 640 l 1,22,-1
 128 576 l 1,23,-1
 192 576 l 1,16,-1
EndSplineSet
EndChar

StartChar: ecaron
Encoding: 217 283 215
Width: 384
VWidth: 1020
Flags: MW
LayerCount: 2
Fore
SplineSet
256 256 m 1,0,-1
 64 256 l 1,1,-1
 64 320 l 1,2,-1
 256 320 l 1,3,-1
 256 256 l 1,0,-1
256 256 m 1,4,-1
 320 256 l 1,5,-1
 320 128 l 1,6,-1
 64 128 l 1,7,-1
 64 64 l 1,8,-1
 0 64 l 1,9,-1
 0 256 l 1,10,-1
 64 256 l 1,11,-1
 64 192 l 1,12,-1
 256 192 l 1,13,-1
 256 256 l 1,4,-1
64 64 m 1,14,-1
 320 64 l 1,15,-1
 320 0 l 1,16,-1
 64 0 l 1,17,-1
 64 64 l 1,14,-1
192 448 m 1,18,-1
 192 512 l 1,19,-1
 256 512 l 1,20,-1
 256 448 l 1,21,-1
 192 448 l 1,18,-1
192 448 m 1,22,-1
 192 384 l 1,23,-1
 128 384 l 1,24,-1
 128 448 l 1,25,-1
 64 448 l 1,26,-1
 64 512 l 1,27,-1
 128 512 l 1,28,-1
 128 448 l 1,29,-1
 192 448 l 1,22,-1
EndSplineSet
EndChar

StartChar: Gcircumflex
Encoding: 218 284 216
Width: 384
VWidth: 1020
Flags: MW
LayerCount: 2
Fore
SplineSet
64 448 m 1,0,-1
 320 448 l 1,1,-1
 320 384 l 1,2,-1
 64 384 l 1,3,-1
 64 448 l 1,0,-1
320 0 m 1,4,-1
 64 0 l 1,5,-1
 64 64 l 1,6,-1
 0 64 l 1,7,-1
 0 384 l 1,8,-1
 64 384 l 1,9,-1
 64 64 l 1,10,-1
 256 64 l 1,11,-1
 256 192 l 1,12,-1
 192 192 l 1,13,-1
 192 256 l 1,14,-1
 320 256 l 1,15,-1
 320 0 l 1,4,-1
64 512 m 1,16,-1
 64 576 l 1,17,-1
 128 576 l 1,18,-1
 128 640 l 1,19,-1
 192 640 l 1,20,-1
 192 576 l 1,21,-1
 128 576 l 1,22,-1
 128 512 l 1,23,-1
 64 512 l 1,16,-1
192 576 m 1,24,-1
 256 576 l 1,25,-1
 256 512 l 1,26,-1
 192 512 l 1,27,-1
 192 576 l 1,24,-1
EndSplineSet
EndChar

StartChar: gcircumflex
Encoding: 219 285 217
Width: 384
VWidth: 1020
Flags: MW
LayerCount: 2
Fore
SplineSet
64 384 m 1,0,-1
 64 448 l 1,1,-1
 128 448 l 1,2,-1
 128 512 l 1,3,-1
 192 512 l 1,4,-1
 192 448 l 1,5,-1
 128 448 l 1,6,-1
 128 384 l 1,7,-1
 64 384 l 1,0,-1
64 256 m 1,8,-1
 64 64 l 1,9,-1
 256 64 l 1,10,-1
 256 256 l 1,11,-1
 64 256 l 1,8,-1
64 256 m 1,12,-1
 64 320 l 1,13,-1
 320 320 l 1,14,-1
 320 -64 l 1,15,-1
 256 -64 l 1,16,-1
 256 0 l 1,17,-1
 64 0 l 1,18,-1
 64 64 l 1,19,-1
 0 64 l 1,20,-1
 0 256 l 1,21,-1
 64 256 l 1,12,-1
256 -64 m 1,22,-1
 256 -128 l 1,23,-1
 64 -128 l 1,24,-1
 64 -64 l 1,25,-1
 256 -64 l 1,22,-1
192 448 m 1,26,-1
 256 448 l 1,27,-1
 256 384 l 1,28,-1
 192 384 l 1,29,-1
 192 448 l 1,26,-1
EndSplineSet
EndChar

StartChar: Gbreve
Encoding: 220 286 218
Width: 384
VWidth: 1020
Flags: MW
LayerCount: 2
Fore
SplineSet
64 448 m 1,0,-1
 320 448 l 1,1,-1
 320 384 l 1,2,-1
 64 384 l 1,3,-1
 64 448 l 1,0,-1
320 0 m 1,4,-1
 64 0 l 1,5,-1
 64 64 l 1,6,-1
 0 64 l 1,7,-1
 0 384 l 1,8,-1
 64 384 l 1,9,-1
 64 64 l 1,10,-1
 256 64 l 1,11,-1
 256 192 l 1,12,-1
 192 192 l 1,13,-1
 192 256 l 1,14,-1
 320 256 l 1,15,-1
 320 0 l 1,4,-1
256 576 m 1,16,-1
 256 640 l 1,17,-1
 320 640 l 1,18,-1
 320 576 l 1,19,-1
 256 576 l 1,16,-1
256 576 m 1,20,-1
 256 512 l 1,21,-1
 128 512 l 1,22,-1
 128 576 l 1,23,-1
 64 576 l 1,24,-1
 64 640 l 1,25,-1
 128 640 l 1,26,-1
 128 576 l 1,27,-1
 256 576 l 1,20,-1
EndSplineSet
EndChar

StartChar: gbreve
Encoding: 221 287 219
Width: 384
VWidth: 1020
Flags: MW
LayerCount: 2
Fore
SplineSet
256 448 m 1,0,-1
 256 512 l 1,1,-1
 320 512 l 1,2,-1
 320 448 l 1,3,-1
 256 448 l 1,0,-1
256 448 m 1,4,-1
 256 384 l 1,5,-1
 128 384 l 1,6,-1
 128 448 l 1,7,-1
 64 448 l 1,8,-1
 64 512 l 1,9,-1
 128 512 l 1,10,-1
 128 448 l 1,11,-1
 256 448 l 1,4,-1
64 256 m 1,12,-1
 64 64 l 1,13,-1
 256 64 l 1,14,-1
 256 256 l 1,15,-1
 64 256 l 1,12,-1
64 256 m 1,16,-1
 64 320 l 1,17,-1
 320 320 l 1,18,-1
 320 -64 l 1,19,-1
 256 -64 l 1,20,-1
 256 0 l 1,21,-1
 64 0 l 1,22,-1
 64 64 l 1,23,-1
 0 64 l 1,24,-1
 0 256 l 1,25,-1
 64 256 l 1,16,-1
256 -64 m 1,26,-1
 256 -128 l 1,27,-1
 64 -128 l 1,28,-1
 64 -64 l 1,29,-1
 256 -64 l 1,26,-1
EndSplineSet
EndChar

StartChar: Gdotaccent
Encoding: 222 288 220
Width: 384
VWidth: 1020
Flags: MW
LayerCount: 2
Fore
SplineSet
64 448 m 1,0,-1
 320 448 l 1,1,-1
 320 384 l 1,2,-1
 64 384 l 1,3,-1
 64 448 l 1,0,-1
320 0 m 1,4,-1
 64 0 l 1,5,-1
 64 64 l 1,6,-1
 0 64 l 1,7,-1
 0 384 l 1,8,-1
 64 384 l 1,9,-1
 64 64 l 1,10,-1
 256 64 l 1,11,-1
 256 192 l 1,12,-1
 192 192 l 1,13,-1
 192 256 l 1,14,-1
 320 256 l 1,15,-1
 320 0 l 1,4,-1
128 512 m 1,16,-1
 128 576 l 1,17,-1
 192 576 l 1,18,-1
 192 512 l 1,19,-1
 128 512 l 1,16,-1
EndSplineSet
EndChar

StartChar: gdotaccent
Encoding: 223 289 221
Width: 384
VWidth: 1020
Flags: MW
LayerCount: 2
Fore
SplineSet
128 384 m 1,0,-1
 128 448 l 1,1,-1
 192 448 l 1,2,-1
 192 384 l 1,3,-1
 128 384 l 1,0,-1
64 256 m 1,4,-1
 64 64 l 1,5,-1
 256 64 l 1,6,-1
 256 256 l 1,7,-1
 64 256 l 1,4,-1
64 256 m 1,8,-1
 64 320 l 1,9,-1
 320 320 l 1,10,-1
 320 -64 l 1,11,-1
 256 -64 l 1,12,-1
 256 0 l 1,13,-1
 64 0 l 1,14,-1
 64 64 l 1,15,-1
 0 64 l 1,16,-1
 0 256 l 1,17,-1
 64 256 l 1,8,-1
256 -64 m 1,18,-1
 256 -128 l 1,19,-1
 64 -128 l 1,20,-1
 64 -64 l 1,21,-1
 256 -64 l 1,18,-1
EndSplineSet
EndChar

StartChar: Gcommaaccent
Encoding: 224 290 222
Width: 384
VWidth: 1020
Flags: MW
LayerCount: 2
Fore
SplineSet
64 448 m 1,0,-1
 320 448 l 1,1,-1
 320 384 l 1,2,-1
 64 384 l 1,3,-1
 64 448 l 1,0,-1
320 0 m 1,4,-1
 64 0 l 1,5,-1
 64 64 l 1,6,-1
 0 64 l 1,7,-1
 0 384 l 1,8,-1
 64 384 l 1,9,-1
 64 64 l 1,10,-1
 256 64 l 1,11,-1
 256 192 l 1,12,-1
 192 192 l 1,13,-1
 192 256 l 1,14,-1
 320 256 l 1,15,-1
 320 0 l 1,4,-1
64 -192 m 1,16,-1
 64 -128 l 1,17,-1
 128 -128 l 1,18,-1
 128 -64 l 1,19,-1
 192 -64 l 1,20,-1
 192 -128 l 1,21,-1
 128 -128 l 1,22,-1
 128 -192 l 1,23,-1
 64 -192 l 1,16,-1
EndSplineSet
EndChar

StartChar: gcommaaccent
Encoding: 225 291 223
Width: 384
VWidth: 1020
Flags: MW
LayerCount: 2
Fore
SplineSet
128 384 m 1,0,-1
 128 448 l 1,1,-1
 192 448 l 1,2,-1
 192 512 l 1,3,-1
 256 512 l 1,4,-1
 256 448 l 1,5,-1
 192 448 l 1,6,-1
 192 384 l 1,7,-1
 128 384 l 1,0,-1
64 256 m 1,8,-1
 64 64 l 1,9,-1
 256 64 l 1,10,-1
 256 256 l 1,11,-1
 64 256 l 1,8,-1
64 256 m 1,12,-1
 64 320 l 1,13,-1
 320 320 l 1,14,-1
 320 -64 l 1,15,-1
 256 -64 l 1,16,-1
 256 0 l 1,17,-1
 64 0 l 1,18,-1
 64 64 l 1,19,-1
 0 64 l 1,20,-1
 0 256 l 1,21,-1
 64 256 l 1,12,-1
256 -64 m 1,22,-1
 256 -128 l 1,23,-1
 64 -128 l 1,24,-1
 64 -64 l 1,25,-1
 256 -64 l 1,22,-1
EndSplineSet
EndChar

StartChar: Hcircumflex
Encoding: 226 292 224
Width: 384
VWidth: 1020
Flags: MW
LayerCount: 2
Fore
SplineSet
64 512 m 1,0,-1
 64 576 l 1,1,-1
 128 576 l 1,2,-1
 128 640 l 1,3,-1
 192 640 l 1,4,-1
 192 576 l 1,5,-1
 128 576 l 1,6,-1
 128 512 l 1,7,-1
 64 512 l 1,0,-1
256 0 m 1,8,-1
 256 192 l 1,9,-1
 64 192 l 1,10,-1
 64 0 l 1,11,-1
 0 0 l 1,12,-1
 0 448 l 1,13,-1
 64 448 l 1,14,-1
 64 256 l 1,15,-1
 256 256 l 1,16,-1
 256 448 l 1,17,-1
 320 448 l 1,18,-1
 320 0 l 1,19,-1
 256 0 l 1,8,-1
192 576 m 1,20,-1
 256 576 l 1,21,-1
 256 512 l 1,22,-1
 192 512 l 1,23,-1
 192 576 l 1,20,-1
EndSplineSet
EndChar

StartChar: hcircumflex
Encoding: 227 293 225
Width: 384
VWidth: 1020
Flags: MW
LayerCount: 2
Fore
SplineSet
-64 512 m 1,0,-1
 -64 576 l 1,1,-1
 0 576 l 1,2,-1
 0 640 l 1,3,-1
 64 640 l 1,4,-1
 64 576 l 1,5,-1
 0 576 l 1,6,-1
 0 512 l 1,7,-1
 -64 512 l 1,0,-1
0 0 m 1,8,-1
 0 448 l 1,9,-1
 64 448 l 1,10,-1
 64 320 l 1,11,-1
 256 320 l 1,12,-1
 256 256 l 1,13,-1
 64 256 l 1,14,-1
 64 0 l 1,15,-1
 0 0 l 1,8,-1
64 576 m 1,16,-1
 128 576 l 1,17,-1
 128 512 l 1,18,-1
 64 512 l 1,19,-1
 64 576 l 1,16,-1
256 256 m 1,20,-1
 320 256 l 1,21,-1
 320 0 l 1,22,-1
 256 0 l 1,23,-1
 256 256 l 1,20,-1
EndSplineSet
EndChar

StartChar: Hbar
Encoding: 228 294 226
Width: 384
VWidth: 1020
Flags: MW
LayerCount: 2
Fore
SplineSet
192 256 m 1,0,-1
 192 320 l 1,1,-1
 128 320 l 1,2,-1
 128 256 l 1,3,-1
 192 256 l 1,0,-1
192 0 m 1,4,-1
 192 192 l 1,5,-1
 128 192 l 1,6,-1
 128 0 l 1,7,-1
 64 0 l 1,8,-1
 64 320 l 1,9,-1
 0 320 l 1,10,-1
 0 384 l 1,11,-1
 64 384 l 1,12,-1
 64 448 l 1,13,-1
 128 448 l 1,14,-1
 128 384 l 1,15,-1
 192 384 l 1,16,-1
 192 448 l 1,17,-1
 256 448 l 1,18,-1
 256 384 l 1,19,-1
 320 384 l 1,20,-1
 320 320 l 1,21,-1
 256 320 l 1,22,-1
 256 0 l 1,23,-1
 192 0 l 1,4,-1
EndSplineSet
EndChar

StartChar: hbar
Encoding: 229 295 227
Width: 384
VWidth: 1020
Flags: MW
LayerCount: 2
Fore
SplineSet
64 0 m 1,0,-1
 64 384 l 1,1,-1
 0 384 l 1,2,-1
 0 448 l 1,3,-1
 192 448 l 1,4,-1
 192 384 l 1,5,-1
 128 384 l 1,6,-1
 128 320 l 1,7,-1
 256 320 l 1,8,-1
 256 256 l 1,9,-1
 128 256 l 1,10,-1
 128 0 l 1,11,-1
 64 0 l 1,0,-1
256 256 m 1,12,-1
 320 256 l 1,13,-1
 320 0 l 1,14,-1
 256 0 l 1,15,-1
 256 256 l 1,12,-1
EndSplineSet
EndChar

StartChar: Itilde
Encoding: 230 296 228
Width: 384
VWidth: 1020
Flags: MW
LayerCount: 2
Fore
SplineSet
256 512 m 1,0,-1
 128 512 l 1,1,-1
 128 576 l 1,2,-1
 64 576 l 1,3,-1
 64 640 l 1,4,-1
 192 640 l 1,5,-1
 192 576 l 1,6,-1
 256 576 l 1,7,-1
 256 640 l 1,8,-1
 320 640 l 1,9,-1
 320 576 l 1,10,-1
 256 576 l 1,11,-1
 256 512 l 1,0,-1
256 0 m 1,12,-1
 64 0 l 1,13,-1
 64 64 l 1,14,-1
 128 64 l 1,15,-1
 128 384 l 1,16,-1
 64 384 l 1,17,-1
 64 448 l 1,18,-1
 256 448 l 1,19,-1
 256 384 l 1,20,-1
 192 384 l 1,21,-1
 192 64 l 1,22,-1
 256 64 l 1,23,-1
 256 0 l 1,12,-1
0 512 m 1,24,-1
 0 576 l 1,25,-1
 64 576 l 1,26,-1
 64 512 l 1,27,-1
 0 512 l 1,24,-1
EndSplineSet
EndChar

StartChar: itilde
Encoding: 231 297 229
Width: 384
VWidth: 1020
Flags: MW
LayerCount: 2
Fore
SplineSet
256 384 m 1,0,-1
 128 384 l 1,1,-1
 128 448 l 1,2,-1
 64 448 l 1,3,-1
 64 512 l 1,4,-1
 192 512 l 1,5,-1
 192 448 l 1,6,-1
 256 448 l 1,7,-1
 256 512 l 1,8,-1
 320 512 l 1,9,-1
 320 448 l 1,10,-1
 256 448 l 1,11,-1
 256 384 l 1,0,-1
0 384 m 1,12,-1
 0 448 l 1,13,-1
 64 448 l 1,14,-1
 64 384 l 1,15,-1
 0 384 l 1,12,-1
128 0 m 1,16,-1
 128 256 l 1,17,-1
 64 256 l 1,18,-1
 64 320 l 1,19,-1
 192 320 l 1,20,-1
 192 0 l 1,21,-1
 128 0 l 1,16,-1
EndSplineSet
EndChar

StartChar: Imacron
Encoding: 232 298 230
Width: 384
VWidth: 1020
Flags: MW
LayerCount: 2
Fore
SplineSet
64 576 m 1,0,-1
 256 576 l 1,1,-1
 256 512 l 1,2,-1
 64 512 l 1,3,-1
 64 576 l 1,0,-1
256 0 m 1,4,-1
 64 0 l 1,5,-1
 64 64 l 1,6,-1
 128 64 l 1,7,-1
 128 384 l 1,8,-1
 64 384 l 1,9,-1
 64 448 l 1,10,-1
 256 448 l 1,11,-1
 256 384 l 1,12,-1
 192 384 l 1,13,-1
 192 64 l 1,14,-1
 256 64 l 1,15,-1
 256 0 l 1,4,-1
EndSplineSet
EndChar

StartChar: imacron
Encoding: 233 299 231
Width: 384
VWidth: 1020
Flags: MW
LayerCount: 2
Fore
SplineSet
64 448 m 1,0,-1
 256 448 l 1,1,-1
 256 384 l 1,2,-1
 64 384 l 1,3,-1
 64 448 l 1,0,-1
128 0 m 1,4,-1
 128 256 l 1,5,-1
 64 256 l 1,6,-1
 64 320 l 1,7,-1
 192 320 l 1,8,-1
 192 0 l 1,9,-1
 128 0 l 1,4,-1
EndSplineSet
EndChar

StartChar: Ibreve
Encoding: 234 300 232
Width: 384
VWidth: 1020
Flags: MW
LayerCount: 2
Fore
SplineSet
256 0 m 1,0,-1
 64 0 l 1,1,-1
 64 64 l 1,2,-1
 128 64 l 1,3,-1
 128 384 l 1,4,-1
 64 384 l 1,5,-1
 64 448 l 1,6,-1
 256 448 l 1,7,-1
 256 384 l 1,8,-1
 192 384 l 1,9,-1
 192 64 l 1,10,-1
 256 64 l 1,11,-1
 256 0 l 1,0,-1
256 576 m 1,12,-1
 256 640 l 1,13,-1
 320 640 l 1,14,-1
 320 576 l 1,15,-1
 256 576 l 1,12,-1
256 576 m 1,16,-1
 256 512 l 1,17,-1
 128 512 l 1,18,-1
 128 576 l 1,19,-1
 64 576 l 1,20,-1
 64 640 l 1,21,-1
 128 640 l 1,22,-1
 128 576 l 1,23,-1
 256 576 l 1,16,-1
EndSplineSet
EndChar

StartChar: ibreve
Encoding: 235 301 233
Width: 384
VWidth: 1020
Flags: MW
LayerCount: 2
Fore
SplineSet
128 0 m 1,0,-1
 128 256 l 1,1,-1
 64 256 l 1,2,-1
 64 320 l 1,3,-1
 192 320 l 1,4,-1
 192 0 l 1,5,-1
 128 0 l 1,0,-1
192 448 m 1,6,-1
 192 512 l 1,7,-1
 256 512 l 1,8,-1
 256 448 l 1,9,-1
 192 448 l 1,6,-1
192 448 m 1,10,-1
 192 384 l 1,11,-1
 64 384 l 1,12,-1
 64 448 l 1,13,-1
 0 448 l 1,14,-1
 0 512 l 1,15,-1
 64 512 l 1,16,-1
 64 448 l 1,17,-1
 192 448 l 1,10,-1
EndSplineSet
EndChar

StartChar: Iogonek
Encoding: 236 302 234
Width: 384
VWidth: 1020
Flags: MW
LayerCount: 2
Fore
SplineSet
128 -64 m 1,0,-1
 128 0 l 1,1,-1
 64 0 l 1,2,-1
 64 64 l 1,3,-1
 128 64 l 1,4,-1
 128 384 l 1,5,-1
 64 384 l 1,6,-1
 64 448 l 1,7,-1
 256 448 l 1,8,-1
 256 384 l 1,9,-1
 192 384 l 1,10,-1
 192 64 l 1,11,-1
 256 64 l 1,12,-1
 256 0 l 1,13,-1
 192 0 l 1,14,-1
 192 -64 l 1,15,-1
 128 -64 l 1,0,-1
128 -64 m 1,16,-1
 128 -128 l 1,17,-1
 64 -128 l 1,18,-1
 64 -64 l 1,19,-1
 128 -64 l 1,16,-1
128 -128 m 1,20,-1
 256 -128 l 1,21,-1
 256 -192 l 1,22,-1
 128 -192 l 1,23,-1
 128 -128 l 1,20,-1
EndSplineSet
EndChar

StartChar: iogonek
Encoding: 237 303 235
Width: 384
VWidth: 1020
Flags: MW
LayerCount: 2
Fore
SplineSet
128 384 m 1,0,-1
 128 448 l 1,1,-1
 192 448 l 1,2,-1
 192 384 l 1,3,-1
 128 384 l 1,0,-1
128 -64 m 1,4,-1
 128 256 l 1,5,-1
 64 256 l 1,6,-1
 64 320 l 1,7,-1
 192 320 l 1,8,-1
 192 -64 l 1,9,-1
 128 -64 l 1,4,-1
128 -64 m 1,10,-1
 128 -128 l 1,11,-1
 64 -128 l 1,12,-1
 64 -64 l 1,13,-1
 128 -64 l 1,10,-1
128 -128 m 1,14,-1
 256 -128 l 1,15,-1
 256 -192 l 1,16,-1
 128 -192 l 1,17,-1
 128 -128 l 1,14,-1
EndSplineSet
EndChar

StartChar: Idotaccent
Encoding: 238 304 236
Width: 384
VWidth: 1020
Flags: MW
LayerCount: 2
Fore
SplineSet
256 0 m 1,0,-1
 64 0 l 1,1,-1
 64 64 l 1,2,-1
 128 64 l 1,3,-1
 128 384 l 1,4,-1
 64 384 l 1,5,-1
 64 448 l 1,6,-1
 256 448 l 1,7,-1
 256 384 l 1,8,-1
 192 384 l 1,9,-1
 192 64 l 1,10,-1
 256 64 l 1,11,-1
 256 0 l 1,0,-1
64 512 m 1,12,-1
 64 576 l 1,13,-1
 128 576 l 1,14,-1
 128 512 l 1,15,-1
 64 512 l 1,12,-1
EndSplineSet
EndChar

StartChar: dotlessi
Encoding: 239 305 237
Width: 384
VWidth: 1020
Flags: MW
LayerCount: 2
Fore
SplineSet
128 0 m 1,0,-1
 128 256 l 1,1,-1
 64 256 l 1,2,-1
 64 320 l 1,3,-1
 192 320 l 1,4,-1
 192 0 l 1,5,-1
 128 0 l 1,0,-1
EndSplineSet
EndChar

StartChar: IJ
Encoding: 240 306 238
Width: 384
VWidth: 1020
Flags: MW
LayerCount: 2
Fore
SplineSet
0 192 m 1,0,-1
 0 448 l 1,1,-1
 64 448 l 1,2,-1
 64 192 l 1,3,-1
 0 192 l 1,0,-1
256 64 m 1,4,-1
 256 448 l 1,5,-1
 320 448 l 1,6,-1
 320 64 l 1,7,-1
 256 64 l 1,4,-1
256 64 m 1,8,-1
 256 0 l 1,9,-1
 64 0 l 1,10,-1
 64 64 l 1,11,-1
 0 64 l 1,12,-1
 0 128 l 1,13,-1
 64 128 l 1,14,-1
 64 64 l 1,15,-1
 256 64 l 1,8,-1
EndSplineSet
EndChar

StartChar: ij
Encoding: 241 307 239
Width: 384
VWidth: 1020
Flags: MW
LayerCount: 2
Fore
SplineSet
64 384 m 1,0,-1
 64 448 l 1,1,-1
 128 448 l 1,2,-1
 128 384 l 1,3,-1
 64 384 l 1,0,-1
256 384 m 1,4,-1
 256 448 l 1,5,-1
 320 448 l 1,6,-1
 320 384 l 1,7,-1
 256 384 l 1,4,-1
64 0 m 1,8,-1
 64 256 l 1,9,-1
 0 256 l 1,10,-1
 0 320 l 1,11,-1
 128 320 l 1,12,-1
 128 0 l 1,13,-1
 64 0 l 1,8,-1
256 -64 m 1,14,-1
 256 256 l 1,15,-1
 192 256 l 1,16,-1
 192 320 l 1,17,-1
 320 320 l 1,18,-1
 320 -64 l 1,19,-1
 256 -64 l 1,14,-1
256 -64 m 1,20,-1
 256 -128 l 1,21,-1
 128 -128 l 1,22,-1
 128 -64 l 1,23,-1
 256 -64 l 1,20,-1
EndSplineSet
EndChar

StartChar: Jcircumflex
Encoding: 242 308 240
Width: 384
VWidth: 1020
Flags: MW
LayerCount: 2
Fore
SplineSet
192 512 m 1,0,-1
 192 576 l 1,1,-1
 256 576 l 1,2,-1
 256 640 l 1,3,-1
 320 640 l 1,4,-1
 320 576 l 1,5,-1
 256 576 l 1,6,-1
 256 512 l 1,7,-1
 192 512 l 1,0,-1
256 64 m 1,8,-1
 256 448 l 1,9,-1
 320 448 l 1,10,-1
 320 64 l 1,11,-1
 256 64 l 1,8,-1
256 64 m 1,12,-1
 256 0 l 1,13,-1
 64 0 l 1,14,-1
 64 64 l 1,15,-1
 0 64 l 1,16,-1
 0 128 l 1,17,-1
 64 128 l 1,18,-1
 64 64 l 1,19,-1
 256 64 l 1,12,-1
320 576 m 1,20,-1
 384 576 l 1,21,-1
 384 512 l 1,22,-1
 320 512 l 1,23,-1
 320 576 l 1,20,-1
EndSplineSet
EndChar

StartChar: jcircumflex
Encoding: 243 309 241
Width: 384
VWidth: 1020
Flags: MW
LayerCount: 2
Fore
SplineSet
64 384 m 1,0,-1
 64 448 l 1,1,-1
 128 448 l 1,2,-1
 128 512 l 1,3,-1
 192 512 l 1,4,-1
 192 448 l 1,5,-1
 128 448 l 1,6,-1
 128 384 l 1,7,-1
 64 384 l 1,0,-1
128 -64 m 1,8,-1
 128 256 l 1,9,-1
 64 256 l 1,10,-1
 64 320 l 1,11,-1
 192 320 l 1,12,-1
 192 -64 l 1,13,-1
 128 -64 l 1,8,-1
128 -64 m 1,14,-1
 128 -128 l 1,15,-1
 0 -128 l 1,16,-1
 0 -64 l 1,17,-1
 128 -64 l 1,14,-1
192 448 m 1,18,-1
 256 448 l 1,19,-1
 256 384 l 1,20,-1
 192 384 l 1,21,-1
 192 448 l 1,18,-1
EndSplineSet
EndChar

StartChar: Kcommaaccent
Encoding: 244 310 242
Width: 384
VWidth: 1020
Flags: MW
LayerCount: 2
Fore
SplineSet
0 0 m 1,0,-1
 0 448 l 1,1,-1
 64 448 l 1,2,-1
 64 256 l 1,3,-1
 128 256 l 1,4,-1
 128 320 l 1,5,-1
 192 320 l 1,6,-1
 192 384 l 1,7,-1
 256 384 l 1,8,-1
 256 448 l 1,9,-1
 320 448 l 1,10,-1
 320 384 l 1,11,-1
 256 384 l 1,12,-1
 256 320 l 1,13,-1
 192 320 l 1,14,-1
 192 256 l 1,15,-1
 128 256 l 1,16,-1
 128 192 l 1,17,-1
 64 192 l 1,18,-1
 64 0 l 1,19,-1
 0 0 l 1,0,-1
64 -192 m 1,20,-1
 64 -128 l 1,21,-1
 128 -128 l 1,22,-1
 128 -64 l 1,23,-1
 192 -64 l 1,24,-1
 192 -128 l 1,25,-1
 128 -128 l 1,26,-1
 128 -192 l 1,27,-1
 64 -192 l 1,20,-1
192 128 m 1,28,-1
 128 128 l 1,29,-1
 128 192 l 1,30,-1
 192 192 l 1,31,-1
 192 128 l 1,28,-1
192 128 m 1,32,-1
 256 128 l 1,33,-1
 256 64 l 1,34,-1
 192 64 l 1,35,-1
 192 128 l 1,32,-1
256 64 m 1,36,-1
 320 64 l 1,37,-1
 320 0 l 1,38,-1
 256 0 l 1,39,-1
 256 64 l 1,36,-1
EndSplineSet
EndChar

StartChar: kcommaaccent
Encoding: 245 311 243
Width: 384
VWidth: 1020
Flags: MW
LayerCount: 2
Fore
SplineSet
0 0 m 1,0,-1
 0 448 l 1,1,-1
 64 448 l 1,2,-1
 64 192 l 1,3,-1
 128 192 l 1,4,-1
 128 256 l 1,5,-1
 192 256 l 1,6,-1
 192 320 l 1,7,-1
 256 320 l 1,8,-1
 256 256 l 1,9,-1
 192 256 l 1,10,-1
 192 192 l 1,11,-1
 128 192 l 1,12,-1
 128 128 l 1,13,-1
 64 128 l 1,14,-1
 64 0 l 1,15,-1
 0 0 l 1,0,-1
0 -192 m 1,16,-1
 0 -128 l 1,17,-1
 64 -128 l 1,18,-1
 64 -64 l 1,19,-1
 128 -64 l 1,20,-1
 128 -128 l 1,21,-1
 64 -128 l 1,22,-1
 64 -192 l 1,23,-1
 0 -192 l 1,16,-1
128 128 m 1,24,-1
 192 128 l 1,25,-1
 192 64 l 1,26,-1
 128 64 l 1,27,-1
 128 128 l 1,24,-1
192 64 m 1,28,-1
 256 64 l 1,29,-1
 256 0 l 1,30,-1
 192 0 l 1,31,-1
 192 64 l 1,28,-1
EndSplineSet
EndChar

StartChar: kgreenlandic
Encoding: 246 312 244
Width: 384
VWidth: 1020
Flags: MW
LayerCount: 2
Fore
SplineSet
0 0 m 1,0,-1
 0 320 l 1,1,-1
 64 320 l 1,2,-1
 64 192 l 1,3,-1
 128 192 l 1,4,-1
 128 256 l 1,5,-1
 192 256 l 1,6,-1
 192 320 l 1,7,-1
 256 320 l 1,8,-1
 256 256 l 1,9,-1
 192 256 l 1,10,-1
 192 192 l 1,11,-1
 128 192 l 1,12,-1
 128 128 l 1,13,-1
 64 128 l 1,14,-1
 64 0 l 1,15,-1
 0 0 l 1,0,-1
128 128 m 1,16,-1
 192 128 l 1,17,-1
 192 64 l 1,18,-1
 128 64 l 1,19,-1
 128 128 l 1,16,-1
192 64 m 1,20,-1
 256 64 l 1,21,-1
 256 0 l 1,22,-1
 192 0 l 1,23,-1
 192 64 l 1,20,-1
EndSplineSet
EndChar

StartChar: Lacute
Encoding: 247 313 245
Width: 384
VWidth: 1020
Flags: MW
LayerCount: 2
Fore
SplineSet
64 64 m 1,0,-1
 320 64 l 1,1,-1
 320 0 l 1,2,-1
 0 0 l 1,3,-1
 0 448 l 1,4,-1
 64 448 l 1,5,-1
 64 64 l 1,0,-1
0 512 m 1,6,-1
 0 576 l 1,7,-1
 64 576 l 1,8,-1
 64 640 l 1,9,-1
 128 640 l 1,10,-1
 128 576 l 1,11,-1
 64 576 l 1,12,-1
 64 512 l 1,13,-1
 0 512 l 1,6,-1
EndSplineSet
EndChar

StartChar: lacute
Encoding: 248 314 246
Width: 384
VWidth: 1020
Flags: MW
LayerCount: 2
Fore
SplineSet
64 512 m 1,0,-1
 64 576 l 1,1,-1
 128 576 l 1,2,-1
 128 640 l 1,3,-1
 192 640 l 1,4,-1
 192 576 l 1,5,-1
 128 576 l 1,6,-1
 128 512 l 1,7,-1
 64 512 l 1,0,-1
64 0 m 1,8,-1
 64 384 l 1,9,-1
 0 384 l 1,10,-1
 0 448 l 1,11,-1
 128 448 l 1,12,-1
 128 0 l 1,13,-1
 64 0 l 1,8,-1
EndSplineSet
EndChar

StartChar: Lcommaaccent
Encoding: 249 315 247
Width: 384
VWidth: 1020
Flags: MW
LayerCount: 2
Fore
SplineSet
64 64 m 1,0,-1
 320 64 l 1,1,-1
 320 0 l 1,2,-1
 0 0 l 1,3,-1
 0 448 l 1,4,-1
 64 448 l 1,5,-1
 64 64 l 1,0,-1
64 -192 m 1,6,-1
 64 -128 l 1,7,-1
 128 -128 l 1,8,-1
 128 -64 l 1,9,-1
 192 -64 l 1,10,-1
 192 -128 l 1,11,-1
 128 -128 l 1,12,-1
 128 -192 l 1,13,-1
 64 -192 l 1,6,-1
EndSplineSet
EndChar

StartChar: lcommaaccent
Encoding: 250 316 248
Width: 384
VWidth: 1020
Flags: MW
LayerCount: 2
Fore
SplineSet
128 0 m 1,0,-1
 128 384 l 1,1,-1
 64 384 l 1,2,-1
 64 448 l 1,3,-1
 192 448 l 1,4,-1
 192 0 l 1,5,-1
 128 0 l 1,0,-1
0 -192 m 1,6,-1
 0 -128 l 1,7,-1
 64 -128 l 1,8,-1
 64 -64 l 1,9,-1
 128 -64 l 1,10,-1
 128 -128 l 1,11,-1
 64 -128 l 1,12,-1
 64 -192 l 1,13,-1
 0 -192 l 1,6,-1
EndSplineSet
EndChar

StartChar: Lcaron
Encoding: 251 317 249
Width: 384
VWidth: 1020
Flags: MW
LayerCount: 2
Fore
SplineSet
64 64 m 1,0,-1
 320 64 l 1,1,-1
 320 0 l 1,2,-1
 0 0 l 1,3,-1
 0 448 l 1,4,-1
 64 448 l 1,5,-1
 64 64 l 1,0,-1
128 256 m 1,6,-1
 128 320 l 1,7,-1
 192 320 l 1,8,-1
 192 448 l 1,9,-1
 256 448 l 1,10,-1
 256 320 l 1,11,-1
 192 320 l 1,12,-1
 192 256 l 1,13,-1
 128 256 l 1,6,-1
EndSplineSet
EndChar

StartChar: lcaron
Encoding: 252 318 250
Width: 384
VWidth: 1020
Flags: MW
LayerCount: 2
Fore
SplineSet
128 0 m 1,0,-1
 128 384 l 1,1,-1
 64 384 l 1,2,-1
 64 448 l 1,3,-1
 192 448 l 1,4,-1
 192 320 l 1,5,-1
 256 320 l 1,6,-1
 256 448 l 1,7,-1
 320 448 l 1,8,-1
 320 320 l 1,9,-1
 256 320 l 1,10,-1
 256 256 l 1,11,-1
 192 256 l 1,12,-1
 192 0 l 1,13,-1
 128 0 l 1,0,-1
EndSplineSet
EndChar

StartChar: Ldot
Encoding: 253 319 251
Width: 384
VWidth: 1020
Flags: MW
LayerCount: 2
Fore
SplineSet
64 64 m 1,0,-1
 320 64 l 1,1,-1
 320 0 l 1,2,-1
 0 0 l 1,3,-1
 0 448 l 1,4,-1
 64 448 l 1,5,-1
 64 64 l 1,0,-1
128 192 m 1,6,-1
 128 256 l 1,7,-1
 192 256 l 1,8,-1
 192 192 l 1,9,-1
 128 192 l 1,6,-1
EndSplineSet
EndChar

StartChar: ldot
Encoding: 254 320 252
Width: 384
VWidth: 1020
Flags: MW
LayerCount: 2
Fore
SplineSet
256 192 m 1,0,-1
 256 256 l 1,1,-1
 320 256 l 1,2,-1
 320 192 l 1,3,-1
 256 192 l 1,0,-1
128 0 m 1,4,-1
 128 384 l 1,5,-1
 64 384 l 1,6,-1
 64 448 l 1,7,-1
 192 448 l 1,8,-1
 192 0 l 1,9,-1
 128 0 l 1,4,-1
EndSplineSet
EndChar

StartChar: Lslash
Encoding: 255 321 253
Width: 384
VWidth: 1020
Flags: MW
LayerCount: 2
Fore
SplineSet
320 64 m 1,0,-1
 320 0 l 1,1,-1
 64 0 l 1,2,-1
 64 128 l 1,3,-1
 0 128 l 1,4,-1
 0 192 l 1,5,-1
 64 192 l 1,6,-1
 64 448 l 1,7,-1
 128 448 l 1,8,-1
 128 256 l 1,9,-1
 192 256 l 1,10,-1
 192 320 l 1,11,-1
 256 320 l 1,12,-1
 256 256 l 1,13,-1
 192 256 l 1,14,-1
 192 192 l 1,15,-1
 128 192 l 1,16,-1
 128 64 l 1,17,-1
 320 64 l 1,0,-1
EndSplineSet
EndChar

StartChar: lslash
Encoding: 256 322 254
Width: 384
VWidth: 1020
Flags: MW
LayerCount: 2
Fore
SplineSet
128 0 m 1,0,-1
 128 128 l 1,1,-1
 64 128 l 1,2,-1
 64 192 l 1,3,-1
 128 192 l 1,4,-1
 128 384 l 1,5,-1
 64 384 l 1,6,-1
 64 448 l 1,7,-1
 192 448 l 1,8,-1
 192 256 l 1,9,-1
 256 256 l 1,10,-1
 256 320 l 1,11,-1
 320 320 l 1,12,-1
 320 256 l 1,13,-1
 256 256 l 1,14,-1
 256 192 l 1,15,-1
 192 192 l 1,16,-1
 192 0 l 1,17,-1
 128 0 l 1,0,-1
EndSplineSet
EndChar

StartChar: Nacute
Encoding: 257 323 255
Width: 384
VWidth: 1020
Flags: MW
LayerCount: 2
Fore
SplineSet
128 512 m 1,0,-1
 128 576 l 1,1,-1
 192 576 l 1,2,-1
 192 640 l 1,3,-1
 256 640 l 1,4,-1
 256 576 l 1,5,-1
 192 576 l 1,6,-1
 192 512 l 1,7,-1
 128 512 l 1,0,-1
0 0 m 1,8,-1
 0 448 l 1,9,-1
 64 448 l 1,10,-1
 64 320 l 1,11,-1
 128 320 l 1,12,-1
 128 256 l 1,13,-1
 64 256 l 1,14,-1
 64 0 l 1,15,-1
 0 0 l 1,8,-1
256 0 m 1,16,-1
 256 128 l 1,17,-1
 192 128 l 1,18,-1
 192 192 l 1,19,-1
 128 192 l 1,20,-1
 128 256 l 1,21,-1
 192 256 l 1,22,-1
 192 192 l 1,23,-1
 256 192 l 1,24,-1
 256 448 l 1,25,-1
 320 448 l 1,26,-1
 320 0 l 1,27,-1
 256 0 l 1,16,-1
EndSplineSet
EndChar

StartChar: nacute
Encoding: 258 324 256
Width: 384
VWidth: 1020
Flags: MW
LayerCount: 2
Fore
SplineSet
128 384 m 1,0,-1
 128 448 l 1,1,-1
 192 448 l 1,2,-1
 192 512 l 1,3,-1
 256 512 l 1,4,-1
 256 448 l 1,5,-1
 192 448 l 1,6,-1
 192 384 l 1,7,-1
 128 384 l 1,0,-1
0 0 m 1,8,-1
 0 320 l 1,9,-1
 256 320 l 1,10,-1
 256 256 l 1,11,-1
 64 256 l 1,12,-1
 64 0 l 1,13,-1
 0 0 l 1,8,-1
256 256 m 1,14,-1
 320 256 l 1,15,-1
 320 0 l 1,16,-1
 256 0 l 1,17,-1
 256 256 l 1,14,-1
EndSplineSet
EndChar

StartChar: Ncommaaccent
Encoding: 259 325 257
Width: 384
VWidth: 1020
Flags: MW
LayerCount: 2
Fore
SplineSet
0 0 m 1,0,-1
 0 448 l 1,1,-1
 64 448 l 1,2,-1
 64 320 l 1,3,-1
 128 320 l 1,4,-1
 128 256 l 1,5,-1
 64 256 l 1,6,-1
 64 0 l 1,7,-1
 0 0 l 1,0,-1
256 0 m 1,8,-1
 256 128 l 1,9,-1
 192 128 l 1,10,-1
 192 192 l 1,11,-1
 128 192 l 1,12,-1
 128 256 l 1,13,-1
 192 256 l 1,14,-1
 192 192 l 1,15,-1
 256 192 l 1,16,-1
 256 448 l 1,17,-1
 320 448 l 1,18,-1
 320 0 l 1,19,-1
 256 0 l 1,8,-1
64 -192 m 1,20,-1
 64 -128 l 1,21,-1
 128 -128 l 1,22,-1
 128 -64 l 1,23,-1
 192 -64 l 1,24,-1
 192 -128 l 1,25,-1
 128 -128 l 1,26,-1
 128 -192 l 1,27,-1
 64 -192 l 1,20,-1
EndSplineSet
EndChar

StartChar: ncommaaccent
Encoding: 260 326 258
Width: 384
VWidth: 1020
Flags: MW
LayerCount: 2
Fore
SplineSet
0 0 m 1,0,-1
 0 320 l 1,1,-1
 256 320 l 1,2,-1
 256 256 l 1,3,-1
 64 256 l 1,4,-1
 64 0 l 1,5,-1
 0 0 l 1,0,-1
64 -192 m 1,6,-1
 64 -128 l 1,7,-1
 128 -128 l 1,8,-1
 128 -64 l 1,9,-1
 192 -64 l 1,10,-1
 192 -128 l 1,11,-1
 128 -128 l 1,12,-1
 128 -192 l 1,13,-1
 64 -192 l 1,6,-1
256 256 m 1,14,-1
 320 256 l 1,15,-1
 320 0 l 1,16,-1
 256 0 l 1,17,-1
 256 256 l 1,14,-1
EndSplineSet
EndChar

StartChar: Ncaron
Encoding: 261 327 259
Width: 384
VWidth: 1020
Flags: MW
LayerCount: 2
Fore
SplineSet
0 0 m 1,0,-1
 0 448 l 1,1,-1
 64 448 l 1,2,-1
 64 320 l 1,3,-1
 128 320 l 1,4,-1
 128 256 l 1,5,-1
 64 256 l 1,6,-1
 64 0 l 1,7,-1
 0 0 l 1,0,-1
256 0 m 1,8,-1
 256 128 l 1,9,-1
 192 128 l 1,10,-1
 192 192 l 1,11,-1
 128 192 l 1,12,-1
 128 256 l 1,13,-1
 192 256 l 1,14,-1
 192 192 l 1,15,-1
 256 192 l 1,16,-1
 256 448 l 1,17,-1
 320 448 l 1,18,-1
 320 0 l 1,19,-1
 256 0 l 1,8,-1
192 576 m 1,20,-1
 192 640 l 1,21,-1
 256 640 l 1,22,-1
 256 576 l 1,23,-1
 192 576 l 1,20,-1
192 576 m 1,24,-1
 192 512 l 1,25,-1
 128 512 l 1,26,-1
 128 576 l 1,27,-1
 64 576 l 1,28,-1
 64 640 l 1,29,-1
 128 640 l 1,30,-1
 128 576 l 1,31,-1
 192 576 l 1,24,-1
EndSplineSet
EndChar

StartChar: ncaron
Encoding: 262 328 260
Width: 384
VWidth: 1020
Flags: MW
LayerCount: 2
Fore
SplineSet
0 0 m 1,0,-1
 0 320 l 1,1,-1
 256 320 l 1,2,-1
 256 256 l 1,3,-1
 64 256 l 1,4,-1
 64 0 l 1,5,-1
 0 0 l 1,0,-1
192 448 m 1,6,-1
 192 512 l 1,7,-1
 256 512 l 1,8,-1
 256 448 l 1,9,-1
 192 448 l 1,6,-1
192 448 m 1,10,-1
 192 384 l 1,11,-1
 128 384 l 1,12,-1
 128 448 l 1,13,-1
 64 448 l 1,14,-1
 64 512 l 1,15,-1
 128 512 l 1,16,-1
 128 448 l 1,17,-1
 192 448 l 1,10,-1
256 256 m 1,18,-1
 320 256 l 1,19,-1
 320 0 l 1,20,-1
 256 0 l 1,21,-1
 256 256 l 1,18,-1
EndSplineSet
EndChar

StartChar: napostrophe
Encoding: 263 329 261
Width: 384
VWidth: 1020
Flags: MW
LayerCount: 2
Fore
SplineSet
64 384 m 1,0,-1
 64 512 l 1,1,-1
 128 512 l 1,2,-1
 128 384 l 1,3,-1
 64 384 l 1,0,-1
64 384 m 1,4,-1
 64 320 l 1,5,-1
 0 320 l 1,6,-1
 0 384 l 1,7,-1
 64 384 l 1,4,-1
64 320 m 1,8,-1
 256 320 l 1,9,-1
 256 256 l 1,10,-1
 128 256 l 1,11,-1
 128 0 l 1,12,-1
 64 0 l 1,13,-1
 64 320 l 1,8,-1
256 256 m 1,14,-1
 320 256 l 1,15,-1
 320 0 l 1,16,-1
 256 0 l 1,17,-1
 256 256 l 1,14,-1
EndSplineSet
EndChar

StartChar: Eng
Encoding: 264 330 262
Width: 384
VWidth: 1020
Flags: MW
LayerCount: 2
Fore
SplineSet
0 0 m 1,0,-1
 0 448 l 1,1,-1
 64 448 l 1,2,-1
 64 320 l 1,3,-1
 128 320 l 1,4,-1
 128 256 l 1,5,-1
 64 256 l 1,6,-1
 64 0 l 1,7,-1
 0 0 l 1,0,-1
256 -64 m 1,8,-1
 256 128 l 1,9,-1
 192 128 l 1,10,-1
 192 192 l 1,11,-1
 128 192 l 1,12,-1
 128 256 l 1,13,-1
 192 256 l 1,14,-1
 192 192 l 1,15,-1
 256 192 l 1,16,-1
 256 448 l 1,17,-1
 320 448 l 1,18,-1
 320 -64 l 1,19,-1
 256 -64 l 1,8,-1
256 -64 m 1,20,-1
 256 -128 l 1,21,-1
 128 -128 l 1,22,-1
 128 -64 l 1,23,-1
 256 -64 l 1,20,-1
EndSplineSet
EndChar

StartChar: eng
Encoding: 265 331 263
Width: 384
VWidth: 1020
Flags: MW
LayerCount: 2
Fore
SplineSet
0 0 m 1,0,-1
 0 320 l 1,1,-1
 256 320 l 1,2,-1
 256 256 l 1,3,-1
 64 256 l 1,4,-1
 64 0 l 1,5,-1
 0 0 l 1,0,-1
256 -64 m 1,6,-1
 256 256 l 1,7,-1
 320 256 l 1,8,-1
 320 -64 l 1,9,-1
 256 -64 l 1,6,-1
256 -64 m 1,10,-1
 256 -128 l 1,11,-1
 128 -128 l 1,12,-1
 128 -64 l 1,13,-1
 256 -64 l 1,10,-1
EndSplineSet
EndChar

StartChar: Omacron
Encoding: 266 332 264
Width: 384
VWidth: 1020
Flags: MW
LayerCount: 2
Fore
SplineSet
64 576 m 1,0,-1
 256 576 l 1,1,-1
 256 512 l 1,2,-1
 64 512 l 1,3,-1
 64 576 l 1,0,-1
64 384 m 1,4,-1
 64 448 l 1,5,-1
 256 448 l 1,6,-1
 256 384 l 1,7,-1
 64 384 l 1,4,-1
64 384 m 1,8,-1
 64 64 l 1,9,-1
 0 64 l 1,10,-1
 0 384 l 1,11,-1
 64 384 l 1,8,-1
256 384 m 1,12,-1
 320 384 l 1,13,-1
 320 64 l 1,14,-1
 256 64 l 1,15,-1
 256 384 l 1,12,-1
256 64 m 1,16,-1
 256 0 l 1,17,-1
 64 0 l 1,18,-1
 64 64 l 1,19,-1
 256 64 l 1,16,-1
EndSplineSet
EndChar

StartChar: omacron
Encoding: 267 333 265
Width: 384
VWidth: 1020
Flags: MW
LayerCount: 2
Fore
SplineSet
64 448 m 1,0,-1
 256 448 l 1,1,-1
 256 384 l 1,2,-1
 64 384 l 1,3,-1
 64 448 l 1,0,-1
64 256 m 1,4,-1
 64 320 l 1,5,-1
 256 320 l 1,6,-1
 256 256 l 1,7,-1
 64 256 l 1,4,-1
64 256 m 1,8,-1
 64 64 l 1,9,-1
 0 64 l 1,10,-1
 0 256 l 1,11,-1
 64 256 l 1,8,-1
256 256 m 1,12,-1
 320 256 l 1,13,-1
 320 64 l 1,14,-1
 256 64 l 1,15,-1
 256 256 l 1,12,-1
256 64 m 1,16,-1
 256 0 l 1,17,-1
 64 0 l 1,18,-1
 64 64 l 1,19,-1
 256 64 l 1,16,-1
EndSplineSet
EndChar

StartChar: Obreve
Encoding: 268 334 266
Width: 384
VWidth: 1020
Flags: MW
LayerCount: 2
Fore
SplineSet
256 576 m 1,0,-1
 256 640 l 1,1,-1
 320 640 l 1,2,-1
 320 576 l 1,3,-1
 256 576 l 1,0,-1
256 576 m 1,4,-1
 256 512 l 1,5,-1
 128 512 l 1,6,-1
 128 576 l 1,7,-1
 64 576 l 1,8,-1
 64 640 l 1,9,-1
 128 640 l 1,10,-1
 128 576 l 1,11,-1
 256 576 l 1,4,-1
64 384 m 1,12,-1
 64 448 l 1,13,-1
 256 448 l 1,14,-1
 256 384 l 1,15,-1
 64 384 l 1,12,-1
64 384 m 1,16,-1
 64 64 l 1,17,-1
 0 64 l 1,18,-1
 0 384 l 1,19,-1
 64 384 l 1,16,-1
256 384 m 1,20,-1
 320 384 l 1,21,-1
 320 64 l 1,22,-1
 256 64 l 1,23,-1
 256 384 l 1,20,-1
256 64 m 1,24,-1
 256 0 l 1,25,-1
 64 0 l 1,26,-1
 64 64 l 1,27,-1
 256 64 l 1,24,-1
EndSplineSet
EndChar

StartChar: obreve
Encoding: 269 335 267
Width: 384
VWidth: 1020
Flags: MW
LayerCount: 2
Fore
SplineSet
256 448 m 1,0,-1
 256 512 l 1,1,-1
 320 512 l 1,2,-1
 320 448 l 1,3,-1
 256 448 l 1,0,-1
256 448 m 1,4,-1
 256 384 l 1,5,-1
 128 384 l 1,6,-1
 128 448 l 1,7,-1
 64 448 l 1,8,-1
 64 512 l 1,9,-1
 128 512 l 1,10,-1
 128 448 l 1,11,-1
 256 448 l 1,4,-1
64 256 m 1,12,-1
 64 320 l 1,13,-1
 256 320 l 1,14,-1
 256 256 l 1,15,-1
 64 256 l 1,12,-1
64 256 m 1,16,-1
 64 64 l 1,17,-1
 0 64 l 1,18,-1
 0 256 l 1,19,-1
 64 256 l 1,16,-1
256 256 m 1,20,-1
 320 256 l 1,21,-1
 320 64 l 1,22,-1
 256 64 l 1,23,-1
 256 256 l 1,20,-1
256 64 m 1,24,-1
 256 0 l 1,25,-1
 64 0 l 1,26,-1
 64 64 l 1,27,-1
 256 64 l 1,24,-1
EndSplineSet
EndChar

StartChar: Ohungarumlaut
Encoding: 270 336 268
Width: 384
VWidth: 1020
Flags: MW
LayerCount: 2
Fore
SplineSet
0 512 m 1,0,-1
 0 576 l 1,1,-1
 64 576 l 1,2,-1
 64 640 l 1,3,-1
 128 640 l 1,4,-1
 128 576 l 1,5,-1
 64 576 l 1,6,-1
 64 512 l 1,7,-1
 0 512 l 1,0,-1
192 512 m 1,8,-1
 192 576 l 1,9,-1
 256 576 l 1,10,-1
 256 640 l 1,11,-1
 320 640 l 1,12,-1
 320 576 l 1,13,-1
 256 576 l 1,14,-1
 256 512 l 1,15,-1
 192 512 l 1,8,-1
64 384 m 1,16,-1
 64 448 l 1,17,-1
 256 448 l 1,18,-1
 256 384 l 1,19,-1
 64 384 l 1,16,-1
64 384 m 1,20,-1
 64 64 l 1,21,-1
 0 64 l 1,22,-1
 0 384 l 1,23,-1
 64 384 l 1,20,-1
256 384 m 1,24,-1
 320 384 l 1,25,-1
 320 64 l 1,26,-1
 256 64 l 1,27,-1
 256 384 l 1,24,-1
256 64 m 1,28,-1
 256 0 l 1,29,-1
 64 0 l 1,30,-1
 64 64 l 1,31,-1
 256 64 l 1,28,-1
EndSplineSet
EndChar

StartChar: ohungarumlaut
Encoding: 271 337 269
Width: 384
VWidth: 1020
Flags: MW
LayerCount: 2
Fore
SplineSet
0 384 m 1,0,-1
 0 448 l 1,1,-1
 64 448 l 1,2,-1
 64 512 l 1,3,-1
 128 512 l 1,4,-1
 128 448 l 1,5,-1
 64 448 l 1,6,-1
 64 384 l 1,7,-1
 0 384 l 1,0,-1
192 384 m 1,8,-1
 192 448 l 1,9,-1
 256 448 l 1,10,-1
 256 512 l 1,11,-1
 320 512 l 1,12,-1
 320 448 l 1,13,-1
 256 448 l 1,14,-1
 256 384 l 1,15,-1
 192 384 l 1,8,-1
64 256 m 1,16,-1
 64 320 l 1,17,-1
 256 320 l 1,18,-1
 256 256 l 1,19,-1
 64 256 l 1,16,-1
64 256 m 1,20,-1
 64 64 l 1,21,-1
 0 64 l 1,22,-1
 0 256 l 1,23,-1
 64 256 l 1,20,-1
256 256 m 1,24,-1
 320 256 l 1,25,-1
 320 64 l 1,26,-1
 256 64 l 1,27,-1
 256 256 l 1,24,-1
256 64 m 1,28,-1
 256 0 l 1,29,-1
 64 0 l 1,30,-1
 64 64 l 1,31,-1
 256 64 l 1,28,-1
EndSplineSet
EndChar

StartChar: OE
Encoding: 272 338 270
Width: 384
VWidth: 1020
Flags: MW
LayerCount: 2
Fore
SplineSet
128 64 m 1,0,-1
 128 384 l 1,1,-1
 64 384 l 1,2,-1
 64 64 l 1,3,-1
 128 64 l 1,0,-1
192 64 m 1,4,-1
 320 64 l 1,5,-1
 320 0 l 1,6,-1
 64 0 l 1,7,-1
 64 64 l 1,8,-1
 0 64 l 1,9,-1
 0 384 l 1,10,-1
 64 384 l 1,11,-1
 64 448 l 1,12,-1
 320 448 l 1,13,-1
 320 384 l 1,14,-1
 192 384 l 1,15,-1
 192 256 l 1,16,-1
 256 256 l 1,17,-1
 256 192 l 1,18,-1
 192 192 l 1,19,-1
 192 64 l 1,4,-1
EndSplineSet
EndChar

StartChar: oe
Encoding: 273 339 271
Width: 384
VWidth: 1020
Flags: MW
LayerCount: 2
Fore
SplineSet
64 256 m 1,0,-1
 64 320 l 1,1,-1
 128 320 l 1,2,-1
 128 256 l 1,3,-1
 64 256 l 1,0,-1
64 256 m 1,4,-1
 64 64 l 1,5,-1
 0 64 l 1,6,-1
 0 256 l 1,7,-1
 64 256 l 1,4,-1
256 256 m 1,8,-1
 192 256 l 1,9,-1
 192 320 l 1,10,-1
 256 320 l 1,11,-1
 256 256 l 1,8,-1
256 256 m 1,12,-1
 320 256 l 1,13,-1
 320 128 l 1,14,-1
 192 128 l 1,15,-1
 192 64 l 1,16,-1
 128 64 l 1,17,-1
 128 256 l 1,18,-1
 192 256 l 1,19,-1
 192 192 l 1,20,-1
 256 192 l 1,21,-1
 256 256 l 1,12,-1
64 64 m 1,22,-1
 128 64 l 1,23,-1
 128 0 l 1,24,-1
 64 0 l 1,25,-1
 64 64 l 1,22,-1
192 64 m 1,26,-1
 320 64 l 1,27,-1
 320 0 l 1,28,-1
 192 0 l 1,29,-1
 192 64 l 1,26,-1
EndSplineSet
EndChar

StartChar: Racute
Encoding: 274 340 272
Width: 384
VWidth: 1020
Flags: MW
LayerCount: 2
Fore
SplineSet
128 512 m 1,0,-1
 128 576 l 1,1,-1
 192 576 l 1,2,-1
 192 640 l 1,3,-1
 256 640 l 1,4,-1
 256 576 l 1,5,-1
 192 576 l 1,6,-1
 192 512 l 1,7,-1
 128 512 l 1,0,-1
0 0 m 1,8,-1
 0 448 l 1,9,-1
 256 448 l 1,10,-1
 256 384 l 1,11,-1
 64 384 l 1,12,-1
 64 256 l 1,13,-1
 256 256 l 1,14,-1
 256 192 l 1,15,-1
 192 192 l 1,16,-1
 192 128 l 1,17,-1
 128 128 l 1,18,-1
 128 192 l 1,19,-1
 64 192 l 1,20,-1
 64 0 l 1,21,-1
 0 0 l 1,8,-1
192 128 m 1,22,-1
 256 128 l 1,23,-1
 256 64 l 1,24,-1
 192 64 l 1,25,-1
 192 128 l 1,22,-1
256 256 m 1,26,-1
 256 384 l 1,27,-1
 320 384 l 1,28,-1
 320 256 l 1,29,-1
 256 256 l 1,26,-1
256 64 m 1,30,-1
 320 64 l 1,31,-1
 320 0 l 1,32,-1
 256 0 l 1,33,-1
 256 64 l 1,30,-1
EndSplineSet
EndChar

StartChar: racute
Encoding: 275 341 273
Width: 384
VWidth: 1020
Flags: MW
LayerCount: 2
Fore
SplineSet
64 320 m 1,0,-1
 256 320 l 1,1,-1
 256 256 l 1,2,-1
 64 256 l 1,3,-1
 64 320 l 1,0,-1
64 384 m 1,4,-1
 64 448 l 1,5,-1
 128 448 l 1,6,-1
 128 512 l 1,7,-1
 192 512 l 1,8,-1
 192 448 l 1,9,-1
 128 448 l 1,10,-1
 128 384 l 1,11,-1
 64 384 l 1,4,-1
0 0 m 1,12,-1
 0 256 l 1,13,-1
 64 256 l 1,14,-1
 64 0 l 1,15,-1
 0 0 l 1,12,-1
EndSplineSet
EndChar

StartChar: Rcommaaccent
Encoding: 276 342 274
Width: 384
VWidth: 1020
Flags: MW
LayerCount: 2
Fore
SplineSet
0 0 m 1,0,-1
 0 448 l 1,1,-1
 256 448 l 1,2,-1
 256 384 l 1,3,-1
 64 384 l 1,4,-1
 64 256 l 1,5,-1
 256 256 l 1,6,-1
 256 192 l 1,7,-1
 192 192 l 1,8,-1
 192 128 l 1,9,-1
 128 128 l 1,10,-1
 128 192 l 1,11,-1
 64 192 l 1,12,-1
 64 0 l 1,13,-1
 0 0 l 1,0,-1
64 -192 m 1,14,-1
 64 -128 l 1,15,-1
 128 -128 l 1,16,-1
 128 -64 l 1,17,-1
 192 -64 l 1,18,-1
 192 -128 l 1,19,-1
 128 -128 l 1,20,-1
 128 -192 l 1,21,-1
 64 -192 l 1,14,-1
192 128 m 1,22,-1
 256 128 l 1,23,-1
 256 64 l 1,24,-1
 192 64 l 1,25,-1
 192 128 l 1,22,-1
256 256 m 1,26,-1
 256 384 l 1,27,-1
 320 384 l 1,28,-1
 320 256 l 1,29,-1
 256 256 l 1,26,-1
256 64 m 1,30,-1
 320 64 l 1,31,-1
 320 0 l 1,32,-1
 256 0 l 1,33,-1
 256 64 l 1,30,-1
EndSplineSet
EndChar

StartChar: rcommaaccent
Encoding: 277 343 275
Width: 384
VWidth: 1020
Flags: MW
LayerCount: 2
Fore
SplineSet
64 320 m 1,0,-1
 256 320 l 1,1,-1
 256 256 l 1,2,-1
 64 256 l 1,3,-1
 64 320 l 1,0,-1
0 0 m 1,4,-1
 0 256 l 1,5,-1
 64 256 l 1,6,-1
 64 0 l 1,7,-1
 0 0 l 1,4,-1
-64 -192 m 1,8,-1
 -64 -128 l 1,9,-1
 0 -128 l 1,10,-1
 0 -64 l 1,11,-1
 64 -64 l 1,12,-1
 64 -128 l 1,13,-1
 0 -128 l 1,14,-1
 0 -192 l 1,15,-1
 -64 -192 l 1,8,-1
EndSplineSet
EndChar

StartChar: Rcaron
Encoding: 278 344 276
Width: 384
VWidth: 1020
Flags: MW
LayerCount: 2
Fore
SplineSet
0 0 m 1,0,-1
 0 448 l 1,1,-1
 256 448 l 1,2,-1
 256 384 l 1,3,-1
 64 384 l 1,4,-1
 64 256 l 1,5,-1
 256 256 l 1,6,-1
 256 192 l 1,7,-1
 192 192 l 1,8,-1
 192 128 l 1,9,-1
 128 128 l 1,10,-1
 128 192 l 1,11,-1
 64 192 l 1,12,-1
 64 0 l 1,13,-1
 0 0 l 1,0,-1
192 576 m 1,14,-1
 192 640 l 1,15,-1
 256 640 l 1,16,-1
 256 576 l 1,17,-1
 192 576 l 1,14,-1
192 576 m 1,18,-1
 192 512 l 1,19,-1
 128 512 l 1,20,-1
 128 576 l 1,21,-1
 64 576 l 1,22,-1
 64 640 l 1,23,-1
 128 640 l 1,24,-1
 128 576 l 1,25,-1
 192 576 l 1,18,-1
192 128 m 1,26,-1
 256 128 l 1,27,-1
 256 64 l 1,28,-1
 192 64 l 1,29,-1
 192 128 l 1,26,-1
256 256 m 1,30,-1
 256 384 l 1,31,-1
 320 384 l 1,32,-1
 320 256 l 1,33,-1
 256 256 l 1,30,-1
256 64 m 1,34,-1
 320 64 l 1,35,-1
 320 0 l 1,36,-1
 256 0 l 1,37,-1
 256 64 l 1,34,-1
EndSplineSet
EndChar

StartChar: rcaron
Encoding: 279 345 277
Width: 384
VWidth: 1020
Flags: MW
LayerCount: 2
Fore
SplineSet
64 320 m 1,0,-1
 256 320 l 1,1,-1
 256 256 l 1,2,-1
 64 256 l 1,3,-1
 64 320 l 1,0,-1
0 0 m 1,4,-1
 0 256 l 1,5,-1
 64 256 l 1,6,-1
 64 0 l 1,7,-1
 0 0 l 1,4,-1
192 448 m 1,8,-1
 192 512 l 1,9,-1
 256 512 l 1,10,-1
 256 448 l 1,11,-1
 192 448 l 1,8,-1
192 448 m 1,12,-1
 192 384 l 1,13,-1
 128 384 l 1,14,-1
 128 448 l 1,15,-1
 64 448 l 1,16,-1
 64 512 l 1,17,-1
 128 512 l 1,18,-1
 128 448 l 1,19,-1
 192 448 l 1,12,-1
EndSplineSet
EndChar

StartChar: Sacute
Encoding: 280 346 278
Width: 384
VWidth: 1020
Flags: MW
LayerCount: 2
Fore
SplineSet
128 512 m 1,0,-1
 128 576 l 1,1,-1
 192 576 l 1,2,-1
 192 640 l 1,3,-1
 256 640 l 1,4,-1
 256 576 l 1,5,-1
 192 576 l 1,6,-1
 192 512 l 1,7,-1
 128 512 l 1,0,-1
64 384 m 1,8,-1
 64 448 l 1,9,-1
 256 448 l 1,10,-1
 256 384 l 1,11,-1
 64 384 l 1,8,-1
64 384 m 1,12,-1
 64 256 l 1,13,-1
 0 256 l 1,14,-1
 0 384 l 1,15,-1
 64 384 l 1,12,-1
64 256 m 1,16,-1
 256 256 l 1,17,-1
 256 192 l 1,18,-1
 64 192 l 1,19,-1
 64 256 l 1,16,-1
256 192 m 1,20,-1
 320 192 l 1,21,-1
 320 64 l 1,22,-1
 256 64 l 1,23,-1
 256 192 l 1,20,-1
256 64 m 1,24,-1
 256 0 l 1,25,-1
 64 0 l 1,26,-1
 64 64 l 1,27,-1
 0 64 l 1,28,-1
 0 128 l 1,29,-1
 64 128 l 1,30,-1
 64 64 l 1,31,-1
 256 64 l 1,24,-1
256 384 m 1,32,-1
 320 384 l 1,33,-1
 320 320 l 1,34,-1
 256 320 l 1,35,-1
 256 384 l 1,32,-1
EndSplineSet
EndChar

StartChar: sacute
Encoding: 281 347 279
Width: 384
VWidth: 1020
Flags: MW
LayerCount: 2
Fore
SplineSet
64 320 m 1,0,-1
 320 320 l 1,1,-1
 320 256 l 1,2,-1
 64 256 l 1,3,-1
 64 320 l 1,0,-1
128 384 m 1,4,-1
 128 448 l 1,5,-1
 192 448 l 1,6,-1
 192 512 l 1,7,-1
 256 512 l 1,8,-1
 256 448 l 1,9,-1
 192 448 l 1,10,-1
 192 384 l 1,11,-1
 128 384 l 1,4,-1
64 256 m 1,12,-1
 64 192 l 1,13,-1
 0 192 l 1,14,-1
 0 256 l 1,15,-1
 64 256 l 1,12,-1
64 192 m 1,16,-1
 256 192 l 1,17,-1
 256 128 l 1,18,-1
 64 128 l 1,19,-1
 64 192 l 1,16,-1
256 128 m 1,20,-1
 320 128 l 1,21,-1
 320 64 l 1,22,-1
 256 64 l 1,23,-1
 256 128 l 1,20,-1
256 64 m 1,24,-1
 256 0 l 1,25,-1
 0 0 l 1,26,-1
 0 64 l 1,27,-1
 256 64 l 1,24,-1
EndSplineSet
EndChar

StartChar: Scircumflex
Encoding: 282 348 280
Width: 384
VWidth: 1020
Flags: MW
LayerCount: 2
Fore
SplineSet
64 512 m 1,0,-1
 64 576 l 1,1,-1
 128 576 l 1,2,-1
 128 640 l 1,3,-1
 192 640 l 1,4,-1
 192 576 l 1,5,-1
 128 576 l 1,6,-1
 128 512 l 1,7,-1
 64 512 l 1,0,-1
64 384 m 1,8,-1
 64 448 l 1,9,-1
 256 448 l 1,10,-1
 256 384 l 1,11,-1
 64 384 l 1,8,-1
64 384 m 1,12,-1
 64 256 l 1,13,-1
 0 256 l 1,14,-1
 0 384 l 1,15,-1
 64 384 l 1,12,-1
64 256 m 1,16,-1
 256 256 l 1,17,-1
 256 192 l 1,18,-1
 64 192 l 1,19,-1
 64 256 l 1,16,-1
256 192 m 1,20,-1
 320 192 l 1,21,-1
 320 64 l 1,22,-1
 256 64 l 1,23,-1
 256 192 l 1,20,-1
256 64 m 1,24,-1
 256 0 l 1,25,-1
 64 0 l 1,26,-1
 64 64 l 1,27,-1
 0 64 l 1,28,-1
 0 128 l 1,29,-1
 64 128 l 1,30,-1
 64 64 l 1,31,-1
 256 64 l 1,24,-1
192 576 m 1,32,-1
 256 576 l 1,33,-1
 256 512 l 1,34,-1
 192 512 l 1,35,-1
 192 576 l 1,32,-1
256 384 m 1,36,-1
 320 384 l 1,37,-1
 320 320 l 1,38,-1
 256 320 l 1,39,-1
 256 384 l 1,36,-1
EndSplineSet
EndChar

StartChar: scircumflex
Encoding: 283 349 281
Width: 384
VWidth: 1020
Flags: MW
LayerCount: 2
Fore
SplineSet
64 320 m 1,0,-1
 320 320 l 1,1,-1
 320 256 l 1,2,-1
 64 256 l 1,3,-1
 64 320 l 1,0,-1
64 384 m 1,4,-1
 64 448 l 1,5,-1
 128 448 l 1,6,-1
 128 512 l 1,7,-1
 192 512 l 1,8,-1
 192 448 l 1,9,-1
 128 448 l 1,10,-1
 128 384 l 1,11,-1
 64 384 l 1,4,-1
64 256 m 1,12,-1
 64 192 l 1,13,-1
 0 192 l 1,14,-1
 0 256 l 1,15,-1
 64 256 l 1,12,-1
64 192 m 1,16,-1
 256 192 l 1,17,-1
 256 128 l 1,18,-1
 64 128 l 1,19,-1
 64 192 l 1,16,-1
256 128 m 1,20,-1
 320 128 l 1,21,-1
 320 64 l 1,22,-1
 256 64 l 1,23,-1
 256 128 l 1,20,-1
256 64 m 1,24,-1
 256 0 l 1,25,-1
 0 0 l 1,26,-1
 0 64 l 1,27,-1
 256 64 l 1,24,-1
192 448 m 1,28,-1
 256 448 l 1,29,-1
 256 384 l 1,30,-1
 192 384 l 1,31,-1
 192 448 l 1,28,-1
EndSplineSet
EndChar

StartChar: Scedilla
Encoding: 284 350 282
Width: 384
VWidth: 1020
Flags: MW
LayerCount: 2
Fore
SplineSet
64 384 m 1,0,-1
 64 448 l 1,1,-1
 256 448 l 1,2,-1
 256 384 l 1,3,-1
 64 384 l 1,0,-1
64 384 m 1,4,-1
 64 256 l 1,5,-1
 0 256 l 1,6,-1
 0 384 l 1,7,-1
 64 384 l 1,4,-1
64 256 m 1,8,-1
 256 256 l 1,9,-1
 256 192 l 1,10,-1
 64 192 l 1,11,-1
 64 256 l 1,8,-1
256 192 m 1,12,-1
 320 192 l 1,13,-1
 320 64 l 1,14,-1
 256 64 l 1,15,-1
 256 192 l 1,12,-1
256 64 m 1,16,-1
 256 0 l 1,17,-1
 192 0 l 1,18,-1
 192 -64 l 1,19,-1
 128 -64 l 1,20,-1
 128 0 l 1,21,-1
 64 0 l 1,22,-1
 64 64 l 1,23,-1
 0 64 l 1,24,-1
 0 128 l 1,25,-1
 64 128 l 1,26,-1
 64 64 l 1,27,-1
 256 64 l 1,16,-1
192 -64 m 1,28,-1
 256 -64 l 1,29,-1
 256 -128 l 1,30,-1
 192 -128 l 1,31,-1
 192 -64 l 1,28,-1
192 -128 m 1,32,-1
 192 -192 l 1,33,-1
 64 -192 l 1,34,-1
 64 -128 l 1,35,-1
 192 -128 l 1,32,-1
256 384 m 1,36,-1
 320 384 l 1,37,-1
 320 320 l 1,38,-1
 256 320 l 1,39,-1
 256 384 l 1,36,-1
EndSplineSet
EndChar

StartChar: scedilla
Encoding: 285 351 283
Width: 384
VWidth: 1020
Flags: MW
LayerCount: 2
Fore
SplineSet
64 320 m 1,0,-1
 320 320 l 1,1,-1
 320 256 l 1,2,-1
 64 256 l 1,3,-1
 64 320 l 1,0,-1
64 256 m 1,4,-1
 64 192 l 1,5,-1
 0 192 l 1,6,-1
 0 256 l 1,7,-1
 64 256 l 1,4,-1
64 192 m 1,8,-1
 256 192 l 1,9,-1
 256 128 l 1,10,-1
 64 128 l 1,11,-1
 64 192 l 1,8,-1
256 128 m 1,12,-1
 320 128 l 1,13,-1
 320 64 l 1,14,-1
 256 64 l 1,15,-1
 256 128 l 1,12,-1
256 64 m 1,16,-1
 256 0 l 1,17,-1
 192 0 l 1,18,-1
 192 -64 l 1,19,-1
 128 -64 l 1,20,-1
 128 0 l 1,21,-1
 0 0 l 1,22,-1
 0 64 l 1,23,-1
 256 64 l 1,16,-1
192 -64 m 1,24,-1
 256 -64 l 1,25,-1
 256 -128 l 1,26,-1
 192 -128 l 1,27,-1
 192 -64 l 1,24,-1
192 -128 m 1,28,-1
 192 -192 l 1,29,-1
 64 -192 l 1,30,-1
 64 -128 l 1,31,-1
 192 -128 l 1,28,-1
EndSplineSet
EndChar

StartChar: Scaron
Encoding: 286 352 284
Width: 384
VWidth: 1020
Flags: MW
LayerCount: 2
Fore
SplineSet
64 384 m 1,0,-1
 64 448 l 1,1,-1
 256 448 l 1,2,-1
 256 384 l 1,3,-1
 64 384 l 1,0,-1
64 384 m 1,4,-1
 64 256 l 1,5,-1
 0 256 l 1,6,-1
 0 384 l 1,7,-1
 64 384 l 1,4,-1
64 256 m 1,8,-1
 256 256 l 1,9,-1
 256 192 l 1,10,-1
 64 192 l 1,11,-1
 64 256 l 1,8,-1
256 192 m 1,12,-1
 320 192 l 1,13,-1
 320 64 l 1,14,-1
 256 64 l 1,15,-1
 256 192 l 1,12,-1
256 64 m 1,16,-1
 256 0 l 1,17,-1
 64 0 l 1,18,-1
 64 64 l 1,19,-1
 0 64 l 1,20,-1
 0 128 l 1,21,-1
 64 128 l 1,22,-1
 64 64 l 1,23,-1
 256 64 l 1,16,-1
192 576 m 1,24,-1
 192 640 l 1,25,-1
 256 640 l 1,26,-1
 256 576 l 1,27,-1
 192 576 l 1,24,-1
192 576 m 1,28,-1
 192 512 l 1,29,-1
 128 512 l 1,30,-1
 128 576 l 1,31,-1
 64 576 l 1,32,-1
 64 640 l 1,33,-1
 128 640 l 1,34,-1
 128 576 l 1,35,-1
 192 576 l 1,28,-1
256 384 m 1,36,-1
 320 384 l 1,37,-1
 320 320 l 1,38,-1
 256 320 l 1,39,-1
 256 384 l 1,36,-1
EndSplineSet
EndChar

StartChar: scaron
Encoding: 287 353 285
Width: 384
VWidth: 1020
Flags: MW
LayerCount: 2
Fore
SplineSet
64 320 m 1,0,-1
 320 320 l 1,1,-1
 320 256 l 1,2,-1
 64 256 l 1,3,-1
 64 320 l 1,0,-1
64 256 m 1,4,-1
 64 192 l 1,5,-1
 0 192 l 1,6,-1
 0 256 l 1,7,-1
 64 256 l 1,4,-1
64 192 m 1,8,-1
 256 192 l 1,9,-1
 256 128 l 1,10,-1
 64 128 l 1,11,-1
 64 192 l 1,8,-1
256 128 m 1,12,-1
 320 128 l 1,13,-1
 320 64 l 1,14,-1
 256 64 l 1,15,-1
 256 128 l 1,12,-1
256 64 m 1,16,-1
 256 0 l 1,17,-1
 0 0 l 1,18,-1
 0 64 l 1,19,-1
 256 64 l 1,16,-1
192 448 m 1,20,-1
 192 512 l 1,21,-1
 256 512 l 1,22,-1
 256 448 l 1,23,-1
 192 448 l 1,20,-1
192 448 m 1,24,-1
 192 384 l 1,25,-1
 128 384 l 1,26,-1
 128 448 l 1,27,-1
 64 448 l 1,28,-1
 64 512 l 1,29,-1
 128 512 l 1,30,-1
 128 448 l 1,31,-1
 192 448 l 1,24,-1
EndSplineSet
EndChar

StartChar: Tcommaaccent
Encoding: 288 354 286
Width: 384
VWidth: 1020
Flags: MW
LayerCount: 2
Fore
SplineSet
192 -64 m 1,0,-1
 128 -64 l 1,1,-1
 128 384 l 1,2,-1
 0 384 l 1,3,-1
 0 448 l 1,4,-1
 320 448 l 1,5,-1
 320 384 l 1,6,-1
 192 384 l 1,7,-1
 192 -64 l 1,0,-1
192 -64 m 1,8,-1
 256 -64 l 1,9,-1
 256 -128 l 1,10,-1
 192 -128 l 1,11,-1
 192 -64 l 1,8,-1
192 -128 m 1,12,-1
 192 -192 l 1,13,-1
 64 -192 l 1,14,-1
 64 -128 l 1,15,-1
 192 -128 l 1,12,-1
EndSplineSet
EndChar

StartChar: tcommaaccent
Encoding: 289 355 287
Width: 384
VWidth: 1020
Flags: MW
LayerCount: 2
Fore
SplineSet
128 -192 m 1,0,-1
 128 -128 l 1,1,-1
 192 -128 l 1,2,-1
 192 -64 l 1,3,-1
 256 -64 l 1,4,-1
 256 -128 l 1,5,-1
 192 -128 l 1,6,-1
 192 -192 l 1,7,-1
 128 -192 l 1,0,-1
192 64 m 1,8,-1
 128 64 l 1,9,-1
 128 256 l 1,10,-1
 64 256 l 1,11,-1
 64 320 l 1,12,-1
 128 320 l 1,13,-1
 128 384 l 1,14,-1
 192 384 l 1,15,-1
 192 320 l 1,16,-1
 320 320 l 1,17,-1
 320 256 l 1,18,-1
 192 256 l 1,19,-1
 192 64 l 1,8,-1
192 64 m 1,20,-1
 320 64 l 1,21,-1
 320 0 l 1,22,-1
 192 0 l 1,23,-1
 192 64 l 1,20,-1
EndSplineSet
EndChar

StartChar: Tcaron
Encoding: 290 356 288
Width: 384
VWidth: 1020
Flags: MW
LayerCount: 2
Fore
SplineSet
128 0 m 1,0,-1
 128 384 l 1,1,-1
 0 384 l 1,2,-1
 0 448 l 1,3,-1
 320 448 l 1,4,-1
 320 384 l 1,5,-1
 192 384 l 1,6,-1
 192 0 l 1,7,-1
 128 0 l 1,0,-1
192 576 m 1,8,-1
 192 640 l 1,9,-1
 256 640 l 1,10,-1
 256 576 l 1,11,-1
 192 576 l 1,8,-1
192 576 m 1,12,-1
 192 512 l 1,13,-1
 128 512 l 1,14,-1
 128 576 l 1,15,-1
 64 576 l 1,16,-1
 64 640 l 1,17,-1
 128 640 l 1,18,-1
 128 576 l 1,19,-1
 192 576 l 1,12,-1
EndSplineSet
EndChar

StartChar: tcaron
Encoding: 291 357 289
Width: 384
VWidth: 1020
Flags: MW
LayerCount: 2
Fore
SplineSet
256 256 m 1,0,-1
 256 448 l 1,1,-1
 320 448 l 1,2,-1
 320 256 l 1,3,-1
 256 256 l 1,0,-1
128 64 m 1,4,-1
 64 64 l 1,5,-1
 64 256 l 1,6,-1
 0 256 l 1,7,-1
 0 320 l 1,8,-1
 64 320 l 1,9,-1
 64 384 l 1,10,-1
 128 384 l 1,11,-1
 128 320 l 1,12,-1
 192 320 l 1,13,-1
 192 256 l 1,14,-1
 128 256 l 1,15,-1
 128 64 l 1,4,-1
128 64 m 1,16,-1
 256 64 l 1,17,-1
 256 0 l 1,18,-1
 128 0 l 1,19,-1
 128 64 l 1,16,-1
EndSplineSet
EndChar

StartChar: Tbar
Encoding: 292 358 290
Width: 384
VWidth: 1020
Flags: MW
LayerCount: 2
Fore
SplineSet
128 0 m 1,0,-1
 128 192 l 1,1,-1
 64 192 l 1,2,-1
 64 256 l 1,3,-1
 128 256 l 1,4,-1
 128 384 l 1,5,-1
 0 384 l 1,6,-1
 0 448 l 1,7,-1
 320 448 l 1,8,-1
 320 384 l 1,9,-1
 192 384 l 1,10,-1
 192 256 l 1,11,-1
 256 256 l 1,12,-1
 256 192 l 1,13,-1
 192 192 l 1,14,-1
 192 0 l 1,15,-1
 128 0 l 1,0,-1
EndSplineSet
EndChar

StartChar: tbar
Encoding: 293 359 291
Width: 384
VWidth: 1020
Flags: MW
LayerCount: 2
Fore
SplineSet
192 64 m 1,0,-1
 128 64 l 1,1,-1
 128 128 l 1,2,-1
 64 128 l 1,3,-1
 64 192 l 1,4,-1
 128 192 l 1,5,-1
 128 256 l 1,6,-1
 64 256 l 1,7,-1
 64 320 l 1,8,-1
 128 320 l 1,9,-1
 128 384 l 1,10,-1
 192 384 l 1,11,-1
 192 320 l 1,12,-1
 320 320 l 1,13,-1
 320 256 l 1,14,-1
 192 256 l 1,15,-1
 192 192 l 1,16,-1
 256 192 l 1,17,-1
 256 128 l 1,18,-1
 192 128 l 1,19,-1
 192 64 l 1,0,-1
192 64 m 1,20,-1
 320 64 l 1,21,-1
 320 0 l 1,22,-1
 192 0 l 1,23,-1
 192 64 l 1,20,-1
EndSplineSet
EndChar

StartChar: Utilde
Encoding: 294 360 292
Width: 384
VWidth: 1020
Flags: MW
LayerCount: 2
Fore
SplineSet
256 512 m 1,0,-1
 128 512 l 1,1,-1
 128 576 l 1,2,-1
 64 576 l 1,3,-1
 64 640 l 1,4,-1
 192 640 l 1,5,-1
 192 576 l 1,6,-1
 256 576 l 1,7,-1
 256 640 l 1,8,-1
 320 640 l 1,9,-1
 320 576 l 1,10,-1
 256 576 l 1,11,-1
 256 512 l 1,0,-1
0 512 m 1,12,-1
 0 576 l 1,13,-1
 64 576 l 1,14,-1
 64 512 l 1,15,-1
 0 512 l 1,12,-1
256 64 m 1,16,-1
 256 448 l 1,17,-1
 320 448 l 1,18,-1
 320 64 l 1,19,-1
 256 64 l 1,16,-1
256 64 m 1,20,-1
 256 0 l 1,21,-1
 64 0 l 1,22,-1
 64 64 l 1,23,-1
 0 64 l 1,24,-1
 0 448 l 1,25,-1
 64 448 l 1,26,-1
 64 64 l 1,27,-1
 256 64 l 1,20,-1
EndSplineSet
EndChar

StartChar: utilde
Encoding: 295 361 293
Width: 384
VWidth: 1020
Flags: MW
LayerCount: 2
Fore
SplineSet
256 384 m 1,0,-1
 128 384 l 1,1,-1
 128 448 l 1,2,-1
 64 448 l 1,3,-1
 64 512 l 1,4,-1
 192 512 l 1,5,-1
 192 448 l 1,6,-1
 256 448 l 1,7,-1
 256 512 l 1,8,-1
 320 512 l 1,9,-1
 320 448 l 1,10,-1
 256 448 l 1,11,-1
 256 384 l 1,0,-1
0 384 m 1,12,-1
 0 448 l 1,13,-1
 64 448 l 1,14,-1
 64 384 l 1,15,-1
 0 384 l 1,12,-1
256 64 m 1,16,-1
 256 320 l 1,17,-1
 320 320 l 1,18,-1
 320 64 l 1,19,-1
 256 64 l 1,16,-1
256 64 m 1,20,-1
 256 0 l 1,21,-1
 64 0 l 1,22,-1
 64 64 l 1,23,-1
 0 64 l 1,24,-1
 0 320 l 1,25,-1
 64 320 l 1,26,-1
 64 64 l 1,27,-1
 256 64 l 1,20,-1
EndSplineSet
EndChar

StartChar: Umacron
Encoding: 296 362 294
Width: 384
VWidth: 1020
Flags: MW
LayerCount: 2
Fore
SplineSet
64 576 m 1,0,-1
 256 576 l 1,1,-1
 256 512 l 1,2,-1
 64 512 l 1,3,-1
 64 576 l 1,0,-1
256 64 m 1,4,-1
 256 448 l 1,5,-1
 320 448 l 1,6,-1
 320 64 l 1,7,-1
 256 64 l 1,4,-1
256 64 m 1,8,-1
 256 0 l 1,9,-1
 64 0 l 1,10,-1
 64 64 l 1,11,-1
 0 64 l 1,12,-1
 0 448 l 1,13,-1
 64 448 l 1,14,-1
 64 64 l 1,15,-1
 256 64 l 1,8,-1
EndSplineSet
EndChar

StartChar: umacron
Encoding: 297 363 295
Width: 384
VWidth: 1020
Flags: MW
LayerCount: 2
Fore
SplineSet
64 448 m 1,0,-1
 256 448 l 1,1,-1
 256 384 l 1,2,-1
 64 384 l 1,3,-1
 64 448 l 1,0,-1
256 64 m 1,4,-1
 256 320 l 1,5,-1
 320 320 l 1,6,-1
 320 64 l 1,7,-1
 256 64 l 1,4,-1
256 64 m 1,8,-1
 256 0 l 1,9,-1
 64 0 l 1,10,-1
 64 64 l 1,11,-1
 0 64 l 1,12,-1
 0 320 l 1,13,-1
 64 320 l 1,14,-1
 64 64 l 1,15,-1
 256 64 l 1,8,-1
EndSplineSet
EndChar

StartChar: Ubreve
Encoding: 298 364 296
Width: 384
VWidth: 1020
Flags: MW
LayerCount: 2
Fore
SplineSet
256 576 m 1,0,-1
 256 640 l 1,1,-1
 320 640 l 1,2,-1
 320 576 l 1,3,-1
 256 576 l 1,0,-1
256 576 m 1,4,-1
 256 512 l 1,5,-1
 128 512 l 1,6,-1
 128 576 l 1,7,-1
 64 576 l 1,8,-1
 64 640 l 1,9,-1
 128 640 l 1,10,-1
 128 576 l 1,11,-1
 256 576 l 1,4,-1
256 64 m 1,12,-1
 256 448 l 1,13,-1
 320 448 l 1,14,-1
 320 64 l 1,15,-1
 256 64 l 1,12,-1
256 64 m 1,16,-1
 256 0 l 1,17,-1
 64 0 l 1,18,-1
 64 64 l 1,19,-1
 0 64 l 1,20,-1
 0 448 l 1,21,-1
 64 448 l 1,22,-1
 64 64 l 1,23,-1
 256 64 l 1,16,-1
EndSplineSet
EndChar

StartChar: ubreve
Encoding: 299 365 297
Width: 384
VWidth: 1020
Flags: MW
LayerCount: 2
Fore
SplineSet
256 448 m 1,0,-1
 256 512 l 1,1,-1
 320 512 l 1,2,-1
 320 448 l 1,3,-1
 256 448 l 1,0,-1
256 448 m 1,4,-1
 256 384 l 1,5,-1
 128 384 l 1,6,-1
 128 448 l 1,7,-1
 64 448 l 1,8,-1
 64 512 l 1,9,-1
 128 512 l 1,10,-1
 128 448 l 1,11,-1
 256 448 l 1,4,-1
256 64 m 1,12,-1
 256 320 l 1,13,-1
 320 320 l 1,14,-1
 320 64 l 1,15,-1
 256 64 l 1,12,-1
256 64 m 1,16,-1
 256 0 l 1,17,-1
 64 0 l 1,18,-1
 64 64 l 1,19,-1
 0 64 l 1,20,-1
 0 320 l 1,21,-1
 64 320 l 1,22,-1
 64 64 l 1,23,-1
 256 64 l 1,16,-1
EndSplineSet
EndChar

StartChar: Uring
Encoding: 300 366 298
Width: 384
VWidth: 1020
Flags: MW
LayerCount: 2
Fore
SplineSet
128 576 m 1,0,-1
 128 640 l 1,1,-1
 192 640 l 1,2,-1
 192 576 l 1,3,-1
 128 576 l 1,0,-1
128 576 m 1,4,-1
 128 512 l 1,5,-1
 64 512 l 1,6,-1
 64 576 l 1,7,-1
 128 576 l 1,4,-1
192 576 m 1,8,-1
 256 576 l 1,9,-1
 256 512 l 1,10,-1
 192 512 l 1,11,-1
 192 576 l 1,8,-1
256 64 m 1,12,-1
 256 448 l 1,13,-1
 320 448 l 1,14,-1
 320 64 l 1,15,-1
 256 64 l 1,12,-1
256 64 m 1,16,-1
 256 0 l 1,17,-1
 64 0 l 1,18,-1
 64 64 l 1,19,-1
 0 64 l 1,20,-1
 0 448 l 1,21,-1
 64 448 l 1,22,-1
 64 64 l 1,23,-1
 256 64 l 1,16,-1
192 512 m 1,24,-1
 192 448 l 1,25,-1
 128 448 l 1,26,-1
 128 512 l 1,27,-1
 192 512 l 1,24,-1
EndSplineSet
EndChar

StartChar: uring
Encoding: 301 367 299
Width: 384
VWidth: 1020
Flags: MW
LayerCount: 2
Fore
SplineSet
128 512 m 1,0,-1
 128 576 l 1,1,-1
 192 576 l 1,2,-1
 192 512 l 1,3,-1
 128 512 l 1,0,-1
128 512 m 1,4,-1
 128 448 l 1,5,-1
 64 448 l 1,6,-1
 64 512 l 1,7,-1
 128 512 l 1,4,-1
192 512 m 1,8,-1
 256 512 l 1,9,-1
 256 448 l 1,10,-1
 192 448 l 1,11,-1
 192 512 l 1,8,-1
256 64 m 1,12,-1
 256 320 l 1,13,-1
 320 320 l 1,14,-1
 320 64 l 1,15,-1
 256 64 l 1,12,-1
256 64 m 1,16,-1
 256 0 l 1,17,-1
 64 0 l 1,18,-1
 64 64 l 1,19,-1
 0 64 l 1,20,-1
 0 320 l 1,21,-1
 64 320 l 1,22,-1
 64 64 l 1,23,-1
 256 64 l 1,16,-1
192 448 m 1,24,-1
 192 384 l 1,25,-1
 128 384 l 1,26,-1
 128 448 l 1,27,-1
 192 448 l 1,24,-1
EndSplineSet
EndChar

StartChar: Uhungarumlaut
Encoding: 302 368 300
Width: 384
VWidth: 1020
Flags: MW
LayerCount: 2
Fore
SplineSet
0 512 m 1,0,-1
 0 576 l 1,1,-1
 64 576 l 1,2,-1
 64 640 l 1,3,-1
 128 640 l 1,4,-1
 128 576 l 1,5,-1
 64 576 l 1,6,-1
 64 512 l 1,7,-1
 0 512 l 1,0,-1
192 512 m 1,8,-1
 192 576 l 1,9,-1
 256 576 l 1,10,-1
 256 640 l 1,11,-1
 320 640 l 1,12,-1
 320 576 l 1,13,-1
 256 576 l 1,14,-1
 256 512 l 1,15,-1
 192 512 l 1,8,-1
256 64 m 1,16,-1
 256 448 l 1,17,-1
 320 448 l 1,18,-1
 320 64 l 1,19,-1
 256 64 l 1,16,-1
256 64 m 1,20,-1
 256 0 l 1,21,-1
 64 0 l 1,22,-1
 64 64 l 1,23,-1
 0 64 l 1,24,-1
 0 448 l 1,25,-1
 64 448 l 1,26,-1
 64 64 l 1,27,-1
 256 64 l 1,20,-1
EndSplineSet
EndChar

StartChar: uhungarumlaut
Encoding: 303 369 301
Width: 384
VWidth: 1020
Flags: MW
LayerCount: 2
Fore
SplineSet
0 384 m 1,0,-1
 0 448 l 1,1,-1
 64 448 l 1,2,-1
 64 512 l 1,3,-1
 128 512 l 1,4,-1
 128 448 l 1,5,-1
 64 448 l 1,6,-1
 64 384 l 1,7,-1
 0 384 l 1,0,-1
192 384 m 1,8,-1
 192 448 l 1,9,-1
 256 448 l 1,10,-1
 256 512 l 1,11,-1
 320 512 l 1,12,-1
 320 448 l 1,13,-1
 256 448 l 1,14,-1
 256 384 l 1,15,-1
 192 384 l 1,8,-1
256 64 m 1,16,-1
 256 320 l 1,17,-1
 320 320 l 1,18,-1
 320 64 l 1,19,-1
 256 64 l 1,16,-1
256 64 m 1,20,-1
 256 0 l 1,21,-1
 64 0 l 1,22,-1
 64 64 l 1,23,-1
 0 64 l 1,24,-1
 0 320 l 1,25,-1
 64 320 l 1,26,-1
 64 64 l 1,27,-1
 256 64 l 1,20,-1
EndSplineSet
EndChar

StartChar: Uogonek
Encoding: 304 370 302
Width: 384
VWidth: 1020
Flags: MW
LayerCount: 2
Fore
SplineSet
256 64 m 1,0,-1
 256 448 l 1,1,-1
 320 448 l 1,2,-1
 320 64 l 1,3,-1
 256 64 l 1,0,-1
256 64 m 1,4,-1
 256 0 l 1,5,-1
 192 0 l 1,6,-1
 192 -64 l 1,7,-1
 128 -64 l 1,8,-1
 128 0 l 1,9,-1
 64 0 l 1,10,-1
 64 64 l 1,11,-1
 0 64 l 1,12,-1
 0 448 l 1,13,-1
 64 448 l 1,14,-1
 64 64 l 1,15,-1
 256 64 l 1,4,-1
128 -64 m 1,16,-1
 128 -128 l 1,17,-1
 64 -128 l 1,18,-1
 64 -64 l 1,19,-1
 128 -64 l 1,16,-1
128 -128 m 1,20,-1
 256 -128 l 1,21,-1
 256 -192 l 1,22,-1
 128 -192 l 1,23,-1
 128 -128 l 1,20,-1
EndSplineSet
EndChar

StartChar: uogonek
Encoding: 305 371 303
Width: 384
VWidth: 1020
Flags: MW
LayerCount: 2
Fore
SplineSet
256 64 m 1,0,-1
 256 320 l 1,1,-1
 320 320 l 1,2,-1
 320 64 l 1,3,-1
 256 64 l 1,0,-1
256 64 m 1,4,-1
 256 -64 l 1,5,-1
 192 -64 l 1,6,-1
 192 0 l 1,7,-1
 64 0 l 1,8,-1
 64 64 l 1,9,-1
 0 64 l 1,10,-1
 0 320 l 1,11,-1
 64 320 l 1,12,-1
 64 64 l 1,13,-1
 256 64 l 1,4,-1
192 -64 m 1,14,-1
 192 -128 l 1,15,-1
 128 -128 l 1,16,-1
 128 -64 l 1,17,-1
 192 -64 l 1,14,-1
192 -128 m 1,18,-1
 320 -128 l 1,19,-1
 320 -192 l 1,20,-1
 192 -192 l 1,21,-1
 192 -128 l 1,18,-1
EndSplineSet
EndChar

StartChar: Wcircumflex
Encoding: 306 372 304
Width: 384
VWidth: 1020
Flags: MW
LayerCount: 2
Fore
SplineSet
64 512 m 1,0,-1
 64 576 l 1,1,-1
 128 576 l 1,2,-1
 128 640 l 1,3,-1
 192 640 l 1,4,-1
 192 576 l 1,5,-1
 128 576 l 1,6,-1
 128 512 l 1,7,-1
 64 512 l 1,0,-1
0 0 m 1,8,-1
 0 448 l 1,9,-1
 64 448 l 1,10,-1
 64 128 l 1,11,-1
 128 128 l 1,12,-1
 128 256 l 1,13,-1
 192 256 l 1,14,-1
 192 128 l 1,15,-1
 128 128 l 1,16,-1
 128 64 l 1,17,-1
 64 64 l 1,18,-1
 64 0 l 1,19,-1
 0 0 l 1,8,-1
256 0 m 1,20,-1
 256 64 l 1,21,-1
 192 64 l 1,22,-1
 192 128 l 1,23,-1
 256 128 l 1,24,-1
 256 448 l 1,25,-1
 320 448 l 1,26,-1
 320 0 l 1,27,-1
 256 0 l 1,20,-1
192 576 m 1,28,-1
 256 576 l 1,29,-1
 256 512 l 1,30,-1
 192 512 l 1,31,-1
 192 576 l 1,28,-1
EndSplineSet
EndChar

StartChar: wcircumflex
Encoding: 307 373 305
Width: 384
VWidth: 1020
Flags: MW
LayerCount: 2
Fore
SplineSet
64 384 m 1,0,-1
 64 448 l 1,1,-1
 128 448 l 1,2,-1
 128 512 l 1,3,-1
 192 512 l 1,4,-1
 192 448 l 1,5,-1
 128 448 l 1,6,-1
 128 384 l 1,7,-1
 64 384 l 1,0,-1
0 0 m 1,8,-1
 0 320 l 1,9,-1
 64 320 l 1,10,-1
 64 128 l 1,11,-1
 128 128 l 1,12,-1
 128 256 l 1,13,-1
 192 256 l 1,14,-1
 192 128 l 1,15,-1
 128 128 l 1,16,-1
 128 64 l 1,17,-1
 64 64 l 1,18,-1
 64 0 l 1,19,-1
 0 0 l 1,8,-1
256 0 m 1,20,-1
 256 64 l 1,21,-1
 192 64 l 1,22,-1
 192 128 l 1,23,-1
 256 128 l 1,24,-1
 256 320 l 1,25,-1
 320 320 l 1,26,-1
 320 0 l 1,27,-1
 256 0 l 1,20,-1
192 448 m 1,28,-1
 256 448 l 1,29,-1
 256 384 l 1,30,-1
 192 384 l 1,31,-1
 192 448 l 1,28,-1
EndSplineSet
EndChar

StartChar: Ycircumflex
Encoding: 308 374 306
Width: 384
VWidth: 1020
Flags: MW
LayerCount: 2
Fore
SplineSet
64 512 m 1,0,-1
 64 576 l 1,1,-1
 128 576 l 1,2,-1
 128 640 l 1,3,-1
 192 640 l 1,4,-1
 192 576 l 1,5,-1
 128 576 l 1,6,-1
 128 512 l 1,7,-1
 64 512 l 1,0,-1
64 320 m 1,8,-1
 0 320 l 1,9,-1
 0 448 l 1,10,-1
 64 448 l 1,11,-1
 64 320 l 1,8,-1
64 320 m 1,12,-1
 128 320 l 1,13,-1
 128 256 l 1,14,-1
 64 256 l 1,15,-1
 64 320 l 1,12,-1
256 320 m 1,16,-1
 256 448 l 1,17,-1
 320 448 l 1,18,-1
 320 320 l 1,19,-1
 256 320 l 1,16,-1
256 320 m 1,20,-1
 256 256 l 1,21,-1
 192 256 l 1,22,-1
 192 320 l 1,23,-1
 256 320 l 1,20,-1
192 576 m 1,24,-1
 256 576 l 1,25,-1
 256 512 l 1,26,-1
 192 512 l 1,27,-1
 192 576 l 1,24,-1
192 256 m 1,28,-1
 192 0 l 1,29,-1
 128 0 l 1,30,-1
 128 256 l 1,31,-1
 192 256 l 1,28,-1
EndSplineSet
EndChar

StartChar: ycircumflex
Encoding: 309 375 307
Width: 384
VWidth: 1020
Flags: MW
LayerCount: 2
Fore
SplineSet
64 384 m 1,0,-1
 64 448 l 1,1,-1
 128 448 l 1,2,-1
 128 512 l 1,3,-1
 192 512 l 1,4,-1
 192 448 l 1,5,-1
 128 448 l 1,6,-1
 128 384 l 1,7,-1
 64 384 l 1,0,-1
64 64 m 1,8,-1
 0 64 l 1,9,-1
 0 320 l 1,10,-1
 64 320 l 1,11,-1
 64 64 l 1,8,-1
64 64 m 1,12,-1
 256 64 l 1,13,-1
 256 320 l 1,14,-1
 320 320 l 1,15,-1
 320 -64 l 1,16,-1
 256 -64 l 1,17,-1
 256 0 l 1,18,-1
 64 0 l 1,19,-1
 64 64 l 1,12,-1
256 -64 m 1,20,-1
 256 -128 l 1,21,-1
 64 -128 l 1,22,-1
 64 -64 l 1,23,-1
 256 -64 l 1,20,-1
192 448 m 1,24,-1
 256 448 l 1,25,-1
 256 384 l 1,26,-1
 192 384 l 1,27,-1
 192 448 l 1,24,-1
EndSplineSet
EndChar

StartChar: Ydieresis
Encoding: 310 376 308
Width: 384
VWidth: 1020
Flags: MW
LayerCount: 2
Fore
SplineSet
64 512 m 1,0,-1
 64 576 l 1,1,-1
 128 576 l 1,2,-1
 128 512 l 1,3,-1
 64 512 l 1,0,-1
192 512 m 1,4,-1
 192 576 l 1,5,-1
 256 576 l 1,6,-1
 256 512 l 1,7,-1
 192 512 l 1,4,-1
64 320 m 1,8,-1
 0 320 l 1,9,-1
 0 448 l 1,10,-1
 64 448 l 1,11,-1
 64 320 l 1,8,-1
64 320 m 1,12,-1
 128 320 l 1,13,-1
 128 256 l 1,14,-1
 64 256 l 1,15,-1
 64 320 l 1,12,-1
256 320 m 1,16,-1
 256 448 l 1,17,-1
 320 448 l 1,18,-1
 320 320 l 1,19,-1
 256 320 l 1,16,-1
256 320 m 1,20,-1
 256 256 l 1,21,-1
 192 256 l 1,22,-1
 192 320 l 1,23,-1
 256 320 l 1,20,-1
192 256 m 1,24,-1
 192 0 l 1,25,-1
 128 0 l 1,26,-1
 128 256 l 1,27,-1
 192 256 l 1,24,-1
EndSplineSet
EndChar

StartChar: Zacute
Encoding: 311 377 309
Width: 384
VWidth: 1020
Flags: MW
LayerCount: 2
Fore
SplineSet
64 64 m 1,0,-1
 320 64 l 1,1,-1
 320 0 l 1,2,-1
 0 0 l 1,3,-1
 0 128 l 1,4,-1
 64 128 l 1,5,-1
 64 192 l 1,6,-1
 128 192 l 1,7,-1
 128 256 l 1,8,-1
 192 256 l 1,9,-1
 192 320 l 1,10,-1
 256 320 l 1,11,-1
 256 384 l 1,12,-1
 0 384 l 1,13,-1
 0 448 l 1,14,-1
 320 448 l 1,15,-1
 320 320 l 1,16,-1
 256 320 l 1,17,-1
 256 256 l 1,18,-1
 192 256 l 1,19,-1
 192 192 l 1,20,-1
 128 192 l 1,21,-1
 128 128 l 1,22,-1
 64 128 l 1,23,-1
 64 64 l 1,0,-1
128 512 m 1,24,-1
 128 576 l 1,25,-1
 192 576 l 1,26,-1
 192 640 l 1,27,-1
 256 640 l 1,28,-1
 256 576 l 1,29,-1
 192 576 l 1,30,-1
 192 512 l 1,31,-1
 128 512 l 1,24,-1
EndSplineSet
EndChar

StartChar: zacute
Encoding: 312 378 310
Width: 384
VWidth: 1020
Flags: MW
LayerCount: 2
Fore
SplineSet
128 64 m 1,0,-1
 320 64 l 1,1,-1
 320 0 l 1,2,-1
 0 0 l 1,3,-1
 0 64 l 1,4,-1
 64 64 l 1,5,-1
 64 128 l 1,6,-1
 128 128 l 1,7,-1
 128 192 l 1,8,-1
 192 192 l 1,9,-1
 192 256 l 1,10,-1
 0 256 l 1,11,-1
 0 320 l 1,12,-1
 320 320 l 1,13,-1
 320 256 l 1,14,-1
 256 256 l 1,15,-1
 256 192 l 1,16,-1
 192 192 l 1,17,-1
 192 128 l 1,18,-1
 128 128 l 1,19,-1
 128 64 l 1,0,-1
128 384 m 1,20,-1
 128 448 l 1,21,-1
 192 448 l 1,22,-1
 192 512 l 1,23,-1
 256 512 l 1,24,-1
 256 448 l 1,25,-1
 192 448 l 1,26,-1
 192 384 l 1,27,-1
 128 384 l 1,20,-1
EndSplineSet
EndChar

StartChar: Zdotaccent
Encoding: 313 379 311
Width: 384
VWidth: 1020
Flags: MW
LayerCount: 2
Fore
SplineSet
64 64 m 1,0,-1
 320 64 l 1,1,-1
 320 0 l 1,2,-1
 0 0 l 1,3,-1
 0 128 l 1,4,-1
 64 128 l 1,5,-1
 64 192 l 1,6,-1
 128 192 l 1,7,-1
 128 256 l 1,8,-1
 192 256 l 1,9,-1
 192 320 l 1,10,-1
 256 320 l 1,11,-1
 256 384 l 1,12,-1
 0 384 l 1,13,-1
 0 448 l 1,14,-1
 320 448 l 1,15,-1
 320 320 l 1,16,-1
 256 320 l 1,17,-1
 256 256 l 1,18,-1
 192 256 l 1,19,-1
 192 192 l 1,20,-1
 128 192 l 1,21,-1
 128 128 l 1,22,-1
 64 128 l 1,23,-1
 64 64 l 1,0,-1
128 512 m 1,24,-1
 128 576 l 1,25,-1
 192 576 l 1,26,-1
 192 512 l 1,27,-1
 128 512 l 1,24,-1
EndSplineSet
EndChar

StartChar: zdotaccent
Encoding: 314 380 312
Width: 384
VWidth: 1020
Flags: MW
LayerCount: 2
Fore
SplineSet
128 64 m 1,0,-1
 320 64 l 1,1,-1
 320 0 l 1,2,-1
 0 0 l 1,3,-1
 0 64 l 1,4,-1
 64 64 l 1,5,-1
 64 128 l 1,6,-1
 128 128 l 1,7,-1
 128 192 l 1,8,-1
 192 192 l 1,9,-1
 192 256 l 1,10,-1
 0 256 l 1,11,-1
 0 320 l 1,12,-1
 320 320 l 1,13,-1
 320 256 l 1,14,-1
 256 256 l 1,15,-1
 256 192 l 1,16,-1
 192 192 l 1,17,-1
 192 128 l 1,18,-1
 128 128 l 1,19,-1
 128 64 l 1,0,-1
128 384 m 1,20,-1
 128 448 l 1,21,-1
 192 448 l 1,22,-1
 192 384 l 1,23,-1
 128 384 l 1,20,-1
EndSplineSet
EndChar

StartChar: Zcaron
Encoding: 315 381 313
Width: 384
VWidth: 1020
Flags: MW
LayerCount: 2
Fore
SplineSet
64 64 m 1,0,-1
 320 64 l 1,1,-1
 320 0 l 1,2,-1
 0 0 l 1,3,-1
 0 128 l 1,4,-1
 64 128 l 1,5,-1
 64 192 l 1,6,-1
 128 192 l 1,7,-1
 128 256 l 1,8,-1
 192 256 l 1,9,-1
 192 320 l 1,10,-1
 256 320 l 1,11,-1
 256 384 l 1,12,-1
 0 384 l 1,13,-1
 0 448 l 1,14,-1
 320 448 l 1,15,-1
 320 320 l 1,16,-1
 256 320 l 1,17,-1
 256 256 l 1,18,-1
 192 256 l 1,19,-1
 192 192 l 1,20,-1
 128 192 l 1,21,-1
 128 128 l 1,22,-1
 64 128 l 1,23,-1
 64 64 l 1,0,-1
192 576 m 1,24,-1
 192 640 l 1,25,-1
 256 640 l 1,26,-1
 256 576 l 1,27,-1
 192 576 l 1,24,-1
192 576 m 1,28,-1
 192 512 l 1,29,-1
 128 512 l 1,30,-1
 128 576 l 1,31,-1
 64 576 l 1,32,-1
 64 640 l 1,33,-1
 128 640 l 1,34,-1
 128 576 l 1,35,-1
 192 576 l 1,28,-1
EndSplineSet
EndChar

StartChar: zcaron
Encoding: 316 382 314
Width: 384
VWidth: 1020
Flags: MW
LayerCount: 2
Fore
SplineSet
128 64 m 1,0,-1
 320 64 l 1,1,-1
 320 0 l 1,2,-1
 0 0 l 1,3,-1
 0 64 l 1,4,-1
 64 64 l 1,5,-1
 64 128 l 1,6,-1
 128 128 l 1,7,-1
 128 192 l 1,8,-1
 192 192 l 1,9,-1
 192 256 l 1,10,-1
 0 256 l 1,11,-1
 0 320 l 1,12,-1
 320 320 l 1,13,-1
 320 256 l 1,14,-1
 256 256 l 1,15,-1
 256 192 l 1,16,-1
 192 192 l 1,17,-1
 192 128 l 1,18,-1
 128 128 l 1,19,-1
 128 64 l 1,0,-1
192 448 m 1,20,-1
 192 512 l 1,21,-1
 256 512 l 1,22,-1
 256 448 l 1,23,-1
 192 448 l 1,20,-1
192 448 m 1,24,-1
 192 384 l 1,25,-1
 128 384 l 1,26,-1
 128 448 l 1,27,-1
 64 448 l 1,28,-1
 64 512 l 1,29,-1
 128 512 l 1,30,-1
 128 448 l 1,31,-1
 192 448 l 1,24,-1
EndSplineSet
EndChar

StartChar: longs
Encoding: 317 383 315
Width: 384
VWidth: 1020
Flags: MW
LayerCount: 2
Fore
SplineSet
128 0 m 1,0,-1
 128 384 l 1,1,-1
 192 384 l 1,2,-1
 192 448 l 1,3,-1
 256 448 l 1,4,-1
 256 384 l 1,5,-1
 192 384 l 1,6,-1
 192 0 l 1,7,-1
 128 0 l 1,0,-1
EndSplineSet
EndChar

StartChar: Scommaaccent
Encoding: 318 536 316
Width: 384
VWidth: 1020
Flags: MW
LayerCount: 2
Fore
SplineSet
64 -192 m 1,0,-1
 64 -128 l 1,1,-1
 128 -128 l 1,2,-1
 128 -64 l 1,3,-1
 192 -64 l 1,4,-1
 192 -128 l 1,5,-1
 128 -128 l 1,6,-1
 128 -192 l 1,7,-1
 64 -192 l 1,0,-1
64 384 m 1,8,-1
 64 448 l 1,9,-1
 256 448 l 1,10,-1
 256 384 l 1,11,-1
 64 384 l 1,8,-1
64 384 m 1,12,-1
 64 256 l 1,13,-1
 0 256 l 1,14,-1
 0 384 l 1,15,-1
 64 384 l 1,12,-1
64 256 m 1,16,-1
 256 256 l 1,17,-1
 256 192 l 1,18,-1
 64 192 l 1,19,-1
 64 256 l 1,16,-1
256 192 m 1,20,-1
 320 192 l 1,21,-1
 320 64 l 1,22,-1
 256 64 l 1,23,-1
 256 192 l 1,20,-1
256 64 m 1,24,-1
 256 0 l 1,25,-1
 64 0 l 1,26,-1
 64 64 l 1,27,-1
 0 64 l 1,28,-1
 0 128 l 1,29,-1
 64 128 l 1,30,-1
 64 64 l 1,31,-1
 256 64 l 1,24,-1
256 384 m 1,32,-1
 320 384 l 1,33,-1
 320 320 l 1,34,-1
 256 320 l 1,35,-1
 256 384 l 1,32,-1
EndSplineSet
EndChar

StartChar: scommaaccent
Encoding: 319 537 317
Width: 384
VWidth: 1020
Flags: MW
LayerCount: 2
Fore
SplineSet
64 320 m 1,0,-1
 320 320 l 1,1,-1
 320 256 l 1,2,-1
 64 256 l 1,3,-1
 64 320 l 1,0,-1
64 -192 m 1,4,-1
 64 -128 l 1,5,-1
 128 -128 l 1,6,-1
 128 -64 l 1,7,-1
 192 -64 l 1,8,-1
 192 -128 l 1,9,-1
 128 -128 l 1,10,-1
 128 -192 l 1,11,-1
 64 -192 l 1,4,-1
64 256 m 1,12,-1
 64 192 l 1,13,-1
 0 192 l 1,14,-1
 0 256 l 1,15,-1
 64 256 l 1,12,-1
64 192 m 1,16,-1
 256 192 l 1,17,-1
 256 128 l 1,18,-1
 64 128 l 1,19,-1
 64 192 l 1,16,-1
256 128 m 1,20,-1
 320 128 l 1,21,-1
 320 64 l 1,22,-1
 256 64 l 1,23,-1
 256 128 l 1,20,-1
256 64 m 1,24,-1
 256 0 l 1,25,-1
 0 0 l 1,26,-1
 0 64 l 1,27,-1
 256 64 l 1,24,-1
EndSplineSet
EndChar

StartChar: uni021A
Encoding: 320 538 318
Width: 384
VWidth: 1020
Flags: MW
LayerCount: 2
Fore
SplineSet
128 0 m 1,0,-1
 128 384 l 1,1,-1
 0 384 l 1,2,-1
 0 448 l 1,3,-1
 320 448 l 1,4,-1
 320 384 l 1,5,-1
 192 384 l 1,6,-1
 192 0 l 1,7,-1
 128 0 l 1,0,-1
64 -192 m 1,8,-1
 64 -128 l 1,9,-1
 128 -128 l 1,10,-1
 128 -64 l 1,11,-1
 192 -64 l 1,12,-1
 192 -128 l 1,13,-1
 128 -128 l 1,14,-1
 128 -192 l 1,15,-1
 64 -192 l 1,8,-1
EndSplineSet
EndChar

StartChar: uni021B
Encoding: 321 539 319
Width: 384
VWidth: 1020
Flags: MW
LayerCount: 2
Fore
SplineSet
128 -192 m 1,0,-1
 128 -128 l 1,1,-1
 192 -128 l 1,2,-1
 192 -64 l 1,3,-1
 256 -64 l 1,4,-1
 256 -128 l 1,5,-1
 192 -128 l 1,6,-1
 192 -192 l 1,7,-1
 128 -192 l 1,0,-1
192 64 m 1,8,-1
 128 64 l 1,9,-1
 128 256 l 1,10,-1
 64 256 l 1,11,-1
 64 320 l 1,12,-1
 128 320 l 1,13,-1
 128 384 l 1,14,-1
 192 384 l 1,15,-1
 192 320 l 1,16,-1
 320 320 l 1,17,-1
 320 256 l 1,18,-1
 192 256 l 1,19,-1
 192 64 l 1,8,-1
192 64 m 1,20,-1
 320 64 l 1,21,-1
 320 0 l 1,22,-1
 192 0 l 1,23,-1
 192 64 l 1,20,-1
EndSplineSet
EndChar

StartChar: uni1E02
Encoding: 322 7682 320
Width: 384
VWidth: 1020
Flags: MW
LayerCount: 2
Fore
SplineSet
128 512 m 1,0,-1
 128 576 l 1,1,-1
 192 576 l 1,2,-1
 192 512 l 1,3,-1
 128 512 l 1,0,-1
64 64 m 1,4,-1
 256 64 l 1,5,-1
 256 192 l 1,6,-1
 64 192 l 1,7,-1
 64 64 l 1,4,-1
256 0 m 1,8,-1
 0 0 l 1,9,-1
 0 448 l 1,10,-1
 256 448 l 1,11,-1
 256 384 l 1,12,-1
 320 384 l 1,13,-1
 320 256 l 1,14,-1
 256 256 l 1,15,-1
 256 384 l 1,16,-1
 64 384 l 1,17,-1
 64 256 l 1,18,-1
 256 256 l 1,19,-1
 256 192 l 1,20,-1
 320 192 l 1,21,-1
 320 64 l 1,22,-1
 256 64 l 1,23,-1
 256 0 l 1,8,-1
EndSplineSet
EndChar

StartChar: uni1E03
Encoding: 323 7683 321
Width: 384
VWidth: 1020
Flags: MW
LayerCount: 2
Fore
SplineSet
192 384 m 1,0,-1
 192 448 l 1,1,-1
 256 448 l 1,2,-1
 256 384 l 1,3,-1
 192 384 l 1,0,-1
64 64 m 1,4,-1
 256 64 l 1,5,-1
 256 256 l 1,6,-1
 64 256 l 1,7,-1
 64 64 l 1,4,-1
256 0 m 1,8,-1
 0 0 l 1,9,-1
 0 448 l 1,10,-1
 64 448 l 1,11,-1
 64 320 l 1,12,-1
 256 320 l 1,13,-1
 256 256 l 1,14,-1
 320 256 l 1,15,-1
 320 64 l 1,16,-1
 256 64 l 1,17,-1
 256 0 l 1,8,-1
EndSplineSet
EndChar

StartChar: uni1E0A
Encoding: 324 7690 322
Width: 384
VWidth: 1020
Flags: MW
LayerCount: 2
Fore
SplineSet
128 512 m 1,0,-1
 128 576 l 1,1,-1
 192 576 l 1,2,-1
 192 512 l 1,3,-1
 128 512 l 1,0,-1
64 64 m 1,4,-1
 256 64 l 1,5,-1
 256 384 l 1,6,-1
 64 384 l 1,7,-1
 64 64 l 1,4,-1
256 0 m 1,8,-1
 0 0 l 1,9,-1
 0 448 l 1,10,-1
 256 448 l 1,11,-1
 256 384 l 1,12,-1
 320 384 l 1,13,-1
 320 64 l 1,14,-1
 256 64 l 1,15,-1
 256 0 l 1,8,-1
EndSplineSet
EndChar

StartChar: uni1E0B
Encoding: 325 7691 323
Width: 384
VWidth: 1020
Flags: MW
LayerCount: 2
Fore
SplineSet
64 384 m 1,0,-1
 64 448 l 1,1,-1
 128 448 l 1,2,-1
 128 384 l 1,3,-1
 64 384 l 1,0,-1
320 0 m 1,4,-1
 64 0 l 1,5,-1
 64 64 l 1,6,-1
 0 64 l 1,7,-1
 0 256 l 1,8,-1
 64 256 l 1,9,-1
 64 320 l 1,10,-1
 256 320 l 1,11,-1
 256 448 l 1,12,-1
 320 448 l 1,13,-1
 320 0 l 1,4,-1
64 64 m 1,14,-1
 256 64 l 1,15,-1
 256 256 l 1,16,-1
 64 256 l 1,17,-1
 64 64 l 1,14,-1
EndSplineSet
EndChar

StartChar: uni1E1E
Encoding: 326 7710 324
Width: 384
VWidth: 1020
Flags: MW
LayerCount: 2
Fore
SplineSet
0 0 m 1,0,-1
 0 448 l 1,1,-1
 320 448 l 1,2,-1
 320 384 l 1,3,-1
 64 384 l 1,4,-1
 64 256 l 1,5,-1
 256 256 l 1,6,-1
 256 192 l 1,7,-1
 64 192 l 1,8,-1
 64 0 l 1,9,-1
 0 0 l 1,0,-1
128 512 m 1,10,-1
 128 576 l 1,11,-1
 192 576 l 1,12,-1
 192 512 l 1,13,-1
 128 512 l 1,10,-1
EndSplineSet
EndChar

StartChar: uni1E1F
Encoding: 327 7711 325
Width: 384
VWidth: 1020
Flags: MW
LayerCount: 2
Fore
SplineSet
128 0 m 5,0,-1
 128 256 l 5,1,-1
 64 256 l 5,2,-1
 64 320 l 5,3,-1
 128 320 l 5,4,-1
 128 384 l 5,5,-1
 192 384 l 5,6,-1
 192 320 l 5,7,-1
 320 320 l 5,8,-1
 320 256 l 5,9,-1
 192 256 l 5,10,-1
 192 0 l 5,11,-1
 128 0 l 5,0,-1
192 512 m 5,12,-1
 192 576 l 5,13,-1
 256 576 l 5,14,-1
 256 512 l 5,15,-1
 192 512 l 5,12,-1
192 448 m 5,16,-1
 320 448 l 5,17,-1
 320 384 l 5,18,-1
 192 384 l 5,19,-1
 192 448 l 5,16,-1
EndSplineSet
EndChar

StartChar: uni1E40
Encoding: 328 7744 326
Width: 384
VWidth: 1020
Flags: MW
LayerCount: 2
Fore
SplineSet
256 0 m 1,0,-1
 256 320 l 1,1,-1
 192 320 l 1,2,-1
 192 192 l 1,3,-1
 128 192 l 1,4,-1
 128 320 l 1,5,-1
 192 320 l 1,6,-1
 192 384 l 1,7,-1
 256 384 l 1,8,-1
 256 448 l 1,9,-1
 320 448 l 1,10,-1
 320 0 l 1,11,-1
 256 0 l 1,0,-1
0 0 m 1,12,-1
 0 448 l 1,13,-1
 64 448 l 1,14,-1
 64 384 l 1,15,-1
 128 384 l 1,16,-1
 128 320 l 1,17,-1
 64 320 l 1,18,-1
 64 0 l 1,19,-1
 0 0 l 1,12,-1
128 512 m 1,20,-1
 128 576 l 1,21,-1
 192 576 l 1,22,-1
 192 512 l 1,23,-1
 128 512 l 1,20,-1
EndSplineSet
EndChar

StartChar: uni1E41
Encoding: 329 7745 327
Width: 384
VWidth: 1020
Flags: MW
LayerCount: 2
Fore
SplineSet
256 0 m 1,0,-1
 256 256 l 1,1,-1
 320 256 l 1,2,-1
 320 0 l 1,3,-1
 256 0 l 1,0,-1
128 0 m 1,4,-1
 128 256 l 1,5,-1
 64 256 l 1,6,-1
 64 0 l 1,7,-1
 0 0 l 1,8,-1
 0 320 l 1,9,-1
 256 320 l 1,10,-1
 256 256 l 1,11,-1
 192 256 l 1,12,-1
 192 0 l 1,13,-1
 128 0 l 1,4,-1
128 384 m 1,14,-1
 128 448 l 1,15,-1
 192 448 l 1,16,-1
 192 384 l 1,17,-1
 128 384 l 1,14,-1
EndSplineSet
EndChar

StartChar: uni1E56
Encoding: 330 7766 328
Width: 384
VWidth: 1020
Flags: MW
LayerCount: 2
Fore
SplineSet
0 0 m 1,0,-1
 0 448 l 1,1,-1
 256 448 l 1,2,-1
 256 384 l 1,3,-1
 320 384 l 1,4,-1
 320 256 l 1,5,-1
 256 256 l 1,6,-1
 256 384 l 1,7,-1
 64 384 l 1,8,-1
 64 256 l 1,9,-1
 256 256 l 1,10,-1
 256 192 l 1,11,-1
 64 192 l 1,12,-1
 64 0 l 1,13,-1
 0 0 l 1,0,-1
128 512 m 1,14,-1
 128 576 l 1,15,-1
 192 576 l 1,16,-1
 192 512 l 1,17,-1
 128 512 l 1,14,-1
EndSplineSet
EndChar

StartChar: uni1E57
Encoding: 331 7767 329
Width: 384
VWidth: 1020
Flags: MW
LayerCount: 2
Fore
SplineSet
0 -128 m 1,0,-1
 0 320 l 1,1,-1
 256 320 l 1,2,-1
 256 256 l 1,3,-1
 320 256 l 1,4,-1
 320 64 l 1,5,-1
 256 64 l 1,6,-1
 256 256 l 1,7,-1
 64 256 l 1,8,-1
 64 64 l 1,9,-1
 256 64 l 1,10,-1
 256 0 l 1,11,-1
 64 0 l 1,12,-1
 64 -128 l 1,13,-1
 0 -128 l 1,0,-1
128 384 m 1,14,-1
 128 448 l 1,15,-1
 192 448 l 1,16,-1
 192 384 l 1,17,-1
 128 384 l 1,14,-1
EndSplineSet
EndChar

StartChar: uni1E60
Encoding: 332 7776 330
Width: 384
VWidth: 1020
Flags: MW
LayerCount: 2
Fore
SplineSet
256 320 m 1,0,-1
 256 384 l 1,1,-1
 320 384 l 1,2,-1
 320 320 l 1,3,-1
 256 320 l 1,0,-1
128 512 m 1,4,-1
 128 576 l 1,5,-1
 192 576 l 1,6,-1
 192 512 l 1,7,-1
 128 512 l 1,4,-1
64 64 m 1,8,-1
 256 64 l 1,9,-1
 256 0 l 1,10,-1
 64 0 l 1,11,-1
 64 64 l 1,8,-1
256 64 m 1,12,-1
 256 192 l 1,13,-1
 320 192 l 1,14,-1
 320 64 l 1,15,-1
 256 64 l 1,12,-1
64 64 m 1,16,-1
 0 64 l 1,17,-1
 0 128 l 1,18,-1
 64 128 l 1,19,-1
 64 64 l 1,16,-1
256 192 m 1,20,-1
 64 192 l 1,21,-1
 64 256 l 1,22,-1
 256 256 l 1,23,-1
 256 192 l 1,20,-1
64 256 m 1,24,-1
 0 256 l 1,25,-1
 0 384 l 1,26,-1
 64 384 l 1,27,-1
 64 256 l 1,24,-1
256 384 m 1,28,-1
 64 384 l 1,29,-1
 64 448 l 1,30,-1
 256 448 l 1,31,-1
 256 384 l 1,28,-1
EndSplineSet
EndChar

StartChar: uni1E61
Encoding: 333 7777 331
Width: 384
VWidth: 1020
Flags: MW
LayerCount: 2
Fore
SplineSet
128 384 m 1,0,-1
 128 448 l 1,1,-1
 192 448 l 1,2,-1
 192 384 l 1,3,-1
 128 384 l 1,0,-1
0 64 m 1,4,-1
 256 64 l 1,5,-1
 256 0 l 1,6,-1
 0 0 l 1,7,-1
 0 64 l 1,4,-1
256 64 m 1,8,-1
 256 128 l 1,9,-1
 320 128 l 1,10,-1
 320 64 l 1,11,-1
 256 64 l 1,8,-1
256 128 m 1,12,-1
 64 128 l 1,13,-1
 64 192 l 1,14,-1
 256 192 l 1,15,-1
 256 128 l 1,12,-1
64 192 m 1,16,-1
 0 192 l 1,17,-1
 0 256 l 1,18,-1
 64 256 l 1,19,-1
 64 192 l 1,16,-1
64 320 m 1,20,-1
 320 320 l 1,21,-1
 320 256 l 1,22,-1
 64 256 l 1,23,-1
 64 320 l 1,20,-1
EndSplineSet
EndChar

StartChar: uni1E6A
Encoding: 334 7786 332
Width: 384
VWidth: 1020
Flags: MW
LayerCount: 2
Fore
SplineSet
128 0 m 1,0,-1
 128 384 l 1,1,-1
 0 384 l 1,2,-1
 0 448 l 1,3,-1
 320 448 l 1,4,-1
 320 384 l 1,5,-1
 192 384 l 1,6,-1
 192 0 l 1,7,-1
 128 0 l 1,0,-1
128 512 m 1,8,-1
 128 576 l 1,9,-1
 192 576 l 1,10,-1
 192 512 l 1,11,-1
 128 512 l 1,8,-1
EndSplineSet
EndChar

StartChar: uni1E6B
Encoding: 335 7787 333
Width: 384
VWidth: 1020
Flags: MW
LayerCount: 2
Fore
SplineSet
128 448 m 5,0,-1
 128 512 l 5,1,-1
 192 512 l 5,2,-1
 192 448 l 5,3,-1
 128 448 l 5,0,-1
192 64 m 5,4,-1
 320 64 l 5,5,-1
 320 0 l 5,6,-1
 192 0 l 5,7,-1
 192 64 l 5,4,-1
192 64 m 5,8,-1
 128 64 l 5,9,-1
 128 256 l 5,10,-1
 64 256 l 5,11,-1
 64 320 l 5,12,-1
 128 320 l 5,13,-1
 128 384 l 5,14,-1
 192 384 l 5,15,-1
 192 320 l 5,16,-1
 320 320 l 5,17,-1
 320 256 l 5,18,-1
 192 256 l 5,19,-1
 192 64 l 5,8,-1
EndSplineSet
EndChar

StartChar: endash
Encoding: 336 8211 334
Width: 384
VWidth: 1020
Flags: MW
LayerCount: 2
Fore
SplineSet
0 256 m 1,0,-1
 320 256 l 1,1,-1
 320 192 l 1,2,-1
 0 192 l 1,3,-1
 0 256 l 1,0,-1
EndSplineSet
EndChar

StartChar: emdash
Encoding: 337 8212 335
Width: 384
VWidth: 1020
Flags: MW
LayerCount: 2
Fore
SplineSet
0 256 m 1,0,-1
 320 256 l 1,1,-1
 320 192 l 1,2,-1
 0 192 l 1,3,-1
 0 256 l 1,0,-1
EndSplineSet
EndChar

StartChar: quoteleft
Encoding: 338 8216 336
Width: 384
VWidth: 1020
Flags: MW
LayerCount: 2
Fore
SplineSet
128 256 m 1,0,-1
 128 384 l 1,1,-1
 192 384 l 1,2,-1
 192 448 l 1,3,-1
 256 448 l 1,4,-1
 256 384 l 1,5,-1
 192 384 l 1,6,-1
 192 256 l 1,7,-1
 128 256 l 1,0,-1
EndSplineSet
EndChar

StartChar: quoteright
Encoding: 339 8217 337
Width: 384
VWidth: 1020
Flags: MW
LayerCount: 2
Fore
SplineSet
64 256 m 1,0,-1
 64 320 l 1,1,-1
 128 320 l 1,2,-1
 128 448 l 1,3,-1
 192 448 l 1,4,-1
 192 320 l 1,5,-1
 128 320 l 1,6,-1
 128 256 l 1,7,-1
 64 256 l 1,0,-1
EndSplineSet
EndChar

StartChar: quotesinglbase
Encoding: 340 8218 338
Width: 384
VWidth: 1020
Flags: MW
LayerCount: 2
Fore
SplineSet
64 -64 m 1,0,-1
 64 0 l 1,1,-1
 128 0 l 1,2,-1
 128 128 l 1,3,-1
 192 128 l 1,4,-1
 192 0 l 1,5,-1
 128 0 l 1,6,-1
 128 -64 l 1,7,-1
 64 -64 l 1,0,-1
EndSplineSet
EndChar

StartChar: quotedblleft
Encoding: 341 8220 339
Width: 384
VWidth: 1020
Flags: MW
LayerCount: 2
Fore
SplineSet
0 256 m 1,0,-1
 0 384 l 1,1,-1
 64 384 l 1,2,-1
 64 448 l 1,3,-1
 128 448 l 1,4,-1
 128 384 l 1,5,-1
 64 384 l 1,6,-1
 64 256 l 1,7,-1
 0 256 l 1,0,-1
192 384 m 1,8,-1
 192 448 l 1,9,-1
 256 448 l 1,10,-1
 256 384 l 1,11,-1
 192 384 l 1,8,-1
192 384 m 1,12,-1
 192 256 l 1,13,-1
 128 256 l 1,14,-1
 128 384 l 1,15,-1
 192 384 l 1,12,-1
EndSplineSet
EndChar

StartChar: quotedblright
Encoding: 342 8221 340
Width: 384
VWidth: 1020
Flags: MW
LayerCount: 2
Fore
SplineSet
0 256 m 1,0,-1
 0 320 l 1,1,-1
 64 320 l 1,2,-1
 64 448 l 1,3,-1
 128 448 l 1,4,-1
 128 320 l 1,5,-1
 64 320 l 1,6,-1
 64 256 l 1,7,-1
 0 256 l 1,0,-1
192 320 m 1,8,-1
 192 448 l 1,9,-1
 256 448 l 1,10,-1
 256 320 l 1,11,-1
 192 320 l 1,8,-1
192 320 m 1,12,-1
 192 256 l 1,13,-1
 128 256 l 1,14,-1
 128 320 l 1,15,-1
 192 320 l 1,12,-1
EndSplineSet
EndChar

StartChar: quotedblbase
Encoding: 343 8222 341
Width: 384
VWidth: 1020
Flags: MW
LayerCount: 2
Fore
SplineSet
0 -64 m 1,0,-1
 0 0 l 1,1,-1
 64 0 l 1,2,-1
 64 128 l 1,3,-1
 128 128 l 1,4,-1
 128 0 l 1,5,-1
 64 0 l 1,6,-1
 64 -64 l 1,7,-1
 0 -64 l 1,0,-1
192 0 m 1,8,-1
 192 128 l 1,9,-1
 256 128 l 1,10,-1
 256 0 l 1,11,-1
 192 0 l 1,8,-1
192 0 m 1,12,-1
 192 -64 l 1,13,-1
 128 -64 l 1,14,-1
 128 0 l 1,15,-1
 192 0 l 1,12,-1
EndSplineSet
EndChar

StartChar: ellipsis
Encoding: 344 8230 342
Width: 384
VWidth: 1020
Flags: MW
LayerCount: 2
Fore
SplineSet
0 0 m 1,0,-1
 0 64 l 1,1,-1
 64 64 l 1,2,-1
 64 0 l 1,3,-1
 0 0 l 1,0,-1
128 0 m 1,4,-1
 128 64 l 1,5,-1
 192 64 l 1,6,-1
 192 0 l 1,7,-1
 128 0 l 1,4,-1
256 0 m 1,8,-1
 256 64 l 1,9,-1
 320 64 l 1,10,-1
 320 0 l 1,11,-1
 256 0 l 1,8,-1
EndSplineSet
EndChar

StartChar: perthousand
Encoding: 345 8240 343
Width: 384
VWidth: 1020
Flags: MW
LayerCount: 2
Fore
SplineSet
0 192 m 1,0,-1
 0 256 l 1,1,-1
 192 256 l 1,2,-1
 192 320 l 1,3,-1
 320 320 l 1,4,-1
 320 256 l 1,5,-1
 192 256 l 1,6,-1
 192 192 l 1,7,-1
 0 192 l 1,0,-1
0 320 m 1,8,-1
 0 448 l 1,9,-1
 128 448 l 1,10,-1
 128 320 l 1,11,-1
 0 320 l 1,8,-1
0 0 m 1,12,-1
 0 128 l 1,13,-1
 128 128 l 1,14,-1
 128 0 l 1,15,-1
 0 0 l 1,12,-1
192 0 m 1,16,-1
 192 128 l 1,17,-1
 320 128 l 1,18,-1
 320 0 l 1,19,-1
 192 0 l 1,16,-1
EndSplineSet
EndChar

StartChar: minute
Encoding: 346 8242 344
Width: 384
VWidth: 1020
Flags: MW
LayerCount: 2
Fore
SplineSet
64 256 m 1,0,-1
 64 320 l 1,1,-1
 128 320 l 1,2,-1
 128 448 l 1,3,-1
 192 448 l 1,4,-1
 192 320 l 1,5,-1
 128 320 l 1,6,-1
 128 256 l 1,7,-1
 64 256 l 1,0,-1
EndSplineSet
EndChar

StartChar: second
Encoding: 347 8243 345
Width: 384
VWidth: 1020
Flags: MW
LayerCount: 2
Fore
SplineSet
128 256 m 1,0,-1
 128 320 l 1,1,-1
 64 320 l 1,2,-1
 64 448 l 1,3,-1
 128 448 l 1,4,-1
 128 384 l 1,5,-1
 192 384 l 1,6,-1
 192 448 l 1,7,-1
 256 448 l 1,8,-1
 256 384 l 1,9,-1
 192 384 l 1,10,-1
 192 256 l 1,11,-1
 128 256 l 1,0,-1
64 320 m 1,12,-1
 64 256 l 1,13,-1
 0 256 l 1,14,-1
 0 320 l 1,15,-1
 64 320 l 1,12,-1
EndSplineSet
EndChar

StartChar: guilsinglleft
Encoding: 348 8249 346
Width: 384
VWidth: 1020
Flags: MW
LayerCount: 2
Fore
SplineSet
192 256 m 1,0,-1
 192 320 l 1,1,-1
 256 320 l 1,2,-1
 256 256 l 1,3,-1
 192 256 l 1,0,-1
192 256 m 1,4,-1
 192 192 l 1,5,-1
 128 192 l 1,6,-1
 128 256 l 1,7,-1
 192 256 l 1,4,-1
128 192 m 1,8,-1
 128 128 l 1,9,-1
 64 128 l 1,10,-1
 64 192 l 1,11,-1
 128 192 l 1,8,-1
128 128 m 1,12,-1
 192 128 l 1,13,-1
 192 64 l 1,14,-1
 128 64 l 1,15,-1
 128 128 l 1,12,-1
192 64 m 1,16,-1
 256 64 l 1,17,-1
 256 0 l 1,18,-1
 192 0 l 1,19,-1
 192 64 l 1,16,-1
EndSplineSet
EndChar

StartChar: guilsinglright
Encoding: 349 8250 347
Width: 384
VWidth: 1020
Flags: MW
LayerCount: 2
Fore
SplineSet
64 0 m 1,0,-1
 64 64 l 1,1,-1
 128 64 l 1,2,-1
 128 128 l 1,3,-1
 192 128 l 1,4,-1
 192 192 l 1,5,-1
 128 192 l 1,6,-1
 128 256 l 1,7,-1
 64 256 l 1,8,-1
 64 320 l 1,9,-1
 128 320 l 1,10,-1
 128 256 l 1,11,-1
 192 256 l 1,12,-1
 192 192 l 1,13,-1
 256 192 l 1,14,-1
 256 128 l 1,15,-1
 192 128 l 1,16,-1
 192 64 l 1,17,-1
 128 64 l 1,18,-1
 128 0 l 1,19,-1
 64 0 l 1,0,-1
EndSplineSet
EndChar

StartChar: Euro
Encoding: 350 8364 348
Width: 384
VWidth: 1020
Flags: MW
LayerCount: 2
Fore
SplineSet
256 320 m 1,0,-1
 256 384 l 1,1,-1
 320 384 l 1,2,-1
 320 320 l 1,3,-1
 256 320 l 1,0,-1
256 64 m 1,4,-1
 256 0 l 1,5,-1
 128 0 l 1,6,-1
 128 64 l 1,7,-1
 256 64 l 1,4,-1
256 64 m 1,8,-1
 256 128 l 1,9,-1
 320 128 l 1,10,-1
 320 64 l 1,11,-1
 256 64 l 1,8,-1
128 64 m 1,12,-1
 64 64 l 1,13,-1
 64 128 l 1,14,-1
 0 128 l 1,15,-1
 0 192 l 1,16,-1
 64 192 l 1,17,-1
 64 256 l 1,18,-1
 0 256 l 1,19,-1
 0 320 l 1,20,-1
 64 320 l 1,21,-1
 64 384 l 1,22,-1
 128 384 l 1,23,-1
 128 320 l 1,24,-1
 192 320 l 1,25,-1
 192 256 l 1,26,-1
 128 256 l 1,27,-1
 128 192 l 1,28,-1
 192 192 l 1,29,-1
 192 128 l 1,30,-1
 128 128 l 1,31,-1
 128 64 l 1,12,-1
256 384 m 1,32,-1
 128 384 l 1,33,-1
 128 448 l 1,34,-1
 256 448 l 1,35,-1
 256 384 l 1,32,-1
EndSplineSet
EndChar

StartChar: trademark
Encoding: 351 8482 349
Width: 384
VWidth: 1020
Flags: MW
LayerCount: 2
Fore
SplineSet
320 256 m 1,0,-1
 320 320 l 1,1,-1
 256 320 l 1,2,-1
 256 256 l 5,3,-1
 192 256 l 1,4,-1
 192 384 l 1,5,-1
 128 384 l 1,6,-1
 128 256 l 1,7,-1
 64 256 l 1,8,-1
 64 384 l 1,9,-1
 0 384 l 1,10,-1
 0 448 l 1,11,-1
 256 448 l 1,12,-1
 256 384 l 1,13,-1
 320 384 l 1,14,-1
 320 448 l 1,15,-1
 384 448 l 1,16,-1
 384 256 l 1,17,-1
 320 256 l 1,0,-1
EndSplineSet
EndChar

StartChar: arrowleft
Encoding: 352 8592 350
Width: 384
VWidth: 1020
Flags: MW
LayerCount: 2
Fore
SplineSet
128 64 m 1,0,-1
 128 128 l 1,1,-1
 192 128 l 1,2,-1
 192 64 l 1,3,-1
 128 64 l 1,0,-1
128 128 m 1,4,-1
 64 128 l 1,5,-1
 64 192 l 1,6,-1
 0 192 l 1,7,-1
 0 256 l 1,8,-1
 64 256 l 1,9,-1
 64 320 l 1,10,-1
 128 320 l 1,11,-1
 128 256 l 1,12,-1
 320 256 l 1,13,-1
 320 192 l 1,14,-1
 128 192 l 1,15,-1
 128 128 l 1,4,-1
128 320 m 1,16,-1
 128 384 l 1,17,-1
 192 384 l 1,18,-1
 192 320 l 1,19,-1
 128 320 l 1,16,-1
EndSplineSet
EndChar

StartChar: arrowup
Encoding: 353 8593 351
Width: 384
VWidth: 1020
Flags: MW
LayerCount: 2
Fore
SplineSet
128 64 m 1,0,-1
 128 256 l 1,1,-1
 64 256 l 1,2,-1
 64 192 l 1,3,-1
 0 192 l 1,4,-1
 0 256 l 1,5,-1
 64 256 l 1,6,-1
 64 320 l 1,7,-1
 128 320 l 1,8,-1
 128 384 l 1,9,-1
 192 384 l 1,10,-1
 192 320 l 1,11,-1
 256 320 l 1,12,-1
 256 256 l 1,13,-1
 320 256 l 1,14,-1
 320 192 l 1,15,-1
 256 192 l 1,16,-1
 256 256 l 1,17,-1
 192 256 l 1,18,-1
 192 64 l 1,19,-1
 128 64 l 1,0,-1
EndSplineSet
EndChar

StartChar: arrowright
Encoding: 354 8594 352
Width: 384
VWidth: 1020
Flags: MW
LayerCount: 2
Fore
SplineSet
128 64 m 1,0,-1
 128 128 l 1,1,-1
 192 128 l 1,2,-1
 192 64 l 1,3,-1
 128 64 l 1,0,-1
192 128 m 1,4,-1
 192 192 l 1,5,-1
 0 192 l 1,6,-1
 0 256 l 1,7,-1
 192 256 l 1,8,-1
 192 320 l 1,9,-1
 256 320 l 1,10,-1
 256 256 l 1,11,-1
 320 256 l 1,12,-1
 320 192 l 1,13,-1
 256 192 l 1,14,-1
 256 128 l 1,15,-1
 192 128 l 1,4,-1
192 320 m 1,16,-1
 128 320 l 1,17,-1
 128 384 l 1,18,-1
 192 384 l 1,19,-1
 192 320 l 1,16,-1
EndSplineSet
EndChar

StartChar: arrowdown
Encoding: 355 8595 353
Width: 384
VWidth: 1020
Flags: MW
LayerCount: 2
Fore
SplineSet
128 64 m 1,0,-1
 128 128 l 1,1,-1
 64 128 l 1,2,-1
 64 192 l 1,3,-1
 128 192 l 1,4,-1
 128 384 l 1,5,-1
 192 384 l 1,6,-1
 192 192 l 1,7,-1
 256 192 l 1,8,-1
 256 128 l 1,9,-1
 192 128 l 1,10,-1
 192 64 l 1,11,-1
 128 64 l 1,0,-1
256 192 m 1,12,-1
 256 256 l 1,13,-1
 320 256 l 1,14,-1
 320 192 l 1,15,-1
 256 192 l 1,12,-1
64 192 m 1,16,-1
 0 192 l 1,17,-1
 0 256 l 1,18,-1
 64 256 l 1,19,-1
 64 192 l 1,16,-1
EndSplineSet
EndChar

StartChar: infinity
Encoding: 356 8734 354
Width: 384
VWidth: 1020
Flags: MW
LayerCount: 2
Fore
SplineSet
256 128 m 5,0,-1
 256 64 l 5,1,-1
 192 64 l 1,2,-1
 192 128 l 5,3,-1
 256 128 l 5,0,-1
128 128 m 1,4,-1
 128 64 l 1,5,-1
 64 64 l 1,6,-1
 64 128 l 1,7,-1
 128 128 l 1,4,-1
256 128 m 5,8,-1
 256 256 l 5,9,-1
 320 256 l 5,10,-1
 320 128 l 5,11,-1
 256 128 l 5,8,-1
192 128 m 1,12,-1
 128 128 l 1,13,-1
 128 256 l 1,14,-1
 192 256 l 5,15,-1
 192 128 l 1,12,-1
64 128 m 1,16,-1
 0 128 l 1,17,-1
 0 256 l 1,18,-1
 64 256 l 1,19,-1
 64 128 l 1,16,-1
256 256 m 5,20,-1
 192 256 l 5,21,-1
 192 320 l 5,22,-1
 256 320 l 5,23,-1
 256 256 l 5,20,-1
128 320 m 1,24,-1
 128 256 l 1,25,-1
 64 256 l 1,26,-1
 64 320 l 1,27,-1
 128 320 l 1,24,-1
EndSplineSet
EndChar

StartChar: notequal
Encoding: 357 8800 355
Width: 384
VWidth: 1020
Flags: MW
LayerCount: 2
Fore
SplineSet
64 64 m 1,0,-1
 64 128 l 1,1,-1
 0 128 l 1,2,-1
 0 192 l 1,3,-1
 128 192 l 1,4,-1
 128 256 l 1,5,-1
 0 256 l 1,6,-1
 0 320 l 1,7,-1
 192 320 l 1,8,-1
 192 384 l 1,9,-1
 256 384 l 1,10,-1
 256 320 l 1,11,-1
 320 320 l 1,12,-1
 320 256 l 1,13,-1
 192 256 l 1,14,-1
 192 192 l 1,15,-1
 320 192 l 1,16,-1
 320 128 l 1,17,-1
 128 128 l 1,18,-1
 128 64 l 1,19,-1
 64 64 l 1,0,-1
EndSplineSet
EndChar

StartChar: lessequal
Encoding: 358 8804 356
Width: 384
VWidth: 1020
Flags: MW
LayerCount: 2
Fore
SplineSet
320 0 m 5,0,-1
 0 0 l 1,1,-1
 0 64 l 1,2,-1
 192 64 l 5,3,-1
 192 128 l 5,4,-1
 320 128 l 5,5,-1
 320 0 l 5,0,-1
192 128 m 5,6,-1
 64 128 l 5,7,-1
 64 192 l 5,8,-1
 192 192 l 5,9,-1
 192 128 l 5,6,-1
64 192 m 1,10,-1
 0 192 l 1,11,-1
 0 256 l 1,12,-1
 64 256 l 5,13,-1
 64 192 l 1,10,-1
64 320 m 5,14,-1
 192 320 l 5,15,-1
 192 256 l 5,16,-1
 64 256 l 5,17,-1
 64 320 l 5,14,-1
192 384 m 5,18,-1
 320 384 l 5,19,-1
 320 320 l 5,20,-1
 192 320 l 5,21,-1
 192 384 l 5,18,-1
EndSplineSet
EndChar

